<svg width="13" height="12" viewBox="0 0 13 12" fill="none" xmlns="http://www.w3.org/2000/svg">
<g clip-path="url(#clip0_1186_190)">
<path d="M0.639233 0.811768C0.453589 0.626123 0.453589 0.325049 0.639233 0.139307C0.824878 -0.0464355 1.12595 -0.0464355 1.31169 0.139307L6.49988 5.32749L11.6881 0.139307C11.8737 -0.0464355 12.1748 -0.0464355 12.3606 0.139307C12.5463 0.324951 12.5463 0.626123 12.3606 0.811768L7.17224 5.99985L12.3605 11.1881C12.5462 11.3738 12.5462 11.6749 12.3605 11.8606C12.1748 12.0463 11.8737 12.0463 11.688 11.8606L6.49978 6.67241L1.31169 11.8606C1.12605 12.0463 0.824976 12.0463 0.639233 11.8606C0.453589 11.675 0.453589 11.3739 0.639233 11.1881L5.82742 5.99985L0.639233 0.811768Z" fill="#7C88E0"/>
</g>
<defs>
<clipPath id="clip0_1186_190">
<rect width="11.9998" height="12" fill="white" transform="translate(0.5)"/>
</clipPath>
</defs>
</svg>
