<svg width="281" height="75" viewBox="0 0 281 75" fill="none" xmlns="http://www.w3.org/2000/svg">
<path d="M8.82677 6.99297C8.82677 10.8549 5.73115 13.9846 1.91218 13.9846C-1.90378 13.9846 -5 10.8549 -5 6.99297C-5 3.13102 -1.90378 0 1.91218 0C5.73115 0 8.82677 3.13102 8.82677 6.99297Z" fill="#C9C9FF"/>
<path d="M35.9825 6.99297C35.9825 10.8549 32.8887 13.9846 29.0703 13.9846C25.252 13.9846 22.1582 10.8549 22.1582 6.99297C22.1582 3.13102 25.252 0 29.0703 0C32.8887 0 35.9825 3.13102 35.9825 6.99297Z" fill="#C9C9FF"/>
<path d="M63.1392 6.99297C63.1392 10.8549 60.0437 13.9846 56.2271 13.9846C52.4087 13.9846 49.3125 10.8549 49.3125 6.99297C49.3125 3.13102 52.4087 0 56.2271 0C60.0437 0 63.1392 3.13102 63.1392 6.99297Z" fill="#C9C9FF"/>
<path d="M90.2949 6.99297C90.2949 10.8549 87.1994 13.9846 83.3828 13.9846C79.5645 13.9846 76.4707 10.8549 76.4707 6.99297C76.4707 3.13102 79.5645 0 83.3828 0C87.1994 0 90.2949 3.13102 90.2949 6.99297Z" fill="#C9C9FF"/>
<path d="M117.452 6.99297C117.452 10.8549 114.356 13.9846 110.537 13.9846C106.721 13.9846 103.625 10.8549 103.625 6.99297C103.625 3.13102 106.721 0 110.537 0C114.356 0 117.452 3.13102 117.452 6.99297Z" fill="#C9C9FF"/>
<path d="M144.607 6.99297C144.607 10.8549 141.512 13.9846 137.695 13.9846C133.877 13.9846 130.783 10.8549 130.783 6.99297C130.783 3.13102 133.877 0 137.695 0C141.512 0 144.607 3.13102 144.607 6.99297Z" fill="#C9C9FF"/>
<path d="M171.763 6.99297C171.763 10.8549 168.67 13.9846 164.851 13.9846C161.035 13.9846 157.941 10.8549 157.941 6.99297C157.941 3.13102 161.035 0 164.851 0C168.67 0 171.763 3.13102 171.763 6.99297Z" fill="#C9C9FF"/>
<path d="M198.922 6.99297C198.922 10.8549 195.826 13.9846 192.008 13.9846C188.189 13.9846 185.096 10.8549 185.096 6.99297C185.096 3.13102 188.189 0 192.008 0C195.826 0 198.922 3.13102 198.922 6.99297Z" fill="#C9C9FF"/>
<path d="M226.079 6.99297C226.079 10.8549 222.985 13.9846 219.164 13.9846C215.348 13.9846 212.252 10.8549 212.252 6.99297C212.252 3.13102 215.348 0 219.164 0C222.985 0 226.079 3.13102 226.079 6.99297Z" fill="#C9C9FF"/>
<path d="M253.234 6.99297C253.234 10.8549 250.141 13.9846 246.322 13.9846C242.504 13.9846 239.41 10.8549 239.41 6.99297C239.41 3.13102 242.504 0 246.322 0C250.141 0 253.234 3.13102 253.234 6.99297Z" fill="#C9C9FF"/>
<path d="M280.391 6.99297C280.391 10.8549 277.295 13.9846 273.479 13.9846C269.66 13.9846 266.566 10.8549 266.566 6.99297C266.566 3.13102 269.66 0 273.479 0C277.295 0 280.391 3.13102 280.391 6.99297Z" fill="#C9C9FF"/>
<path d="M8.82677 37.4225C8.82677 41.2845 5.73115 44.4136 1.91218 44.4136C-1.90378 44.4136 -5 41.2845 -5 37.4225C-5 33.5606 -1.90378 30.4297 1.91218 30.4297C5.73115 30.4297 8.82677 33.5606 8.82677 37.4225Z" fill="#C9C9FF"/>
<path d="M35.9825 37.4225C35.9825 41.2845 32.8887 44.4136 29.0703 44.4136C25.252 44.4136 22.1582 41.2845 22.1582 37.4225C22.1582 33.5606 25.252 30.4297 29.0703 30.4297C32.8887 30.4297 35.9825 33.5606 35.9825 37.4225Z" fill="#C9C9FF"/>
<path d="M63.1392 37.4225C63.1392 41.2845 60.0437 44.4136 56.2271 44.4136C52.4087 44.4136 49.3125 41.2845 49.3125 37.4225C49.3125 33.5606 52.4087 30.4297 56.2271 30.4297C60.0437 30.4297 63.1392 33.5606 63.1392 37.4225Z" fill="#C9C9FF"/>
<path d="M90.2949 37.4225C90.2949 41.2845 87.1994 44.4136 83.3828 44.4136C79.5645 44.4136 76.4707 41.2845 76.4707 37.4225C76.4707 33.5606 79.5645 30.4297 83.3828 30.4297C87.1994 30.4297 90.2949 33.5606 90.2949 37.4225Z" fill="#C9C9FF"/>
<path d="M117.452 37.4225C117.452 41.2845 114.356 44.4136 110.537 44.4136C106.721 44.4136 103.625 41.2845 103.625 37.4225C103.625 33.5606 106.721 30.4297 110.537 30.4297C114.356 30.4297 117.452 33.5606 117.452 37.4225Z" fill="#C9C9FF"/>
<path d="M144.607 37.4225C144.607 41.2845 141.512 44.4136 137.695 44.4136C133.877 44.4136 130.783 41.2845 130.783 37.4225C130.783 33.5606 133.877 30.4297 137.695 30.4297C141.512 30.4297 144.607 33.5606 144.607 37.4225Z" fill="#C9C9FF"/>
<path d="M171.763 37.4225C171.763 41.2845 168.67 44.4136 164.851 44.4136C161.035 44.4136 157.941 41.2845 157.941 37.4225C157.941 33.5606 161.035 30.4297 164.851 30.4297C168.67 30.4297 171.763 33.5606 171.763 37.4225Z" fill="#C9C9FF"/>
<path d="M198.922 37.4225C198.922 41.2845 195.826 44.4136 192.008 44.4136C188.189 44.4136 185.096 41.2845 185.096 37.4225C185.096 33.5606 188.189 30.4297 192.008 30.4297C195.826 30.4297 198.922 33.5606 198.922 37.4225Z" fill="#C9C9FF"/>
<path d="M226.079 37.4225C226.079 41.2845 222.985 44.4136 219.164 44.4136C215.348 44.4136 212.252 41.2845 212.252 37.4225C212.252 33.5606 215.348 30.4297 219.164 30.4297C222.985 30.4297 226.079 33.5606 226.079 37.4225Z" fill="#C9C9FF"/>
<path d="M253.234 37.4225C253.234 41.2845 250.141 44.4136 246.322 44.4136C242.504 44.4136 239.41 41.2845 239.41 37.4225C239.41 33.5606 242.504 30.4297 246.322 30.4297C250.141 30.4297 253.234 33.5606 253.234 37.4225Z" fill="#C9C9FF"/>
<path d="M280.391 37.4225C280.391 41.2845 277.295 44.4136 273.479 44.4136C269.66 44.4136 266.566 41.2845 266.566 37.4225C266.566 33.5606 269.66 30.4297 273.479 30.4297C277.295 30.4297 280.391 33.5606 280.391 37.4225Z" fill="#C9C9FF"/>
<path d="M8.82677 67.8536C8.82677 71.7156 5.73115 74.8447 1.91218 74.8447C-1.90378 74.8447 -5 71.7156 -5 67.8536C-5 63.9935 -1.90378 60.8625 1.91218 60.8625C5.73115 60.8625 8.82677 63.9935 8.82677 67.8536Z" fill="#C9C9FF"/>
<path d="M35.9825 67.8536C35.9825 71.7156 32.8887 74.8447 29.0703 74.8447C25.252 74.8447 22.1582 71.7156 22.1582 67.8536C22.1582 63.9935 25.252 60.8625 29.0703 60.8625C32.8887 60.8625 35.9825 63.9935 35.9825 67.8536Z" fill="#C9C9FF"/>
<path d="M63.1392 67.8536C63.1392 71.7156 60.0437 74.8447 56.2271 74.8447C52.4087 74.8447 49.3125 71.7156 49.3125 67.8536C49.3125 63.9935 52.4087 60.8625 56.2271 60.8625C60.0437 60.8625 63.1392 63.9935 63.1392 67.8536Z" fill="#C9C9FF"/>
<path d="M90.2949 67.8536C90.2949 71.7156 87.1994 74.8447 83.3828 74.8447C79.5645 74.8447 76.4707 71.7156 76.4707 67.8536C76.4707 63.9935 79.5645 60.8625 83.3828 60.8625C87.1994 60.8625 90.2949 63.9935 90.2949 67.8536Z" fill="#C9C9FF"/>
<path d="M117.452 67.8536C117.452 71.7156 114.356 74.8447 110.537 74.8447C106.721 74.8447 103.625 71.7156 103.625 67.8536C103.625 63.9935 106.721 60.8625 110.537 60.8625C114.356 60.8625 117.452 63.9935 117.452 67.8536Z" fill="#C9C9FF"/>
<path d="M144.607 67.8536C144.607 71.7156 141.512 74.8447 137.695 74.8447C133.877 74.8447 130.783 71.7156 130.783 67.8536C130.783 63.9935 133.877 60.8625 137.695 60.8625C141.512 60.8625 144.607 63.9935 144.607 67.8536Z" fill="#C9C9FF"/>
<path d="M171.763 67.8536C171.763 71.7156 168.67 74.8447 164.851 74.8447C161.035 74.8447 157.941 71.7156 157.941 67.8536C157.941 63.9935 161.035 60.8625 164.851 60.8625C168.67 60.8625 171.763 63.9935 171.763 67.8536Z" fill="#C9C9FF"/>
<path d="M198.922 67.8536C198.922 71.7156 195.826 74.8447 192.008 74.8447C188.189 74.8447 185.096 71.7156 185.096 67.8536C185.096 63.9935 188.189 60.8625 192.008 60.8625C195.826 60.8625 198.922 63.9935 198.922 67.8536Z" fill="#C9C9FF"/>
<path d="M226.079 67.8536C226.079 71.7156 222.985 74.8447 219.164 74.8447C215.348 74.8447 212.252 71.7156 212.252 67.8536C212.252 63.9935 215.348 60.8625 219.164 60.8625C222.985 60.8625 226.079 63.9935 226.079 67.8536Z" fill="#C9C9FF"/>
<path d="M253.234 67.8536C253.234 71.7156 250.141 74.8447 246.322 74.8447C242.504 74.8447 239.41 71.7156 239.41 67.8536C239.41 63.9935 242.504 60.8625 246.322 60.8625C250.141 60.8625 253.234 63.9935 253.234 67.8536Z" fill="#C9C9FF"/>
<path d="M280.391 67.8536C280.391 71.7156 277.295 74.8447 273.479 74.8447C269.66 74.8447 266.566 71.7156 266.566 67.8536C266.566 63.9935 269.66 60.8625 273.479 60.8625C277.295 60.8625 280.391 63.9935 280.391 67.8536Z" fill="#C9C9FF"/>
</svg>
