<svg width="99" height="38" viewBox="0 0 99 38" fill="none" xmlns="http://www.w3.org/2000/svg">
<path d="M6.65063 4.13837C6.65063 6.01866 5.16164 7.54245 3.32473 7.54245C1.48927 7.54245 0 6.01866 0 4.13837C0 2.25807 1.48927 0.733643 3.32473 0.733643C5.16164 0.733643 6.65063 2.25807 6.65063 4.13837Z" fill="#DDF444"/>
<path d="M19.7129 4.13837C19.7129 6.01866 18.2248 7.54245 16.3882 7.54245C14.5516 7.54245 13.0635 6.01866 13.0635 4.13837C13.0635 2.25807 14.5516 0.733643 16.3882 0.733643C18.2248 0.733643 19.7129 2.25807 19.7129 4.13837Z" fill="#DDF444"/>
<path d="M32.7746 4.13837C32.7746 6.01866 31.2857 7.54245 29.4499 7.54245C27.6133 7.54245 26.124 6.01866 26.124 4.13837C26.124 2.25807 27.6133 0.733643 29.4499 0.733643C31.2857 0.733643 32.7746 2.25807 32.7746 4.13837Z" fill="#DDF444"/>
<path d="M45.8359 4.13837C45.8359 6.01866 44.347 7.54245 42.5112 7.54245C40.6746 7.54245 39.1865 6.01866 39.1865 4.13837C39.1865 2.25807 40.6746 0.733643 42.5112 0.733643C44.347 0.733643 45.8359 2.25807 45.8359 4.13837Z" fill="#DDF444"/>
<path d="M58.8986 4.13837C58.8986 6.01866 57.4097 7.54245 55.5728 7.54245C53.7373 7.54245 52.248 6.01866 52.248 4.13837C52.248 2.25807 53.7373 0.733643 55.5728 0.733643C57.4097 0.733643 58.8986 2.25807 58.8986 4.13837Z" fill="#DDF444"/>
<path d="M71.9609 4.13837C71.9609 6.01866 70.472 7.54245 68.6363 7.54245C66.7996 7.54245 65.3115 6.01866 65.3115 4.13837C65.3115 2.25807 66.7996 0.733643 68.6363 0.733643C70.472 0.733643 71.9609 2.25807 71.9609 4.13837Z" fill="#DDF444"/>
<path d="M85.0224 4.13837C85.0224 6.01866 83.5345 7.54245 81.6976 7.54245C79.8622 7.54245 78.374 6.01866 78.374 4.13837C78.374 2.25807 79.8622 0.733643 81.6976 0.733643C83.5345 0.733643 85.0224 2.25807 85.0224 4.13837Z" fill="#DDF444"/>
<path d="M98.0861 4.13837C98.0861 6.01866 96.5968 7.54245 94.7602 7.54245C92.9236 7.54245 91.4355 6.01866 91.4355 4.13837C91.4355 2.25807 92.9236 0.733643 94.7602 0.733643C96.5968 0.733643 98.0861 2.25807 98.0861 4.13837Z" fill="#DDF444"/>
<path d="M6.65063 18.954C6.65063 20.8343 5.16164 22.3578 3.32473 22.3578C1.48927 22.3578 0 20.8343 0 18.954C0 17.0737 1.48927 15.5493 3.32473 15.5493C5.16164 15.5493 6.65063 17.0737 6.65063 18.954Z" fill="#DDF444"/>
<path d="M19.7119 18.954C19.7119 20.8343 18.2238 22.3578 16.3872 22.3578C14.5506 22.3578 13.0625 20.8343 13.0625 18.954C13.0625 17.0737 14.5506 15.5493 16.3872 15.5493C18.2238 15.5493 19.7119 17.0737 19.7119 18.954Z" fill="#DDF444"/>
<path d="M32.7746 18.954C32.7746 20.8343 31.2857 22.3578 29.4499 22.3578C27.6133 22.3578 26.124 20.8343 26.124 18.954C26.124 17.0737 27.6133 15.5493 29.4499 15.5493C31.2857 15.5493 32.7746 17.0737 32.7746 18.954Z" fill="#DDF444"/>
<path d="M45.8369 18.954C45.8369 20.8343 44.348 22.3578 42.5122 22.3578C40.6756 22.3578 39.1875 20.8343 39.1875 18.954C39.1875 17.0737 40.6756 15.5493 42.5122 15.5493C44.348 15.5493 45.8369 17.0737 45.8369 18.954Z" fill="#DDF444"/>
<path d="M58.8986 18.954C58.8986 20.8343 57.4097 22.3578 55.5728 22.3578C53.7373 22.3578 52.248 20.8343 52.248 18.954C52.248 17.0737 53.7373 15.5493 55.5728 15.5493C57.4097 15.5493 58.8986 17.0737 58.8986 18.954Z" fill="#DDF444"/>
<path d="M71.96 18.954C71.96 20.8343 70.471 22.3578 68.6353 22.3578C66.7987 22.3578 65.3105 20.8343 65.3105 18.954C65.3105 17.0737 66.7987 15.5493 68.6353 15.5493C70.471 15.5493 71.96 17.0737 71.96 18.954Z" fill="#DDF444"/>
<path d="M85.0224 18.954C85.0224 20.8343 83.5345 22.3578 81.6976 22.3578C79.8622 22.3578 78.374 20.8343 78.374 18.954C78.374 17.0737 79.8622 15.5493 81.6976 15.5493C83.5345 15.5493 85.0224 17.0737 85.0224 18.954Z" fill="#DDF444"/>
<path d="M98.0861 18.954C98.0861 20.8343 96.5968 22.3578 94.7602 22.3578C92.9236 22.3578 91.4355 20.8343 91.4355 18.954C91.4355 17.0737 92.9236 15.5493 94.7602 15.5493C96.5968 15.5493 98.0861 17.0737 98.0861 18.954Z" fill="#DDF444"/>
<path d="M6.65063 33.77C6.65063 35.6503 5.16164 37.1738 3.32473 37.1738C1.48927 37.1738 0 35.6503 0 33.77C0 31.8906 1.48927 30.3662 3.32473 30.3662C5.16164 30.3662 6.65063 31.8906 6.65063 33.77Z" fill="#DDF444"/>
<path d="M19.7119 33.77C19.7119 35.6503 18.2238 37.1738 16.3872 37.1738C14.5506 37.1738 13.0625 35.6503 13.0625 33.77C13.0625 31.8906 14.5506 30.3662 16.3872 30.3662C18.2238 30.3662 19.7119 31.8906 19.7119 33.77Z" fill="#DDF444"/>
<path d="M32.7746 33.77C32.7746 35.6503 31.2857 37.1738 29.4499 37.1738C27.6133 37.1738 26.124 35.6503 26.124 33.77C26.124 31.8906 27.6133 30.3662 29.4499 30.3662C31.2857 30.3662 32.7746 31.8906 32.7746 33.77Z" fill="#DDF444"/>
<path d="M45.8369 33.77C45.8369 35.6503 44.348 37.1738 42.5122 37.1738C40.6756 37.1738 39.1875 35.6503 39.1875 33.77C39.1875 31.8906 40.6756 30.3662 42.5122 30.3662C44.348 30.3662 45.8369 31.8906 45.8369 33.77Z" fill="#DDF444"/>
<path d="M58.8986 33.77C58.8986 35.6503 57.4097 37.1738 55.5728 37.1738C53.7373 37.1738 52.248 35.6503 52.248 33.77C52.248 31.8906 53.7373 30.3662 55.5728 30.3662C57.4097 30.3662 58.8986 31.8906 58.8986 33.77Z" fill="#DDF444"/>
<path d="M71.96 33.77C71.96 35.6503 70.471 37.1738 68.6353 37.1738C66.7987 37.1738 65.3105 35.6503 65.3105 33.77C65.3105 31.8906 66.7987 30.3662 68.6353 30.3662C70.471 30.3662 71.96 31.8906 71.96 33.77Z" fill="#DDF444"/>
<path d="M85.0224 33.77C85.0224 35.6503 83.5345 37.1738 81.6976 37.1738C79.8622 37.1738 78.374 35.6503 78.374 33.77C78.374 31.8906 79.8622 30.3662 81.6976 30.3662C83.5345 30.3662 85.0224 31.8906 85.0224 33.77Z" fill="#DDF444"/>
<path d="M98.0861 33.77C98.0861 35.6503 96.5968 37.1738 94.7602 37.1738C92.9236 37.1738 91.4355 35.6503 91.4355 33.77C91.4355 31.8906 92.9236 30.3662 94.7602 30.3662C96.5968 30.3662 98.0861 31.8906 98.0861 33.77Z" fill="#DDF444"/>
</svg>
