<svg width="98" height="102" viewBox="0 0 98 102" fill="none" xmlns="http://www.w3.org/2000/svg">
<path d="M35.2871 79.4861C45.4489 85.4864 55.1717 85.4865 65.3335 79.4861C75.5089 73.4777 80.3563 64.8424 80.356 52.8257C80.3558 40.8095 75.5085 32.1749 65.3335 26.1666C55.1717 20.1662 45.4489 20.1663 35.2871 26.1666C25.112 32.1748 20.2644 40.8094 20.2641 52.8257C20.2639 64.8425 25.1116 73.4777 35.2871 79.4861ZM67.451 83.2446C55.8567 90.0908 44.7632 90.0907 33.1687 83.2446C21.5586 76.3892 16.0273 66.5367 16.0273 52.8257C16.0274 39.115 21.5587 29.2627 33.1687 22.4074C44.7632 15.5612 55.8567 15.5611 67.451 22.4074C79.0609 29.2627 84.5917 39.1151 84.5918 52.8257C84.5919 66.5365 79.061 76.3891 67.451 83.2446Z" fill="#DCF343"/>
<path d="M27.3889 88.9546C41.8397 97.4962 55.6664 97.4963 70.1171 88.9546C84.5873 80.4013 91.4808 68.1087 91.4804 51.0025C91.4801 33.8969 84.5868 21.6052 70.1171 13.0522C55.6664 4.51043 41.8397 4.51054 27.3889 13.0522C12.919 21.6051 6.02536 33.8968 6.02501 51.0025C6.02467 68.1088 12.9185 80.4014 27.3889 88.9546ZM73.1285 94.3048C56.6404 104.051 40.8646 104.051 24.3764 94.3048C7.86586 84.5459 -0.000114425 70.5205 1.24841e-09 51.0025C0.000114427 31.4847 7.86604 17.4596 24.3764 7.70073C40.8646 -2.04501 56.6404 -2.04519 73.1285 7.70073C89.6386 17.4596 97.5038 31.4849 97.504 51.0025C97.5041 70.5203 89.6387 84.5458 73.1285 94.3048Z" fill="#DCF343"/>
</svg>
