<svg width="28" height="29" viewBox="0 0 28 29" fill="none" xmlns="http://www.w3.org/2000/svg">
<path d="M27.0537 23.3877H22.9895C21.9108 18.6514 15.2065 18.6514 14.1277 23.3877H0.946266C0.6953 23.3877 0.454614 23.4875 0.277155 23.6652C0.0996955 23.8428 0 24.0838 0 24.335C0 24.5862 0.0996955 24.8272 0.277155 25.0048C0.454614 25.1825 0.6953 25.2823 0.946266 25.2823H14.1419C15.2254 30.0186 21.9297 30.0186 23.0037 25.2823H27.0537C27.3047 25.2823 27.5454 25.1825 27.7228 25.0048C27.9003 24.8272 28 24.5862 28 24.335C28 24.0838 27.9003 23.8428 27.7228 23.6652C27.5454 23.4875 27.3047 23.3877 27.0537 23.3877ZM18.5752 26.9779C15.0835 26.8547 15.0835 21.8152 18.5752 21.6921C22.0669 21.8152 22.0669 26.8547 18.5752 26.9779Z" fill="#4C4DEA"/>
<path d="M27.0537 13.7161H12.3535C11.2748 8.97973 4.57046 8.97973 3.49172 13.7161H0.946266C0.6953 13.7161 0.454614 13.8159 0.277155 13.9935C0.0996955 14.1712 0 14.4121 0 14.6634C0 14.9146 0.0996955 15.1555 0.277155 15.3332C0.454614 15.5108 0.6953 15.6106 0.946266 15.6106H3.49172C4.57046 20.347 11.2748 20.347 12.3535 15.6106H27.0537C27.3047 15.6106 27.5454 15.5108 27.7228 15.3332C27.9003 15.1555 28 14.9146 28 14.6634C28 14.4121 27.9003 14.1712 27.7228 13.9935C27.5454 13.8159 27.3047 13.7161 27.0537 13.7161ZM7.92497 17.3063C4.43325 17.1926 4.43799 12.1294 7.92497 12.0205C11.412 12.1341 11.412 17.1973 7.92497 17.3063Z" fill="#4C4DEA"/>
<path d="M0.946266 5.93876H9.56674C10.6502 10.6751 17.3545 10.6751 18.4333 5.93876H27.0537C27.3047 5.93876 27.5454 5.83896 27.7228 5.66131C27.9003 5.48366 28 5.24272 28 4.99149C28 4.74026 27.9003 4.49931 27.7228 4.32167C27.5454 4.14402 27.3047 4.04422 27.0537 4.04422H18.4333C17.3498 -0.692147 10.6455 -0.692147 9.56674 4.04422H0.946266C0.6953 4.04422 0.454614 4.14402 0.277155 4.32167C0.0996955 4.49931 0 4.74026 0 4.99149C0 5.24272 0.0996955 5.48366 0.277155 5.66131C0.454614 5.83896 0.6953 5.93876 0.946266 5.93876ZM14 2.3486C17.4917 2.47174 17.4917 7.51123 14 7.63438C10.5083 7.51123 10.5083 2.47174 14 2.3486Z" fill="#4C4DEA"/>
</svg>
