<svg width="17" height="8" viewBox="0 0 17 8" fill="none" xmlns="http://www.w3.org/2000/svg">
<g clip-path="url(#clip0_1186_168)">
<path d="M2.14704 0.233075C1.79288 -0.0837686 1.22517 -0.0765948 0.880116 0.249814C0.535065 0.575027 0.542877 1.09632 0.898345 1.41317L8.03246 7.76439L8.65616 7.17494L8.03116 7.76678C8.38793 8.08362 8.95694 8.07645 9.30199 7.74884C9.31241 7.73928 9.32152 7.72971 9.33064 7.72015L16.3541 1.41197C16.7095 1.09513 16.7174 0.575027 16.3723 0.248618C16.0273 -0.0765948 15.4608 -0.0837686 15.1054 0.233075L8.65355 6.02713L2.14704 0.233075Z" fill="black"/>
</g>
<defs>
<clipPath id="clip0_1186_168">
<rect width="8" height="16" fill="white" transform="matrix(0 1 -1 0 16.626 0)"/>
</clipPath>
</defs>
</svg>
