<svg width="263" height="75" viewBox="0 0 263 75" fill="none" xmlns="http://www.w3.org/2000/svg">
<path d="M13.8268 6.99297C13.8268 10.8549 10.7311 13.9846 6.91218 13.9846C3.09622 13.9846 0 10.8549 0 6.99297C0 3.13102 3.09622 0 6.91218 0C10.7311 0 13.8268 3.13102 13.8268 6.99297Z" fill="#C9C9FF"/>
<path d="M40.9825 6.99297C40.9825 10.8549 37.8887 13.9846 34.0703 13.9846C30.252 13.9846 27.1582 10.8549 27.1582 6.99297C27.1582 3.13102 30.252 0 34.0703 0C37.8887 0 40.9825 3.13102 40.9825 6.99297Z" fill="#C9C9FF"/>
<path d="M68.1392 6.99297C68.1392 10.8549 65.0437 13.9846 61.2271 13.9846C57.4087 13.9846 54.3125 10.8549 54.3125 6.99297C54.3125 3.13102 57.4087 0 61.2271 0C65.0437 0 68.1392 3.13102 68.1392 6.99297Z" fill="#C9C9FF"/>
<path d="M95.2949 6.99297C95.2949 10.8549 92.1994 13.9846 88.3828 13.9846C84.5645 13.9846 81.4707 10.8549 81.4707 6.99297C81.4707 3.13102 84.5645 0 88.3828 0C92.1994 0 95.2949 3.13102 95.2949 6.99297Z" fill="#C9C9FF"/>
<path d="M122.452 6.99297C122.452 10.8549 119.356 13.9846 115.537 13.9846C111.721 13.9846 108.625 10.8549 108.625 6.99297C108.625 3.13102 111.721 0 115.537 0C119.356 0 122.452 3.13102 122.452 6.99297Z" fill="#C9C9FF"/>
<path d="M149.607 6.99297C149.607 10.8549 146.512 13.9846 142.695 13.9846C138.877 13.9846 135.783 10.8549 135.783 6.99297C135.783 3.13102 138.877 0 142.695 0C146.512 0 149.607 3.13102 149.607 6.99297Z" fill="#C9C9FF"/>
<path d="M176.763 6.99297C176.763 10.8549 173.67 13.9846 169.851 13.9846C166.035 13.9846 162.941 10.8549 162.941 6.99297C162.941 3.13102 166.035 0 169.851 0C173.67 0 176.763 3.13102 176.763 6.99297Z" fill="#C9C9FF"/>
<path d="M203.922 6.99297C203.922 10.8549 200.826 13.9846 197.008 13.9846C193.189 13.9846 190.096 10.8549 190.096 6.99297C190.096 3.13102 193.189 0 197.008 0C200.826 0 203.922 3.13102 203.922 6.99297Z" fill="#C9C9FF"/>
<path d="M231.079 6.99297C231.079 10.8549 227.985 13.9846 224.164 13.9846C220.348 13.9846 217.252 10.8549 217.252 6.99297C217.252 3.13102 220.348 0 224.164 0C227.985 0 231.079 3.13102 231.079 6.99297Z" fill="#C9C9FF"/>
<path d="M258.234 6.99297C258.234 10.8549 255.141 13.9846 251.322 13.9846C247.504 13.9846 244.41 10.8549 244.41 6.99297C244.41 3.13102 247.504 0 251.322 0C255.141 0 258.234 3.13102 258.234 6.99297Z" fill="#C9C9FF"/>
<path d="M13.8268 37.4225C13.8268 41.2845 10.7311 44.4136 6.91218 44.4136C3.09622 44.4136 0 41.2845 0 37.4225C0 33.5606 3.09622 30.4297 6.91218 30.4297C10.7311 30.4297 13.8268 33.5606 13.8268 37.4225Z" fill="#C9C9FF"/>
<path d="M40.9825 37.4225C40.9825 41.2845 37.8887 44.4136 34.0703 44.4136C30.252 44.4136 27.1582 41.2845 27.1582 37.4225C27.1582 33.5606 30.252 30.4297 34.0703 30.4297C37.8887 30.4297 40.9825 33.5606 40.9825 37.4225Z" fill="#C9C9FF"/>
<path d="M68.1392 37.4225C68.1392 41.2845 65.0437 44.4136 61.2271 44.4136C57.4087 44.4136 54.3125 41.2845 54.3125 37.4225C54.3125 33.5606 57.4087 30.4297 61.2271 30.4297C65.0437 30.4297 68.1392 33.5606 68.1392 37.4225Z" fill="#C9C9FF"/>
<path d="M95.2949 37.4225C95.2949 41.2845 92.1994 44.4136 88.3828 44.4136C84.5645 44.4136 81.4707 41.2845 81.4707 37.4225C81.4707 33.5606 84.5645 30.4297 88.3828 30.4297C92.1994 30.4297 95.2949 33.5606 95.2949 37.4225Z" fill="#C9C9FF"/>
<path d="M122.452 37.4225C122.452 41.2845 119.356 44.4136 115.537 44.4136C111.721 44.4136 108.625 41.2845 108.625 37.4225C108.625 33.5606 111.721 30.4297 115.537 30.4297C119.356 30.4297 122.452 33.5606 122.452 37.4225Z" fill="#C9C9FF"/>
<path d="M149.607 37.4225C149.607 41.2845 146.512 44.4136 142.695 44.4136C138.877 44.4136 135.783 41.2845 135.783 37.4225C135.783 33.5606 138.877 30.4297 142.695 30.4297C146.512 30.4297 149.607 33.5606 149.607 37.4225Z" fill="#C9C9FF"/>
<path d="M176.763 37.4225C176.763 41.2845 173.67 44.4136 169.851 44.4136C166.035 44.4136 162.941 41.2845 162.941 37.4225C162.941 33.5606 166.035 30.4297 169.851 30.4297C173.67 30.4297 176.763 33.5606 176.763 37.4225Z" fill="#C9C9FF"/>
<path d="M203.922 37.4225C203.922 41.2845 200.826 44.4136 197.008 44.4136C193.189 44.4136 190.096 41.2845 190.096 37.4225C190.096 33.5606 193.189 30.4297 197.008 30.4297C200.826 30.4297 203.922 33.5606 203.922 37.4225Z" fill="#C9C9FF"/>
<path d="M231.079 37.4225C231.079 41.2845 227.985 44.4136 224.164 44.4136C220.348 44.4136 217.252 41.2845 217.252 37.4225C217.252 33.5606 220.348 30.4297 224.164 30.4297C227.985 30.4297 231.079 33.5606 231.079 37.4225Z" fill="#C9C9FF"/>
<path d="M258.234 37.4225C258.234 41.2845 255.141 44.4136 251.322 44.4136C247.504 44.4136 244.41 41.2845 244.41 37.4225C244.41 33.5606 247.504 30.4297 251.322 30.4297C255.141 30.4297 258.234 33.5606 258.234 37.4225Z" fill="#C9C9FF"/>
<path d="M13.8268 67.8534C13.8268 71.7153 10.7311 74.8444 6.91218 74.8444C3.09622 74.8444 0 71.7153 0 67.8534C0 63.9933 3.09622 60.8623 6.91218 60.8623C10.7311 60.8623 13.8268 63.9933 13.8268 67.8534Z" fill="#C9C9FF"/>
<path d="M40.9825 67.8534C40.9825 71.7153 37.8887 74.8444 34.0703 74.8444C30.252 74.8444 27.1582 71.7153 27.1582 67.8534C27.1582 63.9933 30.252 60.8623 34.0703 60.8623C37.8887 60.8623 40.9825 63.9933 40.9825 67.8534Z" fill="#C9C9FF"/>
<path d="M68.1392 67.8534C68.1392 71.7153 65.0437 74.8444 61.2271 74.8444C57.4087 74.8444 54.3125 71.7153 54.3125 67.8534C54.3125 63.9933 57.4087 60.8623 61.2271 60.8623C65.0437 60.8623 68.1392 63.9933 68.1392 67.8534Z" fill="#C9C9FF"/>
<path d="M95.2949 67.8534C95.2949 71.7153 92.1994 74.8444 88.3828 74.8444C84.5645 74.8444 81.4707 71.7153 81.4707 67.8534C81.4707 63.9933 84.5645 60.8623 88.3828 60.8623C92.1994 60.8623 95.2949 63.9933 95.2949 67.8534Z" fill="#C9C9FF"/>
<path d="M122.452 67.8534C122.452 71.7153 119.356 74.8444 115.537 74.8444C111.721 74.8444 108.625 71.7153 108.625 67.8534C108.625 63.9933 111.721 60.8623 115.537 60.8623C119.356 60.8623 122.452 63.9933 122.452 67.8534Z" fill="#C9C9FF"/>
<path d="M149.607 67.8534C149.607 71.7153 146.512 74.8444 142.695 74.8444C138.877 74.8444 135.783 71.7153 135.783 67.8534C135.783 63.9933 138.877 60.8623 142.695 60.8623C146.512 60.8623 149.607 63.9933 149.607 67.8534Z" fill="#C9C9FF"/>
<path d="M176.763 67.8534C176.763 71.7153 173.67 74.8444 169.851 74.8444C166.035 74.8444 162.941 71.7153 162.941 67.8534C162.941 63.9933 166.035 60.8623 169.851 60.8623C173.67 60.8623 176.763 63.9933 176.763 67.8534Z" fill="#C9C9FF"/>
<path d="M203.922 67.8534C203.922 71.7153 200.826 74.8444 197.008 74.8444C193.189 74.8444 190.096 71.7153 190.096 67.8534C190.096 63.9933 193.189 60.8623 197.008 60.8623C200.826 60.8623 203.922 63.9933 203.922 67.8534Z" fill="#C9C9FF"/>
<path d="M231.079 67.8534C231.079 71.7153 227.985 74.8444 224.164 74.8444C220.348 74.8444 217.252 71.7153 217.252 67.8534C217.252 63.9933 220.348 60.8623 224.164 60.8623C227.985 60.8623 231.079 63.9933 231.079 67.8534Z" fill="#C9C9FF"/>
<path d="M258.234 67.8534C258.234 71.7153 255.141 74.8444 251.322 74.8444C247.504 74.8444 244.41 71.7153 244.41 67.8534C244.41 63.9933 247.504 60.8623 251.322 60.8623C255.141 60.8623 258.234 63.9933 258.234 67.8534Z" fill="#C9C9FF"/>
</svg>
