<svg width="205" height="210" viewBox="0 0 205 210" fill="none" xmlns="http://www.w3.org/2000/svg">
<path d="M74.1037 164.092C95.4434 176.541 115.861 176.541 137.201 164.092C158.569 151.627 168.749 133.712 168.748 108.782C168.748 83.8527 158.569 65.9389 137.201 53.4741C115.861 41.0255 95.4434 41.0257 74.1037 53.4741C52.7359 65.9389 42.5559 83.8525 42.5554 108.782C42.5549 133.712 52.7351 151.627 74.1037 164.092ZM141.648 171.89C117.3 186.093 94.0034 186.093 69.6551 171.89C45.2738 157.667 33.658 137.227 33.6582 108.782C33.6584 80.3371 45.2741 59.8972 69.6551 45.675C94.0034 31.4718 117.3 31.4715 141.648 45.675C166.029 59.8974 177.643 80.3374 177.643 108.782C177.644 137.227 166.029 157.667 141.648 171.89Z" fill="#E3E3FF"/>
<path d="M57.5166 183.736C87.8634 201.457 116.899 201.457 147.246 183.736C177.633 165.991 192.11 140.488 192.109 104.999C192.108 69.5116 177.632 44.0108 147.246 26.2666C116.899 8.54554 87.8634 8.54579 57.5166 26.2666C27.13 44.0107 12.6533 69.5114 12.6525 104.999C12.6518 140.489 27.1289 165.991 57.5166 183.736ZM153.57 194.836C118.945 215.055 85.8156 215.055 51.1904 194.836C16.5183 174.59 -0.000240293 145.492 2.62166e-09 104.999C0.000240296 64.5072 16.5187 35.4102 51.1904 15.1642C85.8156 -5.05456 118.945 -5.05493 153.57 15.1642C188.241 35.4104 204.758 64.5075 204.758 104.999C204.759 145.492 188.241 174.589 153.57 194.836Z" fill="#E3E3FF"/>
</svg>
