<svg width="91" height="210" viewBox="0 0 91 210" fill="none" xmlns="http://www.w3.org/2000/svg">
<path d="M-39.8963 164.092C-18.5566 176.541 1.86141 176.541 23.201 164.092C44.5694 151.627 54.7489 133.712 54.7484 108.782C54.7479 83.8527 44.5686 65.9389 23.201 53.4741C1.86141 41.0255 -18.5566 41.0257 -39.8963 53.4741C-61.2641 65.9389 -71.4441 83.8525 -71.4446 108.782C-71.4451 133.712 -61.2649 151.627 -39.8963 164.092ZM27.6479 171.89C3.29974 186.093 -19.9966 186.093 -44.3449 171.89C-68.7262 157.667 -80.342 137.227 -80.3418 108.782C-80.3416 80.3371 -68.7259 59.8972 -44.3449 45.675C-19.9966 31.4718 3.29974 31.4715 27.6479 45.675C52.0286 59.8974 63.6433 80.3374 63.6435 108.782C63.6437 137.227 52.0288 157.667 27.6479 171.89Z" fill="#E3E3FF"/>
<path d="M-56.4834 183.736C-26.1366 201.457 2.89937 201.457 33.246 183.736C63.6334 165.991 78.1096 140.488 78.1089 104.999C78.1081 69.5116 63.6323 44.0108 33.246 26.2666C2.89937 8.54554 -26.1366 8.54579 -56.4834 26.2666C-86.87 44.0107 -101.347 69.5114 -101.347 104.999C-101.348 140.489 -86.8711 165.991 -56.4834 183.736ZM39.5698 194.836C4.94479 215.055 -28.1844 215.055 -62.8096 194.836C-97.4817 174.59 -114 145.492 -114 104.999C-114 64.5072 -97.4813 35.4102 -62.8096 15.1642C-28.1844 -5.05456 4.94479 -5.05493 39.5698 15.1642C74.241 35.4104 90.7581 64.5075 90.7583 104.999C90.7585 145.492 74.2413 174.589 39.5698 194.836Z" fill="#E3E3FF"/>
</svg>
