<svg width="75" height="286" viewBox="0 0 75 286" fill="none" xmlns="http://www.w3.org/2000/svg">
<path d="M6.99297 271.564C10.8549 271.564 13.9846 274.659 13.9846 278.478C13.9846 282.294 10.8549 285.391 6.99297 285.391C3.13102 285.391 0 282.294 0 278.478C0 274.659 3.13102 271.564 6.99297 271.564Z" fill="#C9C9FF"/>
<path d="M6.99297 244.408C10.8549 244.408 13.9846 247.502 13.9846 251.32C13.9846 255.139 10.8549 258.232 6.99297 258.232C3.13102 258.232 0 255.139 0 251.32C0 247.502 3.13102 244.408 6.99297 244.408Z" fill="#C9C9FF"/>
<path d="M6.99297 217.251C10.8549 217.251 13.9846 220.347 13.9846 224.164C13.9846 227.982 10.8549 231.078 6.99297 231.078C3.13102 231.078 0 227.982 0 224.164C0 220.347 3.13102 217.251 6.99297 217.251Z" fill="#C9C9FF"/>
<path d="M6.99297 190.096C10.8549 190.096 13.9846 193.191 13.9846 197.008C13.9846 200.826 10.8549 203.92 6.99297 203.92C3.13102 203.92 0 200.826 0 197.008C0 193.191 3.13102 190.096 6.99297 190.096Z" fill="#C9C9FF"/>
<path d="M6.99297 162.939C10.8549 162.939 13.9846 166.034 13.9846 169.853C13.9846 173.669 10.8549 176.766 6.99297 176.766C3.13102 176.766 0 173.669 0 169.853C0 166.034 3.13102 162.939 6.99297 162.939Z" fill="#C9C9FF"/>
<path d="M6.99297 135.783C10.8549 135.783 13.9846 138.879 13.9846 142.695C13.9846 146.514 10.8549 149.607 6.99297 149.607C3.13102 149.607 0 146.514 0 142.695C0 138.879 3.13102 135.783 6.99297 135.783Z" fill="#C9C9FF"/>
<path d="M6.99297 108.627C10.8549 108.627 13.9846 111.72 13.9846 115.539C13.9846 119.355 10.8549 122.449 6.99297 122.449C3.13102 122.449 0 119.355 0 115.539C0 111.72 3.13102 108.627 6.99297 108.627Z" fill="#C9C9FF"/>
<path d="M6.99297 81.4682C10.8549 81.4682 13.9846 84.5645 13.9846 88.3829C13.9846 92.2012 10.8549 95.2949 6.99297 95.2949C3.13102 95.2949 0 92.2012 0 88.3829C0 84.5645 3.13102 81.4682 6.99297 81.4682Z" fill="#C9C9FF"/>
<path d="M6.99297 54.312C10.8549 54.312 13.9846 57.4057 13.9846 61.2265C13.9846 65.0425 10.8549 68.1387 6.99297 68.1387C3.13102 68.1387 0 65.0425 0 61.2265C0 57.4057 3.13102 54.312 6.99297 54.312Z" fill="#C9C9FF"/>
<path d="M6.99297 27.1562C10.8549 27.1562 13.9846 30.25 13.9846 34.0684C13.9846 37.8868 10.8549 40.9805 6.99297 40.9805C3.13102 40.9805 0 37.8868 0 34.0684C0 30.25 3.13102 27.1562 6.99297 27.1562Z" fill="#C9C9FF"/>
<path d="M6.99297 -0.000134468C10.8549 -0.000134468 13.9846 3.09548 13.9846 6.91204C13.9846 10.7304 10.8549 13.8242 6.99297 13.8242C3.13102 13.8242 0 10.7304 0 6.91204C0 3.09548 3.13102 -0.000134468 6.99297 -0.000134468Z" fill="#C9C9FF"/>
<path d="M37.4225 271.564C41.2845 271.564 44.4136 274.659 44.4136 278.478C44.4136 282.294 41.2845 285.391 37.4225 285.391C33.5606 285.391 30.4297 282.294 30.4297 278.478C30.4297 274.659 33.5606 271.564 37.4225 271.564Z" fill="#C9C9FF"/>
<path d="M37.4225 244.408C41.2845 244.408 44.4136 247.502 44.4136 251.32C44.4136 255.139 41.2845 258.232 37.4225 258.232C33.5606 258.232 30.4297 255.139 30.4297 251.32C30.4297 247.502 33.5606 244.408 37.4225 244.408Z" fill="#C9C9FF"/>
<path d="M37.4225 217.251C41.2845 217.251 44.4136 220.347 44.4136 224.164C44.4136 227.982 41.2845 231.078 37.4225 231.078C33.5606 231.078 30.4297 227.982 30.4297 224.164C30.4297 220.347 33.5606 217.251 37.4225 217.251Z" fill="#C9C9FF"/>
<path d="M37.4225 190.096C41.2845 190.096 44.4136 193.191 44.4136 197.008C44.4136 200.826 41.2845 203.92 37.4225 203.92C33.5606 203.92 30.4297 200.826 30.4297 197.008C30.4297 193.191 33.5606 190.096 37.4225 190.096Z" fill="#C9C9FF"/>
<path d="M37.4225 162.939C41.2845 162.939 44.4136 166.034 44.4136 169.853C44.4136 173.669 41.2845 176.766 37.4225 176.766C33.5606 176.766 30.4297 173.669 30.4297 169.853C30.4297 166.034 33.5606 162.939 37.4225 162.939Z" fill="#C9C9FF"/>
<path d="M37.4225 135.783C41.2845 135.783 44.4136 138.879 44.4136 142.695C44.4136 146.514 41.2845 149.607 37.4225 149.607C33.5606 149.607 30.4297 146.514 30.4297 142.695C30.4297 138.879 33.5606 135.783 37.4225 135.783Z" fill="#C9C9FF"/>
<path d="M37.4225 108.627C41.2845 108.627 44.4136 111.72 44.4136 115.539C44.4136 119.355 41.2845 122.449 37.4225 122.449C33.5606 122.449 30.4297 119.355 30.4297 115.539C30.4297 111.72 33.5606 108.627 37.4225 108.627Z" fill="#C9C9FF"/>
<path d="M37.4225 81.4682C41.2845 81.4682 44.4136 84.5645 44.4136 88.3829C44.4136 92.2012 41.2845 95.2949 37.4225 95.2949C33.5606 95.2949 30.4297 92.2012 30.4297 88.3829C30.4297 84.5645 33.5606 81.4682 37.4225 81.4682Z" fill="#C9C9FF"/>
<path d="M37.4225 54.312C41.2845 54.312 44.4136 57.4057 44.4136 61.2265C44.4136 65.0425 41.2845 68.1387 37.4225 68.1387C33.5606 68.1387 30.4297 65.0425 30.4297 61.2265C30.4297 57.4057 33.5606 54.312 37.4225 54.312Z" fill="#C9C9FF"/>
<path d="M37.4225 27.1562C41.2845 27.1562 44.4136 30.25 44.4136 34.0684C44.4136 37.8868 41.2845 40.9805 37.4225 40.9805C33.5606 40.9805 30.4297 37.8868 30.4297 34.0684C30.4297 30.25 33.5606 27.1562 37.4225 27.1562Z" fill="#C9C9FF"/>
<path d="M37.4225 -0.000134468C41.2845 -0.000134468 44.4136 3.09548 44.4136 6.91204C44.4136 10.7304 41.2845 13.8242 37.4225 13.8242C33.5606 13.8242 30.4297 10.7304 30.4297 6.91204C30.4297 3.09548 33.5606 -0.000134468 37.4225 -0.000134468Z" fill="#C9C9FF"/>
<path d="M67.8543 271.564C71.7163 271.564 74.8454 274.659 74.8454 278.478C74.8454 282.294 71.7163 285.391 67.8543 285.391C63.9942 285.391 60.8633 282.294 60.8633 278.478C60.8633 274.659 63.9942 271.564 67.8543 271.564Z" fill="#C9C9FF"/>
<path d="M67.8543 244.408C71.7163 244.408 74.8454 247.502 74.8454 251.32C74.8454 255.139 71.7163 258.232 67.8543 258.232C63.9942 258.232 60.8633 255.139 60.8633 251.32C60.8633 247.502 63.9942 244.408 67.8543 244.408Z" fill="#C9C9FF"/>
<path d="M67.8543 217.251C71.7163 217.251 74.8454 220.347 74.8454 224.164C74.8454 227.982 71.7163 231.078 67.8543 231.078C63.9942 231.078 60.8633 227.982 60.8633 224.164C60.8633 220.347 63.9942 217.251 67.8543 217.251Z" fill="#C9C9FF"/>
<path d="M67.8543 190.096C71.7163 190.096 74.8454 193.191 74.8454 197.008C74.8454 200.826 71.7163 203.92 67.8543 203.92C63.9942 203.92 60.8633 200.826 60.8633 197.008C60.8633 193.191 63.9942 190.096 67.8543 190.096Z" fill="#C9C9FF"/>
<path d="M67.8543 162.939C71.7163 162.939 74.8454 166.034 74.8454 169.853C74.8454 173.669 71.7163 176.766 67.8543 176.766C63.9942 176.766 60.8633 173.669 60.8633 169.853C60.8633 166.034 63.9942 162.939 67.8543 162.939Z" fill="#C9C9FF"/>
<path d="M67.8543 135.783C71.7163 135.783 74.8454 138.879 74.8454 142.695C74.8454 146.514 71.7163 149.607 67.8543 149.607C63.9942 149.607 60.8633 146.514 60.8633 142.695C60.8633 138.879 63.9942 135.783 67.8543 135.783Z" fill="#C9C9FF"/>
<path d="M67.8543 108.627C71.7163 108.627 74.8454 111.72 74.8454 115.539C74.8454 119.355 71.7163 122.449 67.8543 122.449C63.9942 122.449 60.8633 119.355 60.8633 115.539C60.8633 111.72 63.9942 108.627 67.8543 108.627Z" fill="#C9C9FF"/>
<path d="M67.8543 81.4682C71.7163 81.4682 74.8454 84.5645 74.8454 88.3829C74.8454 92.2012 71.7163 95.2949 67.8543 95.2949C63.9942 95.2949 60.8633 92.2012 60.8633 88.3829C60.8633 84.5645 63.9942 81.4682 67.8543 81.4682Z" fill="#C9C9FF"/>
<path d="M67.8543 54.312C71.7163 54.312 74.8454 57.4057 74.8454 61.2265C74.8454 65.0425 71.7163 68.1387 67.8543 68.1387C63.9942 68.1387 60.8633 65.0425 60.8633 61.2265C60.8633 57.4057 63.9942 54.312 67.8543 54.312Z" fill="#C9C9FF"/>
<path d="M67.8543 27.1562C71.7163 27.1562 74.8454 30.25 74.8454 34.0684C74.8454 37.8868 71.7163 40.9805 67.8543 40.9805C63.9942 40.9805 60.8633 37.8868 60.8633 34.0684C60.8633 30.25 63.9942 27.1562 67.8543 27.1562Z" fill="#C9C9FF"/>
<path d="M67.8543 -0.000134468C71.7163 -0.000134468 74.8454 3.09548 74.8454 6.91204C74.8454 10.7304 71.7163 13.8242 67.8543 13.8242C63.9942 13.8242 60.8633 10.7304 60.8633 6.91204C60.8633 3.09548 63.9942 -0.000134468 67.8543 -0.000134468Z" fill="#C9C9FF"/>
</svg>
