<svg width="242" height="76" viewBox="0 0 242 76" fill="none" xmlns="http://www.w3.org/2000/svg">
<path d="M13.8268 7.43779C13.8268 11.2997 10.7311 14.4294 6.91218 14.4294C3.09622 14.4294 0 11.2997 0 7.43779C0 3.57585 3.09622 0.444824 6.91218 0.444824C10.7311 0.444824 13.8268 3.57585 13.8268 7.43779Z" fill="#DDF444"/>
<path d="M40.9825 7.43779C40.9825 11.2997 37.8887 14.4294 34.0703 14.4294C30.252 14.4294 27.1582 11.2997 27.1582 7.43779C27.1582 3.57585 30.252 0.444824 34.0703 0.444824C37.8887 0.444824 40.9825 3.57585 40.9825 7.43779Z" fill="#DDF444"/>
<path d="M68.1392 7.43779C68.1392 11.2997 65.0437 14.4294 61.2271 14.4294C57.4087 14.4294 54.3125 11.2997 54.3125 7.43779C54.3125 3.57585 57.4087 0.444824 61.2271 0.444824C65.0437 0.444824 68.1392 3.57585 68.1392 7.43779Z" fill="#DDF444"/>
<path d="M95.2949 7.43779C95.2949 11.2997 92.1994 14.4294 88.3828 14.4294C84.5645 14.4294 81.4707 11.2997 81.4707 7.43779C81.4707 3.57585 84.5645 0.444824 88.3828 0.444824C92.1994 0.444824 95.2949 3.57585 95.2949 7.43779Z" fill="#DDF444"/>
<path d="M122.452 7.43779C122.452 11.2997 119.356 14.4294 115.537 14.4294C111.721 14.4294 108.625 11.2997 108.625 7.43779C108.625 3.57585 111.721 0.444824 115.537 0.444824C119.356 0.444824 122.452 3.57585 122.452 7.43779Z" fill="#DDF444"/>
<path d="M149.607 7.43779C149.607 11.2997 146.512 14.4294 142.695 14.4294C138.877 14.4294 135.783 11.2997 135.783 7.43779C135.783 3.57585 138.877 0.444824 142.695 0.444824C146.512 0.444824 149.607 3.57585 149.607 7.43779Z" fill="#DDF444"/>
<path d="M176.763 7.43779C176.763 11.2997 173.67 14.4294 169.851 14.4294C166.035 14.4294 162.941 11.2997 162.941 7.43779C162.941 3.57585 166.035 0.444824 169.851 0.444824C173.67 0.444824 176.763 3.57585 176.763 7.43779Z" fill="#DDF444"/>
<path d="M203.922 7.43779C203.922 11.2997 200.826 14.4294 197.008 14.4294C193.189 14.4294 190.096 11.2997 190.096 7.43779C190.096 3.57585 193.189 0.444824 197.008 0.444824C200.826 0.444824 203.922 3.57585 203.922 7.43779Z" fill="#DDF444"/>
<path d="M231.079 7.43779C231.079 11.2997 227.985 14.4294 224.164 14.4294C220.348 14.4294 217.252 11.2997 217.252 7.43779C217.252 3.57585 220.348 0.444824 224.164 0.444824C227.985 0.444824 231.079 3.57585 231.079 7.43779Z" fill="#DDF444"/>
<path d="M13.8268 37.8674C13.8268 41.7293 10.7311 44.8584 6.91218 44.8584C3.09622 44.8584 0 41.7293 0 37.8674C0 34.0054 3.09622 30.8745 6.91218 30.8745C10.7311 30.8745 13.8268 34.0054 13.8268 37.8674Z" fill="#DDF444"/>
<path d="M40.9825 37.8674C40.9825 41.7293 37.8887 44.8584 34.0703 44.8584C30.252 44.8584 27.1582 41.7293 27.1582 37.8674C27.1582 34.0054 30.252 30.8745 34.0703 30.8745C37.8887 30.8745 40.9825 34.0054 40.9825 37.8674Z" fill="#DDF444"/>
<path d="M68.1392 37.8674C68.1392 41.7293 65.0437 44.8584 61.2271 44.8584C57.4087 44.8584 54.3125 41.7293 54.3125 37.8674C54.3125 34.0054 57.4087 30.8745 61.2271 30.8745C65.0437 30.8745 68.1392 34.0054 68.1392 37.8674Z" fill="#DDF444"/>
<path d="M95.2949 37.8674C95.2949 41.7293 92.1994 44.8584 88.3828 44.8584C84.5645 44.8584 81.4707 41.7293 81.4707 37.8674C81.4707 34.0054 84.5645 30.8745 88.3828 30.8745C92.1994 30.8745 95.2949 34.0054 95.2949 37.8674Z" fill="#DDF444"/>
<path d="M122.452 37.8674C122.452 41.7293 119.356 44.8584 115.537 44.8584C111.721 44.8584 108.625 41.7293 108.625 37.8674C108.625 34.0054 111.721 30.8745 115.537 30.8745C119.356 30.8745 122.452 34.0054 122.452 37.8674Z" fill="#DDF444"/>
<path d="M149.607 37.8674C149.607 41.7293 146.512 44.8584 142.695 44.8584C138.877 44.8584 135.783 41.7293 135.783 37.8674C135.783 34.0054 138.877 30.8745 142.695 30.8745C146.512 30.8745 149.607 34.0054 149.607 37.8674Z" fill="#DDF444"/>
<path d="M176.763 37.8674C176.763 41.7293 173.67 44.8584 169.851 44.8584C166.035 44.8584 162.941 41.7293 162.941 37.8674C162.941 34.0054 166.035 30.8745 169.851 30.8745C173.67 30.8745 176.763 34.0054 176.763 37.8674Z" fill="#DDF444"/>
<path d="M203.922 37.8674C203.922 41.7293 200.826 44.8584 197.008 44.8584C193.189 44.8584 190.096 41.7293 190.096 37.8674C190.096 34.0054 193.189 30.8745 197.008 30.8745C200.826 30.8745 203.922 34.0054 203.922 37.8674Z" fill="#DDF444"/>
<path d="M231.079 37.8674C231.079 41.7293 227.985 44.8584 224.164 44.8584C220.348 44.8584 217.252 41.7293 217.252 37.8674C217.252 34.0054 220.348 30.8745 224.164 30.8745C227.985 30.8745 231.079 34.0054 231.079 37.8674Z" fill="#DDF444"/>
<path d="M13.8268 68.2982C13.8268 72.1601 10.7311 75.2892 6.91218 75.2892C3.09622 75.2892 0 72.1601 0 68.2982C0 64.4381 3.09622 61.3071 6.91218 61.3071C10.7311 61.3071 13.8268 64.4381 13.8268 68.2982Z" fill="#DDF444"/>
<path d="M40.9825 68.2982C40.9825 72.1601 37.8887 75.2892 34.0703 75.2892C30.252 75.2892 27.1582 72.1601 27.1582 68.2982C27.1582 64.4381 30.252 61.3071 34.0703 61.3071C37.8887 61.3071 40.9825 64.4381 40.9825 68.2982Z" fill="#DDF444"/>
<path d="M68.1392 68.2982C68.1392 72.1601 65.0437 75.2892 61.2271 75.2892C57.4087 75.2892 54.3125 72.1601 54.3125 68.2982C54.3125 64.4381 57.4087 61.3071 61.2271 61.3071C65.0437 61.3071 68.1392 64.4381 68.1392 68.2982Z" fill="#DDF444"/>
<path d="M95.2949 68.2982C95.2949 72.1601 92.1994 75.2892 88.3828 75.2892C84.5645 75.2892 81.4707 72.1601 81.4707 68.2982C81.4707 64.4381 84.5645 61.3071 88.3828 61.3071C92.1994 61.3071 95.2949 64.4381 95.2949 68.2982Z" fill="#DDF444"/>
<path d="M122.452 68.2982C122.452 72.1601 119.356 75.2892 115.537 75.2892C111.721 75.2892 108.625 72.1601 108.625 68.2982C108.625 64.4381 111.721 61.3071 115.537 61.3071C119.356 61.3071 122.452 64.4381 122.452 68.2982Z" fill="#DDF444"/>
<path d="M149.607 68.2982C149.607 72.1601 146.512 75.2892 142.695 75.2892C138.877 75.2892 135.783 72.1601 135.783 68.2982C135.783 64.4381 138.877 61.3071 142.695 61.3071C146.512 61.3071 149.607 64.4381 149.607 68.2982Z" fill="#DDF444"/>
<path d="M176.763 68.2987C176.763 72.1606 173.67 75.2897 169.851 75.2897C166.035 75.2897 162.941 72.1606 162.941 68.2987C162.941 64.4386 166.035 61.3076 169.851 61.3076C173.67 61.3076 176.763 64.4386 176.763 68.2987Z" fill="#DDF444"/>
<path d="M203.922 68.2982C203.922 72.1601 200.826 75.2892 197.008 75.2892C193.189 75.2892 190.096 72.1601 190.096 68.2982C190.096 64.4381 193.189 61.3071 197.008 61.3071C200.826 61.3071 203.922 64.4381 203.922 68.2982Z" fill="#DDF444"/>
<path d="M231.079 68.2982C231.079 72.1601 227.985 75.2892 224.164 75.2892C220.348 75.2892 217.252 72.1601 217.252 68.2982C217.252 64.4381 220.348 61.3071 224.164 61.3071C227.985 61.3071 231.079 64.4381 231.079 68.2982Z" fill="#DDF444"/>
</svg>
