<svg width="72" height="11" viewBox="0 0 72 11" fill="none" xmlns="http://www.w3.org/2000/svg">
<path d="M5.60284 1.44402L6.65011 3.64874C6.67393 3.7047 6.71139 3.75317 6.75878 3.78933C6.80616 3.82547 6.8618 3.84805 6.92016 3.85479L9.23203 4.21194C9.29901 4.22091 9.36211 4.24956 9.41401 4.29454C9.46592 4.33951 9.50452 4.39896 9.5252 4.46593C9.54595 4.53291 9.54792 4.60466 9.53099 4.67279C9.51413 4.74092 9.47896 4.80262 9.42963 4.85069L7.76322 6.57463C7.72074 6.61606 7.68879 6.66792 7.67041 6.72551C7.65197 6.78308 7.64769 6.84455 7.65783 6.9043L8.05962 9.32878C8.07127 9.39849 8.0639 9.47013 8.03841 9.53565C8.01292 9.60117 7.9703 9.6579 7.91537 9.69946C7.8605 9.74094 7.79549 9.76553 7.72785 9.77048C7.6602 9.77535 7.59256 9.76038 7.53269 9.72714L5.45135 8.58013C5.39805 8.55287 5.33947 8.53872 5.2801 8.53872C5.22072 8.53872 5.16214 8.55287 5.10884 8.58013L3.02748 9.72714C2.9676 9.76038 2.89999 9.77535 2.83234 9.77048C2.76469 9.76553 2.69971 9.74094 2.64482 9.69946C2.58991 9.6579 2.54728 9.60117 2.52178 9.53565C2.49628 9.47013 2.48892 9.39849 2.50056 9.32878L2.90234 6.87683C2.91252 6.81708 2.90821 6.75561 2.88981 6.69804C2.87141 6.64045 2.83948 6.58859 2.79695 6.54715L1.11079 4.85069C1.0609 4.80131 1.02582 4.73789 1.00979 4.66814C0.993763 4.59839 0.997475 4.52528 1.02048 4.45769C1.04348 4.39009 1.08479 4.3309 1.13939 4.28728C1.194 4.24366 1.25957 4.21749 1.32814 4.21194L3.64004 3.85479C3.69839 3.84805 3.75404 3.82547 3.80142 3.78933C3.8488 3.75317 3.88627 3.7047 3.91009 3.64874L4.95735 1.44402C4.98587 1.37981 5.03141 1.32545 5.0886 1.28735C5.14579 1.24925 5.21223 1.229 5.2801 1.229C5.34796 1.229 5.41441 1.24925 5.47159 1.28735C5.52878 1.32545 5.57432 1.37981 5.60284 1.44402Z" fill="#FFC700" stroke="#FFC700" stroke-linecap="round" stroke-linejoin="round"/>
<path d="M16.1453 1.44402L17.1926 3.64874C17.2164 3.7047 17.2539 3.75317 17.3013 3.78933C17.3486 3.82547 17.4043 3.84805 17.4626 3.85479L19.7745 4.21194C19.8415 4.22091 19.9046 4.24956 19.9565 4.29454C20.0084 4.33951 20.047 4.39896 20.0677 4.46593C20.0884 4.53291 20.0904 4.60466 20.0735 4.67279C20.0566 4.74092 20.0214 4.80262 19.9721 4.85069L18.3057 6.57463C18.2632 6.61606 18.2313 6.66792 18.2129 6.72551C18.1945 6.78308 18.1902 6.84455 18.2003 6.9043L18.6021 9.32878C18.6138 9.39849 18.6064 9.47013 18.5809 9.53565C18.5554 9.60117 18.5128 9.6579 18.4578 9.69946C18.403 9.74094 18.338 9.76553 18.2703 9.77048C18.2027 9.77535 18.135 9.76038 18.0752 9.72714L15.9938 8.58013C15.9405 8.55287 15.8819 8.53872 15.8226 8.53872C15.7632 8.53872 15.7046 8.55287 15.6513 8.58013L13.57 9.72714C13.5101 9.76038 13.4425 9.77535 13.3748 9.77048C13.3072 9.76553 13.2422 9.74094 13.1873 9.69946C13.1324 9.6579 13.0898 9.60117 13.0643 9.53565C13.0388 9.47013 13.0314 9.39849 13.043 9.32878L13.4448 6.87683C13.455 6.81708 13.4507 6.75561 13.4323 6.69804C13.4139 6.64045 13.382 6.58859 13.3394 6.54715L11.6533 4.85069C11.6034 4.80131 11.5683 4.73789 11.5523 4.66814C11.5362 4.59839 11.54 4.52528 11.563 4.45769C11.586 4.39009 11.6273 4.3309 11.6819 4.28728C11.7365 4.24366 11.802 4.21749 11.8706 4.21194L14.1825 3.85479C14.2409 3.84805 14.2965 3.82547 14.3439 3.78933C14.3913 3.75317 14.4287 3.7047 14.4526 3.64874L15.4998 1.44402C15.5284 1.37981 15.5739 1.32545 15.6311 1.28735C15.6883 1.24925 15.7547 1.229 15.8226 1.229C15.8904 1.229 15.9569 1.24925 16.0141 1.28735C16.0713 1.32545 16.1168 1.37981 16.1453 1.44402Z" fill="#FFC700" stroke="#FFC700" stroke-linecap="round" stroke-linejoin="round"/>
<path d="M26.6878 1.44402L27.7351 3.64874C27.7589 3.7047 27.7964 3.75317 27.8437 3.78933C27.8911 3.82547 27.9468 3.84805 28.0051 3.85479L30.317 4.21194C30.384 4.22091 30.4471 4.24956 30.499 4.29454C30.5509 4.33951 30.5895 4.39896 30.6102 4.46593C30.6309 4.53291 30.6329 4.60466 30.616 4.67279C30.5991 4.74092 30.5639 4.80262 30.5146 4.85069L28.8482 6.57463C28.8057 6.61606 28.7738 6.66792 28.7554 6.72551C28.7369 6.78308 28.7327 6.84455 28.7428 6.9043L29.1446 9.32878C29.1562 9.39849 29.1489 9.47013 29.1234 9.53565C29.0979 9.60117 29.0553 9.6579 29.0003 9.69946C28.9455 9.74094 28.8805 9.76553 28.8128 9.77048C28.7452 9.77535 28.6775 9.76038 28.6176 9.72714L26.5363 8.58013C26.483 8.55287 26.4244 8.53872 26.3651 8.53872C26.3057 8.53872 26.2471 8.55287 26.1938 8.58013L24.1124 9.72714C24.0526 9.76038 23.985 9.77535 23.9173 9.77048C23.8497 9.76553 23.7847 9.74094 23.7298 9.69946C23.6749 9.6579 23.6322 9.60117 23.6067 9.53565C23.5812 9.47013 23.5739 9.39849 23.5855 9.32878L23.9873 6.87683C23.9975 6.81708 23.9932 6.75561 23.9748 6.69804C23.9564 6.64045 23.9244 6.58859 23.8819 6.54715L22.1957 4.85069C22.1459 4.80131 22.1108 4.73789 22.0948 4.66814C22.0787 4.59839 22.0824 4.52528 22.1054 4.45769C22.1284 4.39009 22.1697 4.3309 22.2244 4.28728C22.279 4.24366 22.3445 4.21749 22.4131 4.21194L24.725 3.85479C24.7834 3.84805 24.839 3.82547 24.8864 3.78933C24.9338 3.75317 24.9712 3.7047 24.995 3.64874L26.0423 1.44402C26.0708 1.37981 26.1164 1.32545 26.1736 1.28735C26.2307 1.24925 26.2972 1.229 26.3651 1.229C26.4329 1.229 26.4994 1.24925 26.5566 1.28735C26.6137 1.32545 26.6593 1.37981 26.6878 1.44402Z" fill="#FFC700" stroke="#FFC700" stroke-linecap="round" stroke-linejoin="round"/>
<path d="M37.2298 1.44402L38.2771 3.64874C38.3009 3.7047 38.3383 3.75317 38.3857 3.78933C38.4331 3.82547 38.4888 3.84805 38.5471 3.85479L40.859 4.21194C40.926 4.22091 40.9891 4.24956 41.041 4.29454C41.0929 4.33951 41.1315 4.39896 41.1522 4.46593C41.1729 4.53291 41.1749 4.60466 41.1579 4.67279C41.1411 4.74092 41.1059 4.80262 41.0566 4.85069L39.3902 6.57463C39.3477 6.61606 39.3157 6.66792 39.2974 6.72551C39.2789 6.78308 39.2746 6.84455 39.2848 6.9043L39.6866 9.32878C39.6982 9.39849 39.6908 9.47013 39.6654 9.53565C39.6399 9.60117 39.5973 9.6579 39.5423 9.69946C39.4875 9.74094 39.4224 9.76553 39.3548 9.77048C39.2872 9.77535 39.2195 9.76038 39.1596 9.72714L37.0783 8.58013C37.025 8.55287 36.9664 8.53872 36.907 8.53872C36.8477 8.53872 36.7891 8.55287 36.7358 8.58013L34.6544 9.72714C34.5946 9.76038 34.5269 9.77535 34.4593 9.77048C34.3916 9.76553 34.3267 9.74094 34.2718 9.69946C34.2169 9.6579 34.1742 9.60117 34.1487 9.53565C34.1232 9.47013 34.1159 9.39849 34.1275 9.32878L34.5293 6.87683C34.5395 6.81708 34.5352 6.75561 34.5168 6.69804C34.4984 6.64045 34.4664 6.58859 34.4239 6.54715L32.7377 4.85069C32.6879 4.80131 32.6528 4.73789 32.6367 4.66814C32.6207 4.59839 32.6244 4.52528 32.6474 4.45769C32.6704 4.39009 32.7117 4.3309 32.7663 4.28728C32.821 4.24366 32.8865 4.21749 32.9551 4.21194L35.267 3.85479C35.3253 3.84805 35.381 3.82547 35.4284 3.78933C35.4758 3.75317 35.5132 3.7047 35.537 3.64874L36.5843 1.44402C36.6128 1.37981 36.6584 1.32545 36.7156 1.28735C36.7727 1.24925 36.8392 1.229 36.907 1.229C36.9749 1.229 37.0414 1.24925 37.0985 1.28735C37.1557 1.32545 37.2013 1.37981 37.2298 1.44402Z" fill="#FFC700" stroke="#FFC700" stroke-linecap="round" stroke-linejoin="round"/>
<path d="M47.7723 1.44402L48.8195 3.64874C48.8434 3.7047 48.8808 3.75317 48.9282 3.78933C48.9756 3.82547 49.0312 3.84805 49.0896 3.85479L51.4015 4.21194C51.4684 4.22091 51.5315 4.24956 51.5834 4.29454C51.6354 4.33951 51.6739 4.39896 51.6946 4.46593C51.7154 4.53291 51.7174 4.60466 51.7004 4.67279C51.6836 4.74092 51.6484 4.80262 51.5991 4.85069L49.9327 6.57463C49.8902 6.61606 49.8582 6.66792 49.8398 6.72551C49.8214 6.78308 49.8171 6.84455 49.8273 6.9043L50.229 9.32878C50.2407 9.39849 50.2333 9.47013 50.2078 9.53565C50.1824 9.60117 50.1397 9.6579 50.0848 9.69946C50.0299 9.74094 49.9649 9.76553 49.8973 9.77048C49.8296 9.77535 49.762 9.76038 49.7021 9.72714L47.6208 8.58013C47.5675 8.55287 47.5089 8.53872 47.4495 8.53872C47.3902 8.53872 47.3316 8.55287 47.2783 8.58013L45.1969 9.72714C45.137 9.76038 45.0694 9.77535 45.0018 9.77048C44.9341 9.76553 44.8691 9.74094 44.8142 9.69946C44.7593 9.6579 44.7167 9.60117 44.6912 9.53565C44.6657 9.47013 44.6584 9.39849 44.67 9.32878L45.0718 6.87683C45.082 6.81708 45.0776 6.75561 45.0592 6.69804C45.0408 6.64045 45.0089 6.58859 44.9664 6.54715L43.2802 4.85069C43.2303 4.80131 43.1953 4.73789 43.1792 4.66814C43.1632 4.59839 43.1669 4.52528 43.1899 4.45769C43.2129 4.39009 43.2542 4.3309 43.3088 4.28728C43.3634 4.24366 43.429 4.21749 43.4976 4.21194L45.8095 3.85479C45.8678 3.84805 45.9235 3.82547 45.9709 3.78933C46.0182 3.75317 46.0557 3.7047 46.0795 3.64874L47.1268 1.44402C47.1553 1.37981 47.2008 1.32545 47.258 1.28735C47.3152 1.24925 47.3817 1.229 47.4495 1.229C47.5174 1.229 47.5838 1.24925 47.641 1.28735C47.6982 1.32545 47.7438 1.37981 47.7723 1.44402Z" fill="#FFC700" stroke="#FFC700" stroke-linecap="round" stroke-linejoin="round"/>
<path d="M58.127 7.125L59.0498 7.04688C59.1182 7.49609 59.276 7.83464 59.5234 8.0625C59.7741 8.28711 60.0752 8.39941 60.4268 8.39941C60.8499 8.39941 61.208 8.23991 61.501 7.9209C61.7939 7.60189 61.9404 7.17871 61.9404 6.65137C61.9404 6.15007 61.7988 5.75456 61.5156 5.46484C61.2357 5.17513 60.8678 5.03027 60.4121 5.03027C60.1289 5.03027 59.8734 5.09538 59.6455 5.22559C59.4176 5.35254 59.2386 5.51855 59.1084 5.72363L58.2832 5.61621L58.9766 1.93945H62.5361V2.7793H59.6797L59.2939 4.70312C59.7236 4.40365 60.1745 4.25391 60.6465 4.25391C61.2715 4.25391 61.7988 4.47038 62.2285 4.90332C62.6582 5.33626 62.873 5.8929 62.873 6.57324C62.873 7.22103 62.6842 7.78092 62.3066 8.25293C61.8477 8.83236 61.221 9.12207 60.4268 9.12207C59.7757 9.12207 59.2435 8.93978 58.8301 8.5752C58.4199 8.21061 58.1855 7.72721 58.127 7.125ZM64.1865 9V7.99902H65.1875V9H64.1865ZM66.4766 5.46973C66.4766 4.62337 66.5628 3.94303 66.7354 3.42871C66.9111 2.91113 67.1699 2.51237 67.5117 2.23242C67.8568 1.95247 68.2897 1.8125 68.8105 1.8125C69.1947 1.8125 69.5316 1.89062 69.8213 2.04688C70.111 2.19987 70.3503 2.42285 70.5391 2.71582C70.7279 3.00553 70.876 3.36035 70.9834 3.78027C71.0908 4.19694 71.1445 4.76009 71.1445 5.46973C71.1445 6.30957 71.0583 6.98828 70.8857 7.50586C70.7132 8.02018 70.4544 8.41895 70.1094 8.70215C69.7676 8.9821 69.3346 9.12207 68.8105 9.12207C68.1204 9.12207 67.5785 8.87467 67.1846 8.37988C66.7126 7.78418 66.4766 6.81413 66.4766 5.46973ZM67.3799 5.46973C67.3799 6.64486 67.5166 7.42773 67.79 7.81836C68.0667 8.20573 68.4069 8.39941 68.8105 8.39941C69.2142 8.39941 69.5527 8.2041 69.8262 7.81348C70.1029 7.42285 70.2412 6.6416 70.2412 5.46973C70.2412 4.29134 70.1029 3.50846 69.8262 3.12109C69.5527 2.73372 69.2109 2.54004 68.8008 2.54004C68.3971 2.54004 68.0749 2.71094 67.834 3.05273C67.5312 3.48893 67.3799 4.2946 67.3799 5.46973Z" fill="white"/>
</svg>
