<svg width="114" height="146" viewBox="0 0 114 146" fill="none" xmlns="http://www.w3.org/2000/svg">
<path d="M109.417 98.736L111.064 101.452L113 97.3948" stroke="#120071" stroke-linecap="round" stroke-linejoin="round"/>
<path d="M87.647 55.7458H92.9725" stroke="#120071" stroke-linecap="round" stroke-linejoin="round"/>
<path d="M90.3096 58.408V53.083" stroke="#120071" stroke-linecap="round" stroke-linejoin="round"/>
<path d="M97.7812 63.0535H100.686" stroke="#120071" stroke-linecap="round" stroke-linejoin="round"/>
<path d="M99.2354 64.506V61.6008" stroke="#120071" stroke-linecap="round" stroke-linejoin="round"/>
<path d="M51.3711 78.8085V39.6633H107.983V102.986" stroke="#120071" stroke-linecap="round" stroke-linejoin="round"/>
<path d="M94.164 39.6637V39.1127C94.164 38.3439 93.8586 37.6066 93.315 37.0629C92.7713 36.5193 92.034 36.2139 91.2652 36.2139H68.0834C67.7027 36.2138 67.3257 36.2887 66.974 36.4344C66.6223 36.58 66.3027 36.7936 66.0335 37.0628C65.7643 37.332 65.5507 37.6516 65.4051 38.0033C65.2594 38.355 65.1845 38.732 65.1846 39.1127V39.6637" stroke="#120071" stroke-linecap="round" stroke-linejoin="round"/>
<path d="M75.4824 50.9316H82.6277" stroke="#120071" stroke-linecap="round" stroke-linejoin="round"/>
<path d="M75.4824 48.5242H90.1069" stroke="#120071" stroke-linecap="round" stroke-linejoin="round"/>
<path d="M75.4824 53.3508H82.6277" stroke="#120071" stroke-linecap="round" stroke-linejoin="round"/>
<path d="M75.4824 55.5005H82.6277" stroke="#120071" stroke-linecap="round" stroke-linejoin="round"/>
<path d="M61.5464 62.9905H68.691" stroke="#120071" stroke-linecap="round" stroke-linejoin="round"/>
<path d="M61.5464 65.4099H68.691" stroke="#120071" stroke-linecap="round" stroke-linejoin="round"/>
<path d="M75.4824 62.9905H82.6277" stroke="#120071" stroke-linecap="round" stroke-linejoin="round"/>
<path d="M75.4824 65.4099H82.6277" stroke="#120071" stroke-linecap="round" stroke-linejoin="round"/>
<path d="M75.4824 67.5598H82.6277" stroke="#120071" stroke-linecap="round" stroke-linejoin="round"/>
<path d="M64.9219 46.7141C63.1183 46.7143 61.3887 47.4309 60.1134 48.7063C58.8382 49.9817 58.1219 51.7115 58.1221 53.515C58.1222 55.3186 58.8388 57.0483 60.1143 58.3235C61.3897 59.5987 63.1194 60.315 64.923 60.3148C65.816 60.3148 66.7003 60.1388 67.5253 59.797C68.3504 59.4551 69.1 58.9542 69.7314 58.3227C70.3628 57.6911 70.8637 56.9414 71.2054 56.1163C71.547 55.2912 71.7229 54.4069 71.7228 53.5139C71.7227 52.6209 71.5467 51.7366 71.2049 50.9116C70.8631 50.0865 70.3621 49.3369 69.7306 48.7055C69.0991 48.0741 68.3494 47.5732 67.5243 47.2315C66.6992 46.8899 65.8149 46.714 64.9219 46.7141Z" stroke="#120071" stroke-linecap="round" stroke-linejoin="round"/>
<path d="M69.776 58.2754C68.8232 57.3027 67.6001 56.6387 66.2653 56.3697C64.9305 56.1007 63.5456 56.2391 62.2904 56.7669C61.4571 57.117 60.702 57.6299 60.0693 58.2754C60.7023 58.9206 61.4575 59.4332 62.2908 59.783C63.1241 60.1329 64.0189 60.3131 64.9227 60.3131C65.8265 60.3131 66.7212 60.1329 67.5545 59.783C68.3879 59.4332 69.1431 58.9206 69.776 58.2754Z" stroke="#120071" stroke-linecap="round" stroke-linejoin="round"/>
<path d="M64.6877 54.784C64.941 54.784 65.184 54.6834 65.3631 54.5042C65.5423 54.3251 65.6429 54.0821 65.6429 53.8288C65.6429 53.5754 65.5423 53.3325 65.3631 53.1533C65.184 52.9742 64.941 52.8735 64.6877 52.8735C64.4343 52.8735 64.1914 52.9742 64.0122 53.1533C63.8331 53.3325 63.7324 53.5754 63.7324 53.8288C63.7324 54.0821 63.8331 54.3251 64.0122 54.5042C64.1914 54.6834 64.4343 54.784 64.6877 54.784Z" stroke="#120071" stroke-linecap="round" stroke-linejoin="round"/>
<path d="M57.4556 89.4922V90.3487C58.5901 90.6674 59.6414 91.2299 60.536 91.9971C61.7505 93.179 61.8807 95.2922 62.0617 97.1233C62.8245 104.818 63.2367 107.633 63.2955 115.381H57.4556V120.428H64.7641V89.4922H57.4556Z" fill="#4949E9"/>
<path d="M57.4556 115.383V120.43H64.7612V89.4922H57.4556V90.3509" stroke="#120071" stroke-linecap="round" stroke-linejoin="round"/>
<path d="M34.7896 101.74C34.2266 101.797 33.6596 101.818 33.0938 101.801L34.9169 116.429C34.9264 116.526 34.9739 116.615 35.049 116.677C35.1241 116.738 35.2207 116.768 35.3174 116.758C35.4142 116.749 35.5032 116.701 35.565 116.626C35.6267 116.551 35.6561 116.454 35.6466 116.358L34.7896 101.74Z" stroke="#120071" stroke-linecap="round" stroke-linejoin="round"/>
<path d="M46.7665 115.051L40.2042 99.863C39.6872 100.19 39.1472 100.478 38.5884 100.727L46.1105 115.383C46.157 115.466 46.2336 115.528 46.3246 115.556C46.4156 115.584 46.5139 115.576 46.5992 115.534C46.6844 115.491 46.7496 115.417 46.7812 115.327C46.8129 115.237 46.8084 115.138 46.7688 115.051H46.7665Z" stroke="#120071" stroke-linecap="round" stroke-linejoin="round"/>
<path d="M26.7382 99.8518L20.1954 115.057C20.1737 115.1 20.1607 115.147 20.1572 115.196C20.1537 115.244 20.1598 115.293 20.1751 115.339C20.1903 115.385 20.2145 115.427 20.2462 115.464C20.2779 115.5 20.3165 115.53 20.3598 115.552C20.4031 115.574 20.4503 115.587 20.4986 115.59C20.5469 115.594 20.5954 115.588 20.6414 115.572C20.6873 115.557 20.7299 115.533 20.7665 115.501C20.8031 115.469 20.8331 115.431 20.8548 115.388L28.3535 100.719C27.7948 100.47 27.2549 100.18 26.7382 99.8518Z" stroke="#120071" stroke-linecap="round" stroke-linejoin="round"/>
<path d="M27.4046 84.2848C27.5308 83.9325 27.665 83.5882 27.8043 83.257C23.3438 81.9289 22.7163 79.4646 22.7231 76.7547C22.7231 75.711 22.7231 74.4274 22.7614 73.0593C22.2206 73.2197 21.7462 73.5506 21.4088 74.0026C21.0714 74.4546 20.8891 75.0036 20.8892 75.5676V84.2848H27.4046Z" fill="#4949E9"/>
<path d="M39.1936 98.5045C30.5792 98.9168 26.5961 94.2462 26.4608 89.4922H20.8926C20.9477 91.9382 21.714 94.3153 23.0978 96.333C24.4816 98.3508 26.423 99.9219 28.685 100.854C30.947 101.787 33.4316 102.041 35.8353 101.584C38.2391 101.128 40.458 99.9818 42.2209 98.2853C41.1486 98.3892 40.0997 98.4611 39.1936 98.5045Z" fill="#4949E9"/>
<path d="M20.8906 89.4922C20.9456 91.9383 21.7119 94.3154 23.0957 96.3331C24.4796 98.3508 26.4212 99.9218 28.6833 100.854C30.9454 101.787 33.4299 102.04 35.8337 101.584C38.2375 101.128 40.4564 99.9816 42.2195 98.2853" stroke="#120071" stroke-linecap="round" stroke-linejoin="round"/>
<path d="M22.762 73.0598C22.2211 73.2201 21.7465 73.5509 21.409 74.003C21.0715 74.455 20.8892 75.004 20.8892 75.5681V84.2836" stroke="#120071" stroke-linecap="round" stroke-linejoin="round"/>
<path d="M63.5065 116.871C63.0183 116.514 62.6881 115.982 62.586 115.386H57.6516C57.6516 115.386 56.9904 119.475 56.9362 119.969C56.8032 120.528 68.3775 120.615 68.5002 120.054C68.796 118.699 65.6282 118.343 63.5065 116.871Z" fill="#FECFC4"/>
<path d="M63.5065 116.871C63.0183 116.514 62.6881 115.982 62.586 115.386H57.6516C57.6516 115.386 56.9904 119.475 56.9362 119.969C56.8032 120.528 68.3775 120.615 68.5002 120.054C68.796 118.699 65.6282 118.343 63.5065 116.871Z" stroke="#120071" stroke-linecap="round" stroke-linejoin="round"/>
<path d="M55.3617 104.298C55.7225 107.523 56.1068 110.614 56.7097 115.383H63.2983C63.2412 107.635 62.8272 104.82 62.0644 97.1256C61.8834 95.2944 61.7532 93.1812 60.5387 91.9993C59.3083 90.8002 56.8376 90.0089 53.876 89.4824" stroke="#120071" stroke-linecap="round" stroke-linejoin="round"/>
<path d="M56.1005 117.597C55.7487 117.339 55.476 116.987 55.313 116.582C55.15 116.177 55.1032 115.735 55.1778 115.304H50.3765C49.6724 119.678 49.5999 120.068 49.5314 120.693C49.3984 121.251 60.9721 121.34 61.0955 120.778C61.3907 119.426 58.2229 119.069 56.1005 117.597Z" fill="#FECFC4"/>
<path d="M56.1005 117.597C55.7487 117.339 55.476 116.987 55.313 116.582C55.15 116.177 55.1032 115.735 55.1778 115.304H50.3765C49.6724 119.678 49.5999 120.068 49.5314 120.693C49.3984 121.251 60.9721 121.34 61.0955 120.778C61.3907 119.426 58.2229 119.069 56.1005 117.597Z" stroke="#120071" stroke-linecap="round" stroke-linejoin="round"/>
<path d="M26.4595 89.4922C26.5931 94.2462 30.5762 98.9168 39.1923 98.5045C41.8525 98.3995 44.5001 98.0831 47.1101 97.5584C47.8683 105.301 48.236 106.974 49.2889 115.304H55.8769C55.8198 107.556 55.4047 104.741 54.6424 97.0474C54.4614 95.2163 54.3312 93.1031 53.1168 91.9211C51.9525 90.7872 49.6778 90.0175 46.9279 89.4922" stroke="#120071" stroke-linecap="round" stroke-linejoin="round"/>
<path d="M27.8 83.2572C27.6636 83.5884 27.5294 83.9321 27.4003 84.285L50.5541 84.2764L51.4677 78.8127C50.2708 78.3296 49.0422 77.929 47.7906 77.6137C46.583 74.2021 45.2754 68.3581 44.5206 64.5953C44.3986 63.9879 44.1176 63.4236 43.7063 62.9602C43.2951 62.4968 42.7682 62.1507 42.1796 61.9574C40.6202 61.447 39.046 61.101 37.3965 60.6602L32.023 60.7458C29.9137 61.1771 27.8317 61.7325 25.7879 62.4091C22.6681 63.5442 22.7337 72.319 22.7217 76.7543C22.7149 79.4642 23.3424 81.9286 27.8 83.2572Z" stroke="#120071" stroke-linecap="round" stroke-linejoin="round"/>
<path d="M28.8867 68.5637C30.184 71.4118 28.9147 73.5809 29.3258 76.683C31.0159 76.7533 35.8652 78.0037 37.6724 78.8117" stroke="#120071" stroke-linecap="round" stroke-linejoin="round"/>
<path d="M41.6572 68.5637C42.311 70.0363 42.979 71.5899 42.8414 73.1944C42.7038 74.7988 41.5065 76.8441 42.7655 79.9513" stroke="#120071" stroke-linecap="round" stroke-linejoin="round"/>
<path d="M37.6699 78.8097C36.4891 78.6184 35.5641 83.9622 36.782 84.2814C38.037 84.3756 38.8438 79.0021 37.6699 78.8097Z" fill="#4949E9"/>
<path d="M37.6699 78.8097C36.4891 78.6184 35.5641 83.9622 36.782 84.2814C38.037 84.3756 38.8438 79.0021 37.6699 78.8097Z" stroke="#120071" stroke-linecap="round" stroke-linejoin="round"/>
<path d="M48.1451 83.3169C48.4694 83.0696 48.6018 82.6625 48.0743 82.4033C48.146 82.3751 48.2062 82.3239 48.2456 82.2577C48.4169 81.9083 47.9738 81.5434 46.9603 81.1797C46.3425 80.957 45.7378 80.7326 45.124 80.5242C44.5696 80.1416 43.9638 79.742 43.4185 79.3463C43.3257 79.2717 43.2188 79.2169 43.1041 79.185C42.9895 79.1531 42.8695 79.1448 42.7516 79.1607C41.5482 79.3556 40.3807 79.7289 39.2875 80.2684C38.4287 80.1788 37.5761 80.0381 36.734 79.847C36.2641 81.013 35.9569 83.0805 36.4531 83.998C38.9432 84.4708 38.8244 84.1636 42.9332 84.2361C45.3838 84.279 47.7831 84.2607 48.0274 84.2361C48.1348 84.2259 48.2354 84.1795 48.3129 84.1045C48.3903 84.0295 48.44 83.9304 48.4537 83.8235C48.4674 83.7166 48.4443 83.6082 48.3882 83.5161C48.3321 83.424 48.2464 83.3538 48.1451 83.3169Z" fill="#FECFC4"/>
<path d="M48.1451 83.3169C48.4694 83.0696 48.6018 82.6625 48.0743 82.4033C48.146 82.3751 48.2062 82.3239 48.2456 82.2577C48.4169 81.9083 47.9738 81.5434 46.9603 81.1797C46.3425 80.957 45.7378 80.7326 45.124 80.5242C44.5696 80.1416 43.9638 79.742 43.4185 79.3463C43.3257 79.2717 43.2188 79.2169 43.1041 79.185C42.9895 79.1531 42.8695 79.1448 42.7516 79.1607C41.5482 79.3556 40.3807 79.7289 39.2875 80.2684C38.4287 80.1788 37.5761 80.0381 36.734 79.847C36.2641 81.013 35.9569 83.0805 36.4531 83.998C38.9432 84.4708 38.8244 84.1636 42.9332 84.2361C45.3838 84.279 47.7831 84.2607 48.0274 84.2361C48.1348 84.2259 48.2354 84.1795 48.3129 84.1045C48.3903 84.0295 48.44 83.9304 48.4537 83.8235C48.4674 83.7166 48.4443 83.6082 48.3882 83.5161C48.3321 83.424 48.2464 83.3538 48.1451 83.3169Z" stroke="#120071" stroke-linecap="round" stroke-linejoin="round"/>
<path d="M43.2051 80.1125C43.8519 80.2114 44.4923 80.3483 45.123 80.5225" stroke="#120071" stroke-linecap="round" stroke-linejoin="round"/>
<path d="M43.8369 81.2224C45.2961 81.4245 46.7216 81.8212 48.0753 82.4021" stroke="#120071" stroke-linecap="round" stroke-linejoin="round"/>
<path d="M43.9082 82.5032C45.3556 82.5437 46.7865 82.8184 48.146 83.3168" stroke="#120071" stroke-linecap="round" stroke-linejoin="round"/>
<path d="M51.4698 78.8094C50.7658 78.6953 50.2165 80.6674 50.1063 81.396C49.8779 82.8805 50.0681 84.1498 50.5568 84.2731H50.7184C51.1952 84.1589 51.7056 83.0712 51.946 81.6957C52.0773 80.946 52.167 78.9236 51.4698 78.8094Z" fill="#4949E9"/>
<path d="M51.4698 78.8094C50.7658 78.6953 50.2165 80.6674 50.1063 81.396C49.8779 82.8805 50.0681 84.1498 50.5568 84.2731H50.7184C51.1952 84.1589 51.7056 83.0712 51.946 81.6957C52.0773 80.946 52.167 78.9236 51.4698 78.8094Z" stroke="#120071" stroke-linecap="round" stroke-linejoin="round"/>
<path d="M60.525 80.5569C57.5959 80.1658 56.7674 80.8561 60.1602 79.8512C60.2935 79.815 60.4087 79.7306 60.4834 79.6143C60.5581 79.4981 60.5871 79.3583 60.5647 79.2219C60.5424 79.0856 60.4702 78.9624 60.3623 78.8761C60.2543 78.7898 60.1182 78.7467 59.9803 78.7549C59.1124 78.7332 58.2445 78.7892 57.3869 78.9222C56.4003 79.0581 56.1759 79.2397 55.2817 78.812C54.0655 78.2296 54.9631 76.9746 55.1772 75.9874C55.2663 75.5706 54.5834 75.3365 54.3208 75.6928C53.5831 76.5762 53.0272 77.5967 52.6849 78.6955C52.4285 79.5212 51.1901 79.5611 50.7322 79.4378C49.8186 81.2153 49.7769 84.0833 50.5569 84.2797C53.7743 84.2557 57.2699 84.2443 58.9874 83.9503C59.1081 83.9384 59.2196 83.8804 59.2986 83.7883C59.3776 83.6962 59.4179 83.5772 59.4112 83.456C59.4045 83.3349 59.3513 83.221 59.2626 83.1382C59.174 83.0554 59.0567 83.01 58.9354 83.0116C58.5506 82.9545 58.4615 83.0515 59.7165 82.7295C59.8142 82.7102 59.9043 82.6633 59.9761 82.5943C60.0478 82.5253 60.0983 82.4371 60.1214 82.3403C60.1445 82.2434 60.1393 82.142 60.1064 82.048C60.0735 81.9541 60.0142 81.8715 59.9358 81.8102C60.1567 81.776 60.3749 81.7406 60.589 81.7035C60.6658 81.7015 60.7415 81.684 60.8114 81.6523C60.8814 81.6205 60.9443 81.575 60.9964 81.5185C61.0485 81.4619 61.0887 81.3955 61.1146 81.3232C61.1406 81.2508 61.1517 81.174 61.1475 81.0973C61.1432 81.0205 61.1235 80.9454 61.0897 80.8764C61.0559 80.8074 61.0085 80.7459 60.9505 80.6955C60.8925 80.6451 60.8249 80.6069 60.7518 80.5831C60.6787 80.5593 60.6016 80.5504 60.525 80.5569Z" fill="#FECFC4"/>
<path d="M60.525 80.5569C57.5959 80.1658 56.7674 80.8561 60.1602 79.8512C60.2935 79.815 60.4087 79.7306 60.4834 79.6143C60.5581 79.4981 60.5871 79.3583 60.5647 79.2219C60.5424 79.0856 60.4702 78.9624 60.3623 78.8761C60.2543 78.7898 60.1182 78.7467 59.9803 78.7549C59.1124 78.7332 58.2445 78.7892 57.3869 78.9222C56.4003 79.0581 56.1759 79.2397 55.2817 78.812C54.0655 78.2296 54.9631 76.9746 55.1772 75.9874C55.2663 75.5706 54.5834 75.3365 54.3208 75.6928C53.5831 76.5762 53.0272 77.5967 52.6849 78.6955C52.4285 79.5212 51.1901 79.5611 50.7322 79.4378C49.8186 81.2153 49.7769 84.0833 50.5569 84.2797C53.7743 84.2557 57.2699 84.2443 58.9874 83.9503C59.1081 83.9384 59.2196 83.8804 59.2986 83.7883C59.3776 83.6962 59.4179 83.5772 59.4112 83.456C59.4045 83.3349 59.3513 83.221 59.2626 83.1382C59.174 83.0554 59.0567 83.01 58.9354 83.0116C58.5506 82.9545 58.4615 83.0515 59.7165 82.7295C59.8142 82.7102 59.9043 82.6633 59.9761 82.5943C60.0478 82.5253 60.0983 82.4371 60.1214 82.3403C60.1445 82.2434 60.1393 82.142 60.1064 82.048C60.0735 81.9541 60.0142 81.8715 59.9358 81.8102C60.1567 81.776 60.3749 81.7406 60.589 81.7035C60.6658 81.7015 60.7415 81.684 60.8114 81.6523C60.8814 81.6205 60.9443 81.575 60.9964 81.5185C61.0485 81.4619 61.0887 81.3955 61.1146 81.3232C61.1406 81.2508 61.1517 81.174 61.1475 81.0973C61.1432 81.0205 61.1235 80.9454 61.0897 80.8764C61.0559 80.8074 61.0085 80.7459 60.9505 80.6955C60.8925 80.6451 60.8249 80.6069 60.7518 80.5831C60.6787 80.5593 60.6016 80.5504 60.525 80.5569Z" stroke="#120071" stroke-linecap="round" stroke-linejoin="round"/>
<path d="M57.9522 80.429L56.1519 80.5991" stroke="#120071" stroke-linecap="round" stroke-linejoin="round"/>
<path d="M59.935 81.8064L56.4194 81.9263" stroke="#120071" stroke-linecap="round" stroke-linejoin="round"/>
<path d="M58.6796 82.9744L56.2358 83.0537" stroke="#120071" stroke-linecap="round" stroke-linejoin="round"/>
<path d="M54.7646 79.519C54.677 80.0678 54.4487 80.5845 54.102 81.0188C53.7552 81.4531 53.3019 81.7902 52.7861 81.9971C53.1548 82.1639 53.4702 82.4293 53.6976 82.764C53.925 83.0987 54.0555 83.4897 54.0748 83.8939" stroke="#120071" stroke-linecap="round" stroke-linejoin="round"/>
<path d="M27.7979 83.2571C29.8637 83.8726 32.7522 84.2443 36.7816 84.2848" stroke="#120071" stroke-linecap="round" stroke-linejoin="round"/>
<path d="M29.6268 53.6708C28.9825 53.9248 28.4635 54.4213 28.1813 55.0538C27.8991 55.6862 27.8761 56.4041 28.1173 57.0533C28.3586 57.7025 28.8448 58.2312 29.4715 58.5258C30.0983 58.8205 30.8156 58.8576 31.4694 58.6292C32.8397 58.121 33.027 55.229 33.027 55.229C33.027 55.229 30.9961 53.1626 29.6268 53.6708Z" fill="#4949E9"/>
<path d="M29.6268 53.6708C28.9825 53.9248 28.4635 54.4213 28.1813 55.0538C27.8991 55.6862 27.8761 56.4041 28.1173 57.0533C28.3586 57.7025 28.8448 58.2312 29.4715 58.5258C30.0983 58.8205 30.8156 58.8576 31.4694 58.6292C32.8397 58.121 33.027 55.229 33.027 55.229C33.027 55.229 30.9961 53.1626 29.6268 53.6708Z" stroke="#120071" stroke-linecap="round" stroke-linejoin="round"/>
<path d="M37.3852 53.7722C37.3852 55.3801 36.4968 56.2703 34.5949 56.2703C32.6929 56.2703 31.1519 54.9673 31.1519 53.3583C31.1519 51.7493 32.6935 50.4463 34.5949 50.4463C36.4974 50.4463 37.3852 52.1644 37.3852 53.7722Z" fill="#4949E9"/>
<path d="M37.3852 53.7722C37.3852 55.3801 36.4968 56.2703 34.5949 56.2703C32.6929 56.2703 31.1519 54.9673 31.1519 53.3583C31.1519 51.7493 32.6935 50.4463 34.5949 50.4463C36.4974 50.4463 37.3852 52.1644 37.3852 53.7722Z" stroke="#120071" stroke-linecap="round" stroke-linejoin="round"/>
<path d="M36.4689 57.3406C38.0677 56.909 38.5473 53.5916 36.783 51.668C36.4702 52.1896 36.0263 52.6201 35.4953 52.9167C34.9643 53.2132 34.3649 53.3654 33.7568 53.3581C33.742 53.5278 33.7367 53.6982 33.7408 53.8685C33.6417 53.8036 33.5265 53.7677 33.4081 53.765C33.2897 53.7623 33.1729 53.7928 33.071 53.8531C32.6713 54.15 32.8997 55.0819 33.6043 55.4964C33.449 57.337 32.9109 59.1249 32.0244 60.7454C32.2699 62.4269 33.7522 66.5123 35.3058 66.5306C37.0696 66.5477 37.5406 62.7547 37.3979 60.6597C36.9777 60.0357 36.6351 58.1925 36.4689 57.3406Z" fill="#FECFC4"/>
<path d="M36.4689 57.3406C38.0677 56.909 38.5473 53.5916 36.783 51.668C36.4702 52.1896 36.0263 52.6201 35.4953 52.9167C34.9643 53.2132 34.3649 53.3654 33.7568 53.3581C33.742 53.5278 33.7367 53.6982 33.7408 53.8685C33.6417 53.8036 33.5265 53.7677 33.4081 53.765C33.2897 53.7623 33.1729 53.7928 33.071 53.8531C32.6713 54.15 32.8997 55.0819 33.6043 55.4964C33.449 57.337 32.9109 59.1249 32.0244 60.7454C32.2699 62.4269 33.7522 66.5123 35.3058 66.5306C37.0696 66.5477 37.5406 62.7547 37.3979 60.6597C36.9777 60.0357 36.6351 58.1925 36.4689 57.3406Z" stroke="#120071" stroke-linecap="round" stroke-linejoin="round"/>
<path d="M34.374 56.1506C34.7788 57.5324 35.7301 58.4797 36.6831 58.3912C36.6077 58.0411 36.5369 57.6854 36.4695 57.3423C35.6079 57.5729 34.8342 56.9215 34.374 56.1506Z" fill="#4949E9"/>
<path d="M34.374 56.1506C34.7788 57.5324 35.7301 58.4797 36.6831 58.3912C36.6077 58.0411 36.5369 57.6854 36.4695 57.3423C35.6079 57.5729 34.8342 56.9215 34.374 56.1506Z" stroke="#120071" stroke-linecap="round" stroke-linejoin="round"/>
<path d="M64.7645 84.2837H17.5977V89.4922H64.7645V84.2837Z" stroke="#120071" stroke-linecap="round" stroke-linejoin="round"/>
<path d="M97.244 126.91C96.6828 126.998 96.1187 127.066 95.5527 127.114L97.3856 141.805C97.3882 141.854 97.401 141.902 97.4231 141.946C97.4452 141.99 97.4762 142.029 97.514 142.061C97.5703 142.109 97.6401 142.139 97.7141 142.147C97.788 142.155 97.8626 142.14 97.9279 142.105C97.9932 142.069 98.0461 142.014 98.0794 141.948C98.1128 141.881 98.1251 141.806 98.1147 141.733L97.244 126.91Z" stroke="#120071" stroke-linecap="round" stroke-linejoin="round"/>
<path d="M102.666 125.229C102.118 125.504 101.555 125.748 100.98 125.959L108.577 140.76C108.624 140.843 108.7 140.906 108.791 140.934C108.883 140.962 108.981 140.954 109.066 140.911C109.152 140.868 109.217 140.794 109.249 140.704C109.28 140.614 109.276 140.515 109.236 140.428L102.666 125.229Z" stroke="#120071" stroke-linecap="round" stroke-linejoin="round"/>
<path d="M88.5081 126.85L82.663 140.433C82.6301 140.498 82.6174 140.572 82.6263 140.644C82.6353 140.717 82.6656 140.785 82.7134 140.84C82.7612 140.895 82.8243 140.935 82.8947 140.954C82.9652 140.974 83.0397 140.971 83.1089 140.948C83.1549 140.933 83.1974 140.909 83.2341 140.877C83.2707 140.846 83.3008 140.807 83.3225 140.764L90.3233 127.068C89.7164 127.011 89.1111 126.939 88.5081 126.85Z" stroke="#120071" stroke-linecap="round" stroke-linejoin="round"/>
<path d="M81.5559 121.395C81.2216 122.006 81.1065 122.712 81.2298 123.397C81.353 124.082 81.707 124.705 82.2331 125.16C82.5818 125.463 82.9945 125.682 83.4401 125.802C91.0119 127.81 100.28 128.267 106.001 122.916C110.063 119.117 111.368 113.26 111.187 107.744C111.16 106.814 110.892 105.907 110.409 105.112C109.925 104.316 109.244 103.661 108.43 103.209C107.617 102.756 106.699 102.524 105.769 102.534C104.838 102.544 103.926 102.796 103.122 103.266" stroke="#120071" stroke-linecap="round" stroke-linejoin="round"/>
<path d="M78.7391 137.501L76.8548 137.506L76.7503 140.106L67.3863 140.13C67.3863 140.13 67.3863 140.024 67.3823 139.828C65.4564 140.509 63.8782 141.044 63.9564 142.011C64.0095 142.651 78.8532 142.424 78.787 141.783C78.8001 141.408 78.7647 139.04 78.7391 137.501Z" fill="#4949E9"/>
<path d="M67.3789 139.828C65.4529 140.509 63.8748 141.044 63.953 142.012C64.0061 142.652 78.8498 142.424 78.7836 141.783C78.7984 141.406 78.763 139.038 78.7373 137.501L76.8531 137.506" stroke="#120071" stroke-linecap="round" stroke-linejoin="round"/>
<path d="M85.8342 108.822C81.4816 109.705 77.4568 110.694 75.2831 111.631C73.6483 112.322 72.3059 113.561 71.4878 115.136" stroke="#120071" stroke-linecap="round" stroke-linejoin="round"/>
<path d="M76.8491 137.507L78.9657 137.501L79.6132 121.388" stroke="#120071" stroke-linecap="round" stroke-linejoin="round"/>
<path d="M93.7943 73.6333C93.6846 72.3863 93.1411 71.4431 92.3765 71.3449C91.3785 71.2181 90.3832 72.5782 90.1543 74.3819C89.9253 76.1856 90.5488 77.7507 91.5469 77.878C91.7901 77.9043 92.0357 77.8523 92.2469 77.729L92.5513 83.1379C93.7219 81.9609 95.1644 81.0904 96.7514 80.6033L93.7943 73.6333Z" fill="#FECFC4"/>
<path d="M93.7943 73.6333C93.6846 72.3863 93.1411 71.4431 92.3765 71.3449C91.3785 71.2181 90.3832 72.5782 90.1543 74.3819C89.9253 76.1856 90.5488 77.7507 91.5469 77.878C91.7901 77.9043 92.0357 77.8523 92.2469 77.729L92.5513 83.1379C93.7219 81.9609 95.1644 81.0904 96.7514 80.6033L93.7943 73.6333Z" stroke="#120071" stroke-linecap="round" stroke-linejoin="round"/>
<path d="M92.2466 77.7293L92.2957 78.5955C92.6786 78.3022 92.9933 77.9293 93.2181 77.5026C93.4428 77.0758 93.5723 76.6054 93.5975 76.1237C93.6169 75.9541 93.0933 77.2874 92.2466 77.7293Z" fill="#4949E9"/>
<path d="M92.2466 77.7293L92.2957 78.5955C92.6786 78.3022 92.9933 77.9293 93.2181 77.5026C93.4428 77.0758 93.5723 76.6054 93.5975 76.1237C93.6169 75.9541 93.0933 77.2874 92.2466 77.7293Z" stroke="#120071" stroke-linecap="round" stroke-linejoin="round"/>
<path d="M93.8072 72.6384C93.7136 71.8391 93.4178 70.6297 93.0016 70.3939C90.1141 68.7598 89.3102 70.5766 90.1358 71.5256C90.8296 72.325 91.6489 73.9271 92.6715 74.4581C92.9433 74.1281 93.2471 73.1717 93.7022 73.6456C93.8089 73.9996 93.7912 74.3788 93.6519 74.7208C93.7199 74.7311 94.099 74.7208 94.1658 74.7208C94.0081 74.0338 93.8884 73.3386 93.8072 72.6384Z" fill="#4949E9"/>
<path d="M93.8072 72.6384C93.7136 71.8391 93.4178 70.6297 93.0016 70.3939C90.1141 68.7598 89.3102 70.5766 90.1358 71.5256C90.8296 72.325 91.6489 73.9271 92.6715 74.4581C92.9433 74.1281 93.2471 73.1717 93.7022 73.6456C93.8089 73.9996 93.7912 74.3788 93.6519 74.7208C93.7199 74.7311 94.099 74.7208 94.1658 74.7208C94.0081 74.0338 93.8884 73.3386 93.8072 72.6384Z" stroke="#120071" stroke-linecap="round" stroke-linejoin="round"/>
<path d="M87.0084 91.6271C86.3597 90.1425 85.7477 88.5438 85.1064 87.0684" stroke="#120071" stroke-linecap="round" stroke-linejoin="round"/>
<path d="M79.4658 90.6617L81.4208 89.5323C81.4996 89.7138 81.5778 89.8977 81.656 90.0821C81.9792 89.9317 82.2954 89.7669 82.6038 89.5882C84.2426 88.6421 85.3623 87.5139 85.1047 87.0679C84.8472 86.622 83.3107 87.0274 81.672 87.9741C80.0333 88.9207 78.913 90.0484 79.17 90.4944C79.2038 90.5424 79.2479 90.5824 79.299 90.6113C79.3502 90.6403 79.4071 90.6575 79.4658 90.6617Z" fill="#4949E9"/>
<path d="M81.656 90.0821C81.9792 89.9317 82.2954 89.7669 82.6038 89.5882C84.2426 88.6421 85.3623 87.5139 85.1047 87.0679C84.8472 86.622 83.3107 87.0274 81.672 87.9741C80.0333 88.9207 78.913 90.0484 79.17 90.4944C79.2038 90.5424 79.2479 90.5824 79.299 90.6113C79.3502 90.6403 79.4071 90.6575 79.4658 90.6617" stroke="#120071" stroke-linecap="round" stroke-linejoin="round"/>
<path d="M80.2789 90.1928L81.4209 89.5327C81.4997 89.7143 81.5779 89.897 81.6555 90.082C82.5718 89.6629 83.4279 89.1231 84.201 88.477L83.5363 86.7492C82.6953 83.8246 80.9527 78.6047 80.1641 77.239C79.9232 76.8216 79.1364 76.9854 79.1878 77.4445C79.367 79.1346 80.0105 79.5 79.8404 80.8218C78.7978 81.8913 77.0997 81.6241 75.6557 81.2369C74.7362 80.9806 73.7957 80.8067 72.8453 80.7174C72.6977 80.6887 72.5446 80.7161 72.4161 80.7941C72.2875 80.8721 72.1925 80.9952 72.1498 81.1394C72.107 81.2836 72.1195 81.4386 72.1847 81.5741C72.25 81.7096 72.3633 81.816 72.5027 81.8724C76.1267 83.4175 75.1966 82.5194 72.0105 82.5839C71.8499 82.5573 71.6852 82.5949 71.552 82.6887C71.4189 82.7825 71.328 82.9249 71.299 83.0851C71.27 83.2454 71.3052 83.4106 71.3969 83.5451C71.4887 83.6797 71.6298 83.7727 71.7896 83.8041C72.018 83.8714 72.2509 83.9388 72.4885 84.0051C72.4186 84.0462 72.3586 84.102 72.3124 84.1686C72.2663 84.2352 72.2352 84.311 72.2212 84.3908C72.2073 84.4706 72.2108 84.5525 72.2316 84.6309C72.2524 84.7092 72.29 84.782 72.3417 84.8444C72.4112 84.9279 72.5034 84.9894 72.6072 85.0214C73.9387 85.5353 73.8474 85.4154 73.4226 85.4268C72.7551 85.4451 72.6089 86.2519 73.2416 86.4294C75.2388 86.9784 77.2737 87.3791 79.3299 87.6285C79.5903 88.308 80.0528 89.5744 80.2789 90.1928Z" fill="#FECFC4"/>
<path d="M81.6555 90.082C82.5718 89.6629 83.4279 89.1231 84.201 88.477L83.5363 86.7492C82.6953 83.8246 80.9527 78.6047 80.1641 77.239C79.9232 76.8216 79.1364 76.9854 79.1878 77.4445C79.367 79.1346 80.0105 79.5 79.8404 80.8218C78.7978 81.8913 77.0997 81.6241 75.6557 81.2369C74.7362 80.9806 73.7957 80.8067 72.8453 80.7174C72.6977 80.6887 72.5446 80.7161 72.4161 80.7941C72.2875 80.8721 72.1925 80.9952 72.1498 81.1394C72.107 81.2836 72.1195 81.4386 72.1847 81.5741C72.25 81.7096 72.3633 81.816 72.5027 81.8724C76.1267 83.4175 75.1966 82.5194 72.0105 82.5839C71.8499 82.5573 71.6852 82.5949 71.5521 82.6887C71.4189 82.7825 71.328 82.9249 71.299 83.0851C71.27 83.2454 71.3052 83.4106 71.397 83.5451C71.4887 83.6797 71.6298 83.7727 71.7896 83.8041C72.018 83.8714 72.2509 83.9388 72.4885 84.0051C72.4186 84.0462 72.3586 84.102 72.3124 84.1686C72.2663 84.2352 72.2352 84.311 72.2212 84.3908C72.2073 84.4706 72.2108 84.5525 72.2316 84.6309C72.2524 84.7092 72.29 84.782 72.3417 84.8444C72.4112 84.9279 72.5034 84.9894 72.6072 85.0214C73.9387 85.5353 73.8474 85.4154 73.4226 85.4268C72.7551 85.4451 72.6089 86.2519 73.2416 86.4294C75.2388 86.9783 77.2737 87.3791 79.3299 87.6285C79.6495 88.4821 79.9651 89.3373 80.2766 90.1939" stroke="#120071" stroke-linecap="round" stroke-linejoin="round"/>
<path d="M102.804 90.6781C102.132 85.2824 101.013 84.2123 96.7518 80.6038C89.7071 82.5508 85.5606 94.6881 85.0153 97.3466C83.6501 95.2911 82.5824 92.2118 81.4182 89.5333L75.4834 92.9592C76.1771 96.2326 78.8859 107.64 85.8255 106.67C85.8204 108.268 85.8392 109.82 85.8667 111.287C93.0793 110.031 100.814 108.921 103.086 108.191C103.089 104.096 103.306 94.7064 102.804 90.6781Z" stroke="#120071" stroke-linecap="round" stroke-linejoin="round"/>
<path d="M85.8306 106.67C87.1918 106.479 89.1051 106.206 90.4195 104.515C93.3812 100.705 94.152 94.4965 94.6288 90.2524" stroke="#120071" stroke-linecap="round" stroke-linejoin="round"/>
<path d="M77.986 90.4401C79.6248 89.4934 81.1618 89.0875 81.4193 89.5334C81.6769 89.9793 80.5572 91.1076 78.9185 92.0537C77.2797 92.9998 75.7421 93.4052 75.4846 92.9593C75.2271 92.5133 76.3473 91.3862 77.986 90.4401Z" fill="#4949E9"/>
<path d="M77.986 90.4401C79.6248 89.4934 81.1618 89.0875 81.4193 89.5334C81.6769 89.9793 80.5572 91.1076 78.9185 92.0537C77.2797 92.9998 75.7421 93.4052 75.4846 92.9593C75.2271 92.5133 76.3473 91.3862 77.986 90.4401Z" stroke="#120071" stroke-linecap="round" stroke-linejoin="round"/>
<path d="M78.8054 84.3825C79.2782 83.0544 79.0258 81.2701 78.6615 79.7547C78.5473 79.2911 77.6423 79.2551 77.5196 79.7096C77.1199 81.4271 77.648 81.969 77.0028 83.1355C75.4926 83.8972 73.7888 83.2497 72.282 82.4943C71.3575 82.0133 70.3936 81.6122 69.4008 81.2952C68.6014 81.056 67.9734 81.8748 68.6077 82.323C69.2998 82.8112 69.8382 83.0807 70.617 83.5529C69.6964 83.2732 68.7594 83.0511 67.8112 82.8877C66.9222 82.7255 66.3347 83.6614 67.0541 84.077C66.9357 84.1053 66.8278 84.1669 66.7432 84.2546C66.6587 84.3422 66.601 84.4522 66.577 84.5716C66.553 84.691 66.5636 84.8147 66.6077 84.9282C66.6518 85.0417 66.7274 85.1403 66.8257 85.2122C67.1409 85.3892 67.4629 85.5525 67.7918 85.7026C67.1066 85.6301 66.6955 86.3781 67.2916 86.7007C69.2021 87.7347 73.099 88.9766 75.0649 89.7155C75.2933 89.8011 75.8946 92.1033 76.1898 93.1231C77.8843 92.7393 79.4495 91.9207 80.7313 90.7478C80.5029 90.1408 78.5862 84.9997 78.8054 84.3825Z" fill="#FECFC4"/>
<path d="M78.8054 84.3825C79.2782 83.0544 79.0258 81.2701 78.6615 79.7547C78.5473 79.2911 77.6423 79.2551 77.5196 79.7096C77.1199 81.4271 77.648 81.969 77.0028 83.1355C75.4926 83.8972 73.7888 83.2497 72.282 82.4943C71.3575 82.0133 70.3936 81.6122 69.4008 81.2952C68.6014 81.056 67.9734 81.8748 68.6077 82.323C69.2998 82.8112 69.8382 83.0807 70.617 83.5529C69.6964 83.2732 68.7594 83.0511 67.8112 82.8877C66.9222 82.7255 66.3347 83.6614 67.0541 84.077C66.9357 84.1053 66.8278 84.1669 66.7432 84.2546C66.6587 84.3422 66.601 84.4522 66.577 84.5716C66.553 84.691 66.5636 84.8147 66.6077 84.9282C66.6518 85.0417 66.7274 85.1403 66.8257 85.2122C67.1409 85.3892 67.4629 85.5525 67.7918 85.7026C67.1066 85.6301 66.6955 86.3781 67.2916 86.7007C69.2021 87.7347 73.099 88.9766 75.0649 89.7155C75.2933 89.8011 75.8946 92.1033 76.1898 93.1231C77.8843 92.7393 79.4495 91.9207 80.7313 90.7478C80.5029 90.1408 78.5862 84.9997 78.8054 84.3825Z" stroke="#120071" stroke-linecap="round" stroke-linejoin="round"/>
<path d="M70.6182 83.5527L72.2871 84.0723" stroke="#120071" stroke-linecap="round" stroke-linejoin="round"/>
<path d="M76.4358 140.107L69.3065 140.125C69.1067 140.32 68.8817 140.487 68.6373 140.621C65.6443 142.329 61.5212 142.769 61.6468 144.318C61.6988 144.96 76.5425 144.732 76.4769 144.09C76.4889 143.739 76.4609 141.636 76.4358 140.107Z" fill="#4949E9"/>
<path d="M76.4358 140.107L69.3065 140.125C69.1067 140.32 68.8817 140.487 68.6373 140.621C65.6443 142.329 61.5212 142.769 61.6468 144.318C61.6988 144.96 76.5425 144.732 76.4769 144.09C76.4889 143.739 76.4609 141.636 76.4358 140.107Z" stroke="#120071" stroke-linecap="round" stroke-linejoin="round"/>
<path d="M73.0622 114.236C69.3474 115.838 68.3801 119.346 67.9593 122.015C67.1811 126.974 67.3809 140.132 67.3809 140.132L76.745 140.108L77.4987 121.357C77.4987 121.357 95.4845 121.831 98.823 119.533C101.645 117.592 103.088 114.017 103.088 108.192C99.1142 109.466 78.4442 111.914 73.0622 114.236Z" stroke="#120071" stroke-linecap="round" stroke-linejoin="round"/>
<path d="M67.7925 85.7024C68.6347 86.0849 68.4777 86.0067 71.7939 86.9974" stroke="#120071" stroke-linecap="round" stroke-linejoin="round"/>
<path d="M71.9588 85.5741C70.2874 85.2047 68.6477 84.7045 67.0547 84.0781" stroke="#120071" stroke-linecap="round" stroke-linejoin="round"/>
<path d="M22.3977 14.6878L22.6353 14.2479L22.3977 14.6878ZM13.9524 21.9441L14.3311 21.6176L13.9524 21.9441ZM53.7958 28.9707C53.9203 28.7242 53.8214 28.4235 53.5749 28.299L49.5583 26.2699C49.3119 26.1454 49.0111 26.2443 48.8866 26.4908C48.7621 26.7372 48.861 27.038 49.1074 27.1625L52.6777 28.9661L50.8742 32.5364C50.7496 32.7829 50.8485 33.0836 51.095 33.2081C51.3415 33.3326 51.6422 33.2338 51.7667 32.9873L53.7958 28.9707ZM1.43507 23.4947C5.97228 15.4837 14.6594 11.0763 22.1601 15.1278L22.6353 14.2479C14.4557 9.82973 5.24251 14.743 0.564934 23.0019L1.43507 23.4947ZM22.1601 15.1278C23.8508 16.041 24.4331 17.2175 24.4065 18.3442C24.3789 19.5138 23.6929 20.7586 22.5833 21.7477C21.4791 22.7319 20.0126 23.4089 18.5299 23.484C17.0648 23.5581 15.5639 23.0477 14.3311 21.6176L13.5737 22.2706C15.0171 23.9448 16.8212 24.5717 18.5805 24.4827C20.3222 24.3945 21.9993 23.6078 23.2487 22.4941C24.4928 21.3852 25.3701 19.898 25.4062 18.3678C25.4434 16.7947 24.5897 15.3036 22.6353 14.2479L22.1601 15.1278ZM14.3311 21.6176C11.6391 18.4949 12.0151 14.0697 14.9599 11.0434C17.8914 8.03068 23.4419 6.36925 31.1095 9.09985L31.445 8.15781C23.5095 5.33178 17.5147 6.9839 14.2432 10.346C10.985 13.6944 10.5 18.7051 13.5737 22.2706L14.3311 21.6176ZM31.1095 9.09985C38.6022 11.7682 39.1984 18.068 40.3383 23.2897C40.8945 25.8372 41.6064 28.2403 43.5673 29.5164C45.5398 30.8001 48.5908 30.836 53.5056 29.2202L53.1933 28.2703C48.3246 29.8709 45.6752 29.6951 44.1127 28.6783C42.5386 27.6539 41.881 25.6676 41.3153 23.0765C40.2117 18.0209 39.5553 11.0461 31.445 8.15781L31.1095 9.09985Z" fill="#4949E9"/>
</svg>
