<svg width="381" height="433" viewBox="0 0 381 433" fill="none" xmlns="http://www.w3.org/2000/svg">
<path d="M135.452 170.309V15.6299H359.15V265.845" stroke="#120071" stroke-width="3" stroke-linecap="round" stroke-linejoin="round"/>
<path d="M304.55 15.6319V13.4547C304.55 10.4167 303.344 7.50316 301.196 5.35499C299.047 3.20683 296.134 2 293.096 2H201.495C199.99 1.9997 198.501 2.29578 197.111 2.87133C195.721 3.44688 194.458 4.29061 193.394 5.35433C192.331 6.41805 191.487 7.68092 190.911 9.0708C190.336 10.4607 190.04 11.9503 190.04 13.4547V15.6319" stroke="#120071" stroke-width="3" stroke-linecap="round" stroke-linejoin="round"/>
<path d="M230.735 60.1558H258.969" stroke="#120071" stroke-width="3" stroke-linecap="round" stroke-linejoin="round"/>
<path d="M230.735 50.6436H288.523" stroke="#120071" stroke-width="3" stroke-linecap="round" stroke-linejoin="round"/>
<path d="M230.735 69.7158H258.969" stroke="#120071" stroke-width="3" stroke-linecap="round" stroke-linejoin="round"/>
<path d="M230.735 78.21H258.969" stroke="#120071" stroke-width="3" stroke-linecap="round" stroke-linejoin="round"/>
<path d="M175.667 107.805H203.898" stroke="#120071" stroke-width="3" stroke-linecap="round" stroke-linejoin="round"/>
<path d="M175.667 117.365H203.898" stroke="#120071" stroke-width="3" stroke-linecap="round" stroke-linejoin="round"/>
<path d="M230.735 107.805H258.969" stroke="#120071" stroke-width="3" stroke-linecap="round" stroke-linejoin="round"/>
<path d="M230.735 117.365H258.969" stroke="#120071" stroke-width="3" stroke-linecap="round" stroke-linejoin="round"/>
<path d="M230.735 125.861H258.969" stroke="#120071" stroke-width="3" stroke-linecap="round" stroke-linejoin="round"/>
<path d="M188.991 43.4907C181.865 43.4913 175.03 46.323 169.991 51.3627C164.952 56.4025 162.122 63.2375 162.123 70.3642C162.123 77.4908 164.955 84.3254 169.995 89.3643C175.034 94.4032 181.869 97.2337 188.996 97.2331C192.525 97.2328 196.019 96.5374 199.279 95.1868C202.539 93.8361 205.501 91.8565 207.996 89.3611C210.491 86.8657 212.47 83.9032 213.82 80.643C215.17 77.3827 215.865 73.8884 215.865 70.3596C215.865 66.8309 215.169 63.3367 213.819 60.0767C212.468 56.8166 210.488 53.8545 207.993 51.3595C205.498 48.8645 202.535 46.8854 199.275 45.5353C196.015 44.1852 192.52 43.4904 188.991 43.4907Z" stroke="#120071" stroke-width="3" stroke-linecap="round" stroke-linejoin="round"/>
<path d="M208.174 89.1746C204.409 85.3307 199.576 82.7071 194.301 81.6442C189.027 80.5813 183.555 81.1281 178.595 83.2138C175.302 84.5972 172.318 86.6237 169.818 89.1746C172.319 91.724 175.303 93.7492 178.596 95.1317C181.889 96.5143 185.425 97.2263 188.996 97.2263C192.567 97.2263 196.103 96.5143 199.396 95.1317C202.688 93.7492 205.673 91.724 208.174 89.1746Z" stroke="#120071" stroke-width="3" stroke-linecap="round" stroke-linejoin="round"/>
<path d="M188.07 75.3783C189.071 75.3783 190.031 74.9806 190.739 74.2727C191.447 73.5649 191.845 72.6048 191.845 71.6037C191.845 70.6026 191.447 69.6425 190.739 68.9347C190.031 68.2268 189.071 67.8291 188.07 67.8291C187.069 67.8291 186.109 68.2268 185.401 68.9347C184.693 69.6425 184.295 70.6026 184.295 71.6037C184.295 72.6048 184.693 73.5649 185.401 74.2727C186.109 74.9806 187.069 75.3783 188.07 75.3783Z" stroke="#120071" stroke-width="3" stroke-linecap="round" stroke-linejoin="round"/>
<path d="M364.814 249.052L371.321 259.785L378.969 243.752" stroke="#120071" stroke-width="3" stroke-linecap="round" stroke-linejoin="round"/>
<path d="M278.787 79.1802H299.831" stroke="#120071" stroke-width="3" stroke-linecap="round" stroke-linejoin="round"/>
<path d="M289.31 89.6979V68.6567" stroke="#120071" stroke-width="3" stroke-linecap="round" stroke-linejoin="round"/>
<path d="M318.841 108.055H330.321" stroke="#120071" stroke-width="3" stroke-linecap="round" stroke-linejoin="round"/>
<path d="M324.583 113.795V102.315" stroke="#120071" stroke-width="3" stroke-linecap="round" stroke-linejoin="round"/>
<path d="M159.508 212.523V215.907C163.991 217.167 168.146 219.39 171.68 222.421C176.479 227.091 176.994 235.441 177.709 242.677C180.723 273.083 182.352 284.204 182.585 314.821H159.508V334.763H188.387V212.523H159.508Z" fill="#4949E9"/>
<path d="M159.508 314.83V334.772H188.376V212.523H159.508V215.916" stroke="#120071" stroke-width="3" stroke-linecap="round" stroke-linejoin="round"/>
<path d="M69.9343 260.918C67.7097 261.146 65.4693 261.227 63.2334 261.159L70.4374 318.963C70.4748 319.345 70.6626 319.697 70.9594 319.941C71.2562 320.185 71.6378 320.301 72.0201 320.264C72.4025 320.226 72.7543 320.038 72.9983 319.742C73.2422 319.445 73.3582 319.063 73.3208 318.681L69.9343 260.918Z" stroke="#120071" stroke-width="3" stroke-linecap="round" stroke-linejoin="round"/>
<path d="M117.268 313.517L91.3376 253.502C89.2947 254.793 87.1608 255.934 84.9526 256.916L114.676 314.828C114.859 315.156 115.162 315.401 115.522 315.513C115.881 315.624 116.27 315.593 116.607 315.426C116.944 315.256 117.201 314.962 117.326 314.606C117.451 314.25 117.433 313.86 117.277 313.517H117.268Z" stroke="#120071" stroke-width="3" stroke-linecap="round" stroke-linejoin="round"/>
<path d="M38.1259 253.458L12.2722 313.54C12.1865 313.711 12.1352 313.898 12.1215 314.089C12.1077 314.279 12.1317 314.471 12.192 314.653C12.2523 314.834 12.3479 315.002 12.4731 315.147C12.5984 315.292 12.7509 315.411 12.922 315.496C13.0931 315.582 13.2794 315.633 13.4703 315.647C13.6613 315.661 13.853 315.637 14.0346 315.577C14.2163 315.516 14.3843 315.421 14.529 315.295C14.6737 315.17 14.7923 315.018 14.8781 314.847L44.5086 256.885C42.3008 255.899 40.1676 254.754 38.1259 253.458Z" stroke="#120071" stroke-width="3" stroke-linecap="round" stroke-linejoin="round"/>
<path d="M40.739 191.945C41.2376 190.553 41.7678 189.193 42.3183 187.884C24.693 182.636 22.2134 172.899 22.2405 162.191C22.2405 158.067 22.2405 152.995 22.3917 147.589C20.2549 148.223 18.3802 149.53 17.047 151.316C15.7138 153.102 14.9936 155.271 14.9937 157.5V191.945H40.739Z" fill="#4949E9"/>
<path d="M87.3226 248.135C53.2835 249.764 37.5444 231.308 37.0096 212.523H15.0073C15.2251 222.188 18.2529 231.581 23.7209 239.554C29.1889 247.527 36.8605 253.735 45.7985 257.42C54.7366 261.105 64.5543 262.107 74.0526 260.304C83.5509 258.502 92.3186 253.972 99.2849 247.268C95.0478 247.679 90.9032 247.963 87.3226 248.135Z" fill="#4949E9"/>
<path d="M15.0063 212.523C15.2237 222.188 18.2514 231.581 23.7197 239.554C29.1881 247.527 36.8602 253.735 45.7988 257.419C54.737 261.103 64.5546 262.105 74.0529 260.303C83.5513 258.5 92.3192 253.971 99.2862 247.268" stroke="#120071" stroke-width="3" stroke-linecap="round" stroke-linejoin="round"/>
<path d="M22.3978 147.592C20.2606 148.226 18.3854 149.533 17.0518 151.319C15.7182 153.105 14.9976 155.275 14.9976 157.504V191.942" stroke="#120071" stroke-width="3" stroke-linecap="round" stroke-linejoin="round"/>
<path d="M183.408 320.706C181.479 319.298 180.175 317.194 179.771 314.84H160.273C160.273 314.84 157.661 330.999 157.446 332.948C156.921 335.157 202.656 335.502 203.141 333.287C204.31 327.933 191.792 326.523 183.408 320.706Z" fill="#FECFC4"/>
<path d="M183.408 320.706C181.479 319.298 180.175 317.194 179.771 314.84H160.273C160.273 314.84 157.661 330.999 157.446 332.948C156.921 335.157 202.656 335.502 203.141 333.287C204.31 327.933 191.792 326.523 183.408 320.706Z" stroke="#120071" stroke-width="3" stroke-linecap="round" stroke-linejoin="round"/>
<path d="M151.226 271.029C152.651 283.77 154.17 295.985 156.552 314.83H182.587C182.361 284.214 180.725 273.091 177.711 242.687C176.996 235.451 176.481 227.101 171.682 222.431C166.82 217.693 157.058 214.566 145.355 212.485" stroke="#120071" stroke-width="3" stroke-linecap="round" stroke-linejoin="round"/>
<path d="M154.137 323.58C152.747 322.558 151.669 321.169 151.025 319.569C150.381 317.968 150.196 316.219 150.491 314.52H131.518C128.737 331.802 128.45 333.343 128.179 335.811C127.654 338.015 173.387 338.37 173.874 336.147C175.04 330.805 162.523 329.397 154.137 323.58Z" fill="#FECFC4"/>
<path d="M154.137 323.58C152.747 322.558 151.669 321.169 151.025 319.569C150.381 317.968 150.196 316.219 150.491 314.52H131.518C128.737 331.802 128.45 333.343 128.179 335.811C127.654 338.015 173.387 338.37 173.874 336.147C175.04 330.805 162.523 329.397 154.137 323.58Z" stroke="#120071" stroke-width="3" stroke-linecap="round" stroke-linejoin="round"/>
<path d="M37.0156 212.523C37.5436 231.308 53.2827 249.764 87.3286 248.135C97.84 247.72 108.302 246.469 118.615 244.396C121.611 274.992 123.064 281.601 127.225 314.518H153.257C153.031 283.902 151.391 272.779 148.379 242.377C147.663 235.141 147.149 226.791 142.35 222.121C137.75 217.64 128.761 214.599 117.895 212.523" stroke="#120071" stroke-width="3" stroke-linecap="round" stroke-linejoin="round"/>
<path d="M42.307 187.886C41.7677 189.195 41.2375 190.553 40.7276 191.947L132.218 191.913L135.828 170.324C131.099 168.415 126.244 166.832 121.298 165.586C116.526 152.105 111.36 129.013 108.377 114.145C107.895 111.744 106.785 109.515 105.16 107.684C103.535 105.853 101.453 104.485 99.1268 103.721C92.9651 101.704 86.7448 100.337 80.2267 98.5952L58.9937 98.9336C50.6591 100.638 42.4322 102.832 34.3562 105.506C22.0284 109.991 22.2878 144.664 22.2405 162.19C22.2134 172.898 24.6929 182.636 42.307 187.886Z" stroke="#120071" stroke-width="3" stroke-linecap="round" stroke-linejoin="round"/>
<path d="M46.5981 129.827C51.7242 141.081 46.7087 149.652 48.3332 161.91C55.0115 162.187 74.1733 167.128 81.3141 170.321" stroke="#120071" stroke-width="3" stroke-linecap="round" stroke-linejoin="round"/>
<path d="M97.0649 129.827C99.6483 135.645 102.288 141.784 101.744 148.124C101.201 154.464 96.4693 162.546 101.444 174.824" stroke="#120071" stroke-width="3" stroke-linecap="round" stroke-linejoin="round"/>
<path d="M81.3145 170.312C76.6487 169.556 72.9937 190.672 77.8062 191.933C82.7653 192.306 85.9533 171.073 81.3145 170.312Z" fill="#4949E9"/>
<path d="M81.3145 170.312C76.6487 169.556 72.9937 190.672 77.8062 191.933C82.7653 192.306 85.9533 171.073 81.3145 170.312Z" stroke="#120071" stroke-width="3" stroke-linecap="round" stroke-linejoin="round"/>
<path d="M122.71 188.121C123.991 187.144 124.515 185.536 122.43 184.511C122.713 184.4 122.951 184.198 123.107 183.936C123.784 182.555 122.033 181.114 118.028 179.676C115.587 178.797 113.197 177.91 110.772 177.086C108.581 175.575 106.188 173.995 104.033 172.432C103.666 172.137 103.244 171.92 102.791 171.794C102.338 171.668 101.864 171.636 101.398 171.699C96.6426 172.469 92.029 173.944 87.7094 176.076C84.3161 175.721 80.9469 175.165 77.6197 174.411C75.7629 179.018 74.549 187.187 76.5097 190.813C86.3489 192.681 85.8796 191.467 102.115 191.754C111.799 191.923 121.279 191.851 122.245 191.754C122.669 191.713 123.067 191.53 123.373 191.234C123.679 190.937 123.875 190.546 123.929 190.123C123.983 189.701 123.892 189.272 123.67 188.909C123.449 188.545 123.11 188.267 122.71 188.121Z" fill="#FECFC4"/>
<path d="M122.71 188.121C123.991 187.144 124.515 185.536 122.43 184.511C122.713 184.4 122.951 184.198 123.107 183.936C123.784 182.555 122.033 181.114 118.028 179.676C115.587 178.797 113.197 177.91 110.772 177.086C108.581 175.575 106.188 173.995 104.033 172.432C103.666 172.137 103.244 171.92 102.791 171.794C102.338 171.668 101.864 171.636 101.398 171.699C96.6426 172.469 92.029 173.944 87.7094 176.076C84.3161 175.721 80.9469 175.165 77.6197 174.411C75.7629 179.018 74.549 187.187 76.5097 190.813C86.3489 192.681 85.8796 191.467 102.115 191.754C111.799 191.923 121.279 191.851 122.245 191.754C122.669 191.713 123.067 191.53 123.373 191.234C123.679 190.937 123.875 190.546 123.929 190.123C123.983 189.701 123.892 189.272 123.67 188.909C123.449 188.545 123.11 188.267 122.71 188.121Z" stroke="#120071" stroke-width="3" stroke-linecap="round" stroke-linejoin="round"/>
<path d="M103.183 175.46C105.739 175.851 108.269 176.392 110.762 177.08" stroke="#120071" stroke-width="3" stroke-linecap="round" stroke-linejoin="round"/>
<path d="M105.683 179.845C111.449 180.644 117.082 182.211 122.431 184.506" stroke="#120071" stroke-width="3" stroke-linecap="round" stroke-linejoin="round"/>
<path d="M105.965 184.907C111.685 185.067 117.339 186.153 122.711 188.122" stroke="#120071" stroke-width="3" stroke-linecap="round" stroke-linejoin="round"/>
<path d="M135.837 170.311C133.055 169.86 130.885 177.653 130.449 180.532C129.547 186.398 130.298 191.413 132.23 191.901H132.868C134.752 191.449 136.769 187.151 137.719 181.716C138.238 178.754 138.592 170.763 135.837 170.311Z" fill="#4949E9"/>
<path d="M135.837 170.311C133.055 169.86 130.885 177.653 130.449 180.532C129.547 186.398 130.298 191.413 132.23 191.901H132.868C134.752 191.449 136.769 187.151 137.719 181.716C138.238 178.754 138.592 170.763 135.837 170.311Z" stroke="#120071" stroke-width="3" stroke-linecap="round" stroke-linejoin="round"/>
<path d="M171.618 177.216C160.043 175.671 156.77 178.399 170.176 174.428C170.703 174.285 171.158 173.951 171.453 173.492C171.748 173.033 171.863 172.48 171.774 171.941C171.686 171.402 171.401 170.916 170.975 170.575C170.548 170.234 170.01 170.063 169.465 170.096C166.036 170.01 162.606 170.231 159.218 170.757C155.319 171.294 154.432 172.011 150.899 170.322C146.093 168.02 149.64 163.061 150.486 159.16C150.838 157.513 148.14 156.588 147.102 157.996C144.187 161.487 141.99 165.519 140.638 169.861C139.625 173.124 134.731 173.282 132.922 172.794C129.312 179.818 129.147 191.151 132.229 191.927C144.943 191.832 158.755 191.787 165.542 190.625C166.019 190.578 166.459 190.349 166.772 189.985C167.084 189.621 167.243 189.151 167.217 188.672C167.19 188.193 166.98 187.743 166.629 187.416C166.279 187.089 165.816 186.91 165.336 186.916C163.816 186.69 163.464 187.074 168.423 185.801C168.809 185.725 169.165 185.54 169.448 185.267C169.732 184.994 169.931 184.646 170.023 184.263C170.114 183.881 170.093 183.48 169.963 183.108C169.833 182.737 169.599 182.411 169.289 182.169C170.162 182.033 171.024 181.893 171.87 181.747C172.174 181.739 172.473 181.67 172.749 181.545C173.026 181.419 173.274 181.239 173.48 181.016C173.686 180.792 173.845 180.53 173.947 180.244C174.05 179.958 174.094 179.655 174.077 179.351C174.06 179.048 173.983 178.752 173.849 178.479C173.715 178.206 173.528 177.963 173.299 177.764C173.069 177.565 172.802 177.414 172.514 177.32C172.225 177.226 171.92 177.191 171.618 177.216Z" fill="#FECFC4"/>
<path d="M171.618 177.216C160.043 175.671 156.77 178.399 170.176 174.428C170.703 174.285 171.158 173.951 171.453 173.492C171.748 173.033 171.863 172.48 171.774 171.941C171.686 171.402 171.401 170.916 170.975 170.575C170.548 170.234 170.01 170.063 169.465 170.096C166.036 170.01 162.606 170.231 159.218 170.757C155.319 171.294 154.432 172.011 150.899 170.322C146.093 168.02 149.64 163.061 150.486 159.16C150.838 157.513 148.14 156.588 147.102 157.996C144.187 161.487 141.99 165.519 140.638 169.861C139.625 173.124 134.731 173.282 132.922 172.794C129.312 179.818 129.147 191.151 132.229 191.927C144.943 191.832 158.755 191.787 165.542 190.625C166.019 190.578 166.459 190.349 166.772 189.985C167.084 189.621 167.243 189.151 167.217 188.672C167.19 188.193 166.98 187.743 166.629 187.416C166.279 187.089 165.816 186.91 165.336 186.916C163.816 186.69 163.464 187.074 168.423 185.801C168.809 185.725 169.165 185.54 169.448 185.267C169.732 184.994 169.931 184.646 170.023 184.263C170.114 183.881 170.093 183.48 169.963 183.108C169.833 182.737 169.599 182.411 169.289 182.169C170.162 182.033 171.024 181.893 171.87 181.747C172.174 181.739 172.473 181.67 172.749 181.545C173.026 181.419 173.274 181.239 173.48 181.016C173.686 180.792 173.845 180.53 173.947 180.244C174.05 179.958 174.094 179.655 174.077 179.351C174.06 179.048 173.983 178.752 173.849 178.479C173.715 178.206 173.528 177.963 173.299 177.764C173.069 177.565 172.802 177.414 172.514 177.32C172.225 177.226 171.92 177.191 171.618 177.216Z" stroke="#120071" stroke-width="3" stroke-linecap="round" stroke-linejoin="round"/>
<path d="M161.456 176.71L154.342 177.382" stroke="#120071" stroke-width="3" stroke-linecap="round" stroke-linejoin="round"/>
<path d="M169.29 182.153L155.398 182.627" stroke="#120071" stroke-width="3" stroke-linecap="round" stroke-linejoin="round"/>
<path d="M164.338 186.77L154.681 187.083" stroke="#120071" stroke-width="3" stroke-linecap="round" stroke-linejoin="round"/>
<path d="M148.864 173.115C148.518 175.284 147.616 177.325 146.246 179.042C144.876 180.758 143.084 182.089 141.046 182.907C142.503 183.566 143.749 184.615 144.648 185.938C145.546 187.26 146.062 188.805 146.139 190.402" stroke="#120071" stroke-width="3" stroke-linecap="round" stroke-linejoin="round"/>
<path d="M42.3066 187.885C50.4695 190.317 61.8836 191.786 77.8055 191.946" stroke="#120071" stroke-width="3" stroke-linecap="round" stroke-linejoin="round"/>
<path d="M49.5354 70.9762C46.9895 71.9798 44.9387 73.9418 43.8234 76.4409C42.7082 78.9399 42.6174 81.7766 43.5707 84.3418C44.5239 86.907 46.4451 88.9961 48.9217 90.1604C51.3982 91.3247 54.2326 91.4714 56.8161 90.5689C62.231 88.5609 62.971 77.1333 62.971 77.1333C62.971 77.1333 54.9457 68.9682 49.5354 70.9762Z" fill="#4949E9"/>
<path d="M49.5354 70.9762C46.9895 71.9798 44.9387 73.9418 43.8234 76.4409C42.7082 78.9399 42.6174 81.7766 43.5707 84.3418C44.5239 86.907 46.4451 88.9961 48.9217 90.1604C51.3982 91.3247 54.2326 91.4714 56.8161 90.5689C62.231 88.5609 62.971 77.1333 62.971 77.1333C62.971 77.1333 54.9457 68.9682 49.5354 70.9762Z" stroke="#120071" stroke-width="3" stroke-linecap="round" stroke-linejoin="round"/>
<path d="M80.1977 71.3781C80.1977 77.7315 76.687 81.2489 69.1717 81.2489C61.6563 81.2489 55.5669 76.1003 55.5669 69.7424C55.5669 63.3845 61.6586 58.2358 69.1717 58.2358C76.6893 58.2358 80.1977 65.0247 80.1977 71.3781Z" fill="#4949E9"/>
<path d="M80.1977 71.3781C80.1977 77.7315 76.687 81.2489 69.1717 81.2489C61.6563 81.2489 55.5669 76.1003 55.5669 69.7424C55.5669 63.3845 61.6586 58.2358 69.1717 58.2358C76.6893 58.2358 80.1977 65.0247 80.1977 71.3781Z" stroke="#120071" stroke-width="3" stroke-linecap="round" stroke-linejoin="round"/>
<path d="M76.5665 85.4782C82.8839 83.7725 84.7791 70.6641 77.8074 63.063C76.5717 65.1241 74.8174 66.8253 72.7193 67.9971C70.6212 69.1688 68.2526 69.7702 65.8497 69.7413C65.7913 70.412 65.7702 71.0853 65.7865 71.7583C65.3952 71.5017 64.9398 71.36 64.4719 71.3492C64.0041 71.3385 63.5427 71.4591 63.14 71.6974C61.5606 72.8706 62.4631 76.5527 65.2473 78.1907C64.6337 85.4638 62.5073 92.5284 59.0044 98.9318C59.9746 105.576 65.8316 121.719 71.9707 121.792C78.94 121.859 80.8014 106.871 80.2374 98.5934C78.5768 96.1274 77.2231 88.8444 76.5665 85.4782Z" fill="#FECFC4"/>
<path d="M76.5665 85.4782C82.8839 83.7725 84.7791 70.6641 77.8074 63.063C76.5717 65.1241 74.8174 66.8253 72.7193 67.9971C70.6212 69.1688 68.2526 69.7702 65.8497 69.7413C65.7913 70.412 65.7702 71.0853 65.7865 71.7583C65.3952 71.5017 64.9398 71.36 64.4719 71.3492C64.0041 71.3385 63.5427 71.4591 63.14 71.6974C61.5606 72.8706 62.4631 76.5527 65.2473 78.1907C64.6337 85.4638 62.5073 92.5284 59.0044 98.9318C59.9746 105.576 65.8316 121.719 71.9707 121.792C78.94 121.859 80.8014 106.871 80.2374 98.5934C78.5768 96.1274 77.2231 88.8444 76.5665 85.4782Z" stroke="#120071" stroke-width="3" stroke-linecap="round" stroke-linejoin="round"/>
<path d="M68.2866 80.7764C69.8863 86.2363 73.6451 89.9794 77.4106 89.6296C77.1128 88.2466 76.8331 86.841 76.5668 85.485C73.1622 86.3965 70.1051 83.8222 68.2866 80.7764Z" fill="#4949E9"/>
<path d="M68.2866 80.7764C69.8863 86.2363 73.6451 89.9794 77.4106 89.6296C77.1128 88.2466 76.8331 86.841 76.5668 85.485C73.1622 86.3965 70.1051 83.8222 68.2866 80.7764Z" stroke="#120071" stroke-width="3" stroke-linecap="round" stroke-linejoin="round"/>
<path d="M188.377 191.943H2V212.524H188.377V191.943Z" stroke="#120071" stroke-width="3" stroke-linecap="round" stroke-linejoin="round"/>
<path d="M316.722 360.381C314.505 360.73 312.276 360.998 310.04 361.187L317.282 419.236C317.292 419.431 317.343 419.621 317.43 419.795C317.518 419.968 317.64 420.123 317.79 420.247C318.012 420.439 318.288 420.559 318.58 420.59C318.872 420.621 319.167 420.562 319.425 420.422C319.683 420.281 319.892 420.065 320.024 419.802C320.156 419.54 320.204 419.243 320.163 418.952L316.722 360.381Z" stroke="#120071" stroke-width="3" stroke-linecap="round" stroke-linejoin="round"/>
<path d="M338.143 353.739C335.979 354.824 333.754 355.787 331.482 356.622L361.503 415.107C361.685 415.437 361.988 415.684 362.349 415.796C362.709 415.907 363.099 415.875 363.435 415.705C363.772 415.535 364.03 415.241 364.155 414.886C364.28 414.53 364.262 414.139 364.105 413.796L338.143 353.739Z" stroke="#120071" stroke-width="3" stroke-linecap="round" stroke-linejoin="round"/>
<path d="M282.203 360.141L259.106 413.815C258.976 414.073 258.926 414.363 258.961 414.65C258.997 414.936 259.116 415.205 259.305 415.423C259.494 415.641 259.744 415.798 260.022 415.874C260.3 415.95 260.595 415.942 260.868 415.85C261.05 415.79 261.218 415.695 261.363 415.57C261.507 415.445 261.626 415.293 261.712 415.122L289.375 361.005C286.977 360.78 284.585 360.492 282.203 360.141Z" stroke="#120071" stroke-width="3" stroke-linecap="round" stroke-linejoin="round"/>
<path d="M254.73 338.589C253.409 341.002 252.954 343.793 253.441 346.5C253.928 349.207 255.327 351.665 257.406 353.466C258.784 354.66 260.414 355.527 262.175 356C292.094 363.935 328.717 365.74 351.324 344.597C367.372 329.585 372.532 306.443 371.815 284.648C371.709 280.973 370.65 277.387 368.74 274.245C366.83 271.103 364.136 268.511 360.922 266.725C357.707 264.938 354.083 264.018 350.405 264.058C346.727 264.097 343.123 265.094 339.948 266.951" stroke="#120071" stroke-width="3" stroke-linecap="round" stroke-linejoin="round"/>
<path d="M243.591 402.231L236.145 402.252L235.732 412.524L198.731 412.619C198.731 412.619 198.731 412.202 198.715 411.425C191.105 414.117 184.869 416.231 185.178 420.053C185.388 422.582 244.042 421.682 243.78 419.151C243.832 417.671 243.692 408.312 243.591 402.231Z" fill="#4949E9"/>
<path d="M198.703 411.425C191.093 414.117 184.857 416.231 185.166 420.053C185.376 422.582 244.03 421.682 243.768 419.15C243.827 417.661 243.687 408.303 243.585 402.229L236.14 402.249" stroke="#120071" stroke-width="3" stroke-linecap="round" stroke-linejoin="round"/>
<path d="M271.634 288.906C254.435 292.394 238.531 296.302 229.942 300.006C223.482 302.734 218.178 307.632 214.945 313.855" stroke="#120071" stroke-width="3" stroke-linecap="round" stroke-linejoin="round"/>
<path d="M236.133 402.252L244.497 402.229L247.055 338.56" stroke="#120071" stroke-width="3" stroke-linecap="round" stroke-linejoin="round"/>
<path d="M303.093 149.862C302.66 144.934 300.512 141.207 297.491 140.819C293.547 140.318 289.614 145.692 288.71 152.82C287.805 159.947 290.269 166.131 294.212 166.634C295.174 166.738 296.144 166.533 296.979 166.045L298.181 187.418C302.807 182.768 308.507 179.328 314.778 177.403L303.093 149.862Z" fill="#FECFC4"/>
<path d="M303.093 149.862C302.66 144.934 300.512 141.207 297.491 140.819C293.547 140.318 289.614 145.692 288.71 152.82C287.805 159.947 290.269 166.131 294.212 166.634C295.174 166.738 296.144 166.533 296.979 166.045L298.181 187.418C302.807 182.768 308.507 179.328 314.778 177.403L303.093 149.862Z" stroke="#120071" stroke-width="3" stroke-linecap="round" stroke-linejoin="round"/>
<path d="M296.976 166.045L297.17 169.467C298.683 168.308 299.926 166.835 300.814 165.149C301.703 163.462 302.214 161.603 302.314 159.7C302.39 159.03 300.322 164.298 296.976 166.045Z" fill="#4949E9"/>
<path d="M296.976 166.045L297.17 169.467C298.683 168.308 299.926 166.835 300.814 165.149C301.703 163.462 302.214 161.603 302.314 159.7C302.39 159.03 300.322 164.298 296.976 166.045Z" stroke="#120071" stroke-width="3" stroke-linecap="round" stroke-linejoin="round"/>
<path d="M303.136 145.929C302.766 142.77 301.597 137.992 299.952 137.06C288.543 130.603 285.366 137.782 288.628 141.532C291.37 144.69 294.607 151.021 298.648 153.119C299.722 151.815 300.922 148.036 302.721 149.909C303.143 151.308 303.073 152.806 302.522 154.157C302.791 154.198 304.289 154.157 304.553 154.157C303.93 151.443 303.457 148.696 303.136 145.929Z" fill="#4949E9"/>
<path d="M303.136 145.929C302.766 142.77 301.597 137.992 299.952 137.06C288.543 130.603 285.366 137.782 288.628 141.532C291.37 144.69 294.607 151.021 298.648 153.119C299.722 151.815 300.922 148.036 302.721 149.909C303.143 151.308 303.073 152.806 302.522 154.157C302.791 154.198 304.289 154.157 304.553 154.157C303.93 151.443 303.457 148.696 303.136 145.929Z" stroke="#120071" stroke-width="3" stroke-linecap="round" stroke-linejoin="round"/>
<path d="M276.266 220.962C273.703 215.096 271.285 208.778 268.751 202.948" stroke="#120071" stroke-width="3" stroke-linecap="round" stroke-linejoin="round"/>
<path d="M246.469 217.147L254.194 212.684C254.505 213.402 254.815 214.128 255.124 214.857C256.401 214.263 257.65 213.611 258.869 212.905C265.344 209.167 269.769 204.709 268.751 202.946C267.733 201.184 261.662 202.786 255.187 206.527C248.712 210.268 244.285 214.724 245.3 216.486C245.434 216.676 245.608 216.834 245.81 216.948C246.012 217.062 246.237 217.13 246.469 217.147Z" fill="#4949E9"/>
<path d="M255.124 214.857C256.401 214.263 257.65 213.611 258.869 212.905C265.344 209.167 269.769 204.709 268.751 202.946C267.733 201.184 261.662 202.786 255.187 206.527C248.712 210.268 244.285 214.724 245.3 216.486C245.434 216.676 245.608 216.834 245.81 216.948C246.012 217.062 246.237 217.13 246.469 217.147" stroke="#120071" stroke-width="3" stroke-linecap="round" stroke-linejoin="round"/>
<path d="M249.68 215.293L254.192 212.685C254.504 213.403 254.813 214.125 255.12 214.856C258.74 213.2 262.123 211.067 265.178 208.513L262.551 201.686C259.228 190.13 252.342 169.504 249.226 164.107C248.274 162.458 245.165 163.105 245.368 164.919C246.077 171.598 248.62 173.042 247.947 178.265C243.827 182.491 237.118 181.435 231.412 179.905C227.778 178.892 224.062 178.205 220.307 177.852C219.723 177.739 219.119 177.847 218.61 178.155C218.102 178.463 217.727 178.95 217.558 179.52C217.389 180.089 217.438 180.702 217.696 181.237C217.954 181.773 218.402 182.193 218.953 182.416C233.273 188.521 229.598 184.972 217.008 185.227C216.373 185.122 215.722 185.271 215.196 185.641C214.67 186.012 214.311 186.575 214.196 187.208C214.082 187.841 214.221 188.494 214.584 189.026C214.946 189.557 215.504 189.925 216.135 190.049C217.037 190.315 217.958 190.581 218.897 190.843C218.621 191.006 218.383 191.226 218.201 191.489C218.019 191.752 217.896 192.052 217.841 192.367C217.786 192.683 217.8 193.006 217.882 193.316C217.964 193.625 218.112 193.913 218.317 194.16C218.591 194.49 218.956 194.733 219.366 194.859C224.627 196.89 224.266 196.416 222.588 196.461C219.95 196.533 219.373 199.721 221.872 200.423C229.764 202.592 237.805 204.175 245.93 205.161C246.959 207.846 248.786 212.85 249.68 215.293Z" fill="#FECFC4"/>
<path d="M255.122 214.856C258.742 213.2 262.125 211.067 265.18 208.513L262.553 201.686C259.23 190.13 252.344 169.504 249.228 164.107C248.276 162.458 245.167 163.105 245.37 164.919C246.079 171.598 248.622 173.042 247.949 178.265C243.829 182.491 237.119 181.435 231.414 179.905C227.78 178.892 224.064 178.205 220.309 177.852C219.725 177.739 219.121 177.847 218.612 178.155C218.104 178.463 217.729 178.95 217.56 179.52C217.391 180.089 217.44 180.702 217.698 181.237C217.956 181.773 218.404 182.193 218.955 182.416C233.275 188.521 229.6 184.972 217.01 185.227C216.375 185.122 215.724 185.271 215.198 185.641C214.672 186.012 214.313 186.575 214.198 187.208C214.084 187.841 214.223 188.494 214.586 189.026C214.948 189.557 215.505 189.925 216.137 190.049C217.039 190.315 217.96 190.581 218.899 190.843C218.623 191.006 218.385 191.226 218.203 191.489C218.021 191.752 217.898 192.052 217.843 192.367C217.787 192.683 217.801 193.006 217.884 193.316C217.966 193.625 218.114 193.913 218.319 194.16C218.593 194.49 218.958 194.733 219.368 194.859C224.629 196.89 224.268 196.416 222.59 196.461C219.952 196.533 219.375 199.721 221.874 200.423C229.766 202.592 237.807 204.175 245.932 205.161C247.195 208.534 248.442 211.913 249.673 215.298" stroke="#120071" stroke-width="3" stroke-linecap="round" stroke-linejoin="round"/>
<path d="M338.691 217.211C336.033 195.89 331.613 191.662 314.776 177.403C286.939 185.096 270.554 233.056 268.4 243.561C263.005 235.439 258.786 223.271 254.186 212.687L230.735 226.224C233.476 239.159 244.179 284.236 271.601 280.4C271.581 286.717 271.655 292.847 271.764 298.646C300.264 293.682 330.828 289.296 339.806 286.41C339.815 270.229 340.674 233.128 338.691 217.211Z" stroke="#120071" stroke-width="3" stroke-linecap="round" stroke-linejoin="round"/>
<path d="M271.61 280.4C276.989 279.647 284.549 278.566 289.743 271.886C301.446 256.83 304.492 232.299 306.375 215.528" stroke="#120071" stroke-width="3" stroke-linecap="round" stroke-linejoin="round"/>
<path d="M240.628 216.271C247.103 212.53 253.177 210.926 254.194 212.688C255.212 214.45 250.788 218.908 244.312 222.647C237.837 226.385 231.761 227.987 230.744 226.225C229.726 224.463 234.153 220.009 240.628 216.271Z" fill="#4949E9"/>
<path d="M240.628 216.271C247.103 212.53 253.177 210.926 254.194 212.688C255.212 214.45 250.788 218.908 244.312 222.647C237.837 226.385 231.761 227.987 230.744 226.225C229.726 224.463 234.153 220.009 240.628 216.271Z" stroke="#120071" stroke-width="3" stroke-linecap="round" stroke-linejoin="round"/>
<path d="M243.86 192.334C245.728 187.086 244.731 180.036 243.291 174.048C242.84 172.216 239.264 172.074 238.779 173.87C237.2 180.656 239.287 182.797 236.737 187.407C230.77 190.417 224.037 187.858 218.083 184.873C214.43 182.973 210.621 181.388 206.698 180.135C203.54 179.19 201.058 182.425 203.565 184.196C206.299 186.125 208.427 187.19 211.504 189.056C207.866 187.951 204.164 187.073 200.417 186.428C196.904 185.787 194.583 189.485 197.425 191.127C196.957 191.239 196.531 191.482 196.197 191.829C195.863 192.175 195.635 192.61 195.54 193.081C195.445 193.553 195.487 194.042 195.662 194.491C195.836 194.939 196.135 195.329 196.523 195.613C197.768 196.312 199.041 196.957 200.34 197.551C197.633 197.264 196.009 200.22 198.364 201.494C205.913 205.58 221.312 210.488 229.08 213.407C229.982 213.746 232.358 222.842 233.524 226.872C240.22 225.356 246.405 222.121 251.47 217.486C250.568 215.088 242.994 194.773 243.86 192.334Z" fill="#FECFC4"/>
<path d="M243.86 192.334C245.728 187.086 244.731 180.036 243.291 174.048C242.84 172.216 239.264 172.074 238.779 173.87C237.2 180.656 239.287 182.797 236.737 187.407C230.77 190.417 224.037 187.858 218.083 184.873C214.43 182.973 210.621 181.388 206.698 180.135C203.54 179.19 201.058 182.425 203.565 184.196C206.299 186.125 208.427 187.19 211.504 189.056C207.866 187.951 204.164 187.073 200.417 186.428C196.904 185.787 194.583 189.485 197.425 191.127C196.957 191.239 196.531 191.482 196.197 191.829C195.863 192.175 195.635 192.61 195.54 193.081C195.445 193.553 195.487 194.042 195.662 194.491C195.836 194.939 196.135 195.329 196.523 195.613C197.768 196.312 199.041 196.957 200.34 197.551C197.633 197.264 196.009 200.22 198.364 201.494C205.913 205.58 221.312 210.488 229.08 213.407C229.982 213.746 232.358 222.842 233.524 226.872C240.22 225.356 246.405 222.121 251.47 217.486C250.568 215.088 242.994 194.773 243.86 192.334Z" stroke="#120071" stroke-width="3" stroke-linecap="round" stroke-linejoin="round"/>
<path d="M211.512 189.057L218.107 191.11" stroke="#120071" stroke-width="3" stroke-linecap="round" stroke-linejoin="round"/>
<path d="M234.496 412.526L206.325 412.599C205.536 413.368 204.647 414.027 203.681 414.557C191.854 421.307 175.562 423.045 176.058 429.166C176.264 431.702 234.918 430.801 234.658 428.263C234.706 426.878 234.595 418.568 234.496 412.526Z" fill="#4949E9"/>
<path d="M234.496 412.526L206.325 412.599C205.536 413.368 204.647 414.027 203.681 414.557C191.854 421.307 175.562 423.045 176.058 429.166C176.264 431.702 234.918 430.801 234.658 428.263C234.706 426.878 234.595 418.568 234.496 412.526Z" stroke="#120071" stroke-width="3" stroke-linecap="round" stroke-linejoin="round"/>
<path d="M221.168 310.299C206.49 316.632 202.668 330.492 201.005 341.037C197.93 360.632 198.719 412.626 198.719 412.626L235.721 412.531L238.699 338.438C238.699 338.438 309.769 340.31 322.961 331.232C334.113 323.561 339.814 309.435 339.814 286.417C324.111 291.453 242.435 301.123 221.168 310.299Z" stroke="#120071" stroke-width="3" stroke-linecap="round" stroke-linejoin="round"/>
<path d="M200.342 197.552C203.67 199.064 203.049 198.755 216.153 202.669" stroke="#120071" stroke-width="3" stroke-linecap="round" stroke-linejoin="round"/>
<path d="M216.811 197.044C210.207 195.584 203.727 193.607 197.433 191.132" stroke="#120071" stroke-width="3" stroke-linecap="round" stroke-linejoin="round"/>
</svg>
