<svg width="236" height="165" viewBox="0 0 236 165" fill="none" xmlns="http://www.w3.org/2000/svg">
<path d="M134.43 125.97L137.43 121.97L134.43 125.97ZM176.997 99.1858L172.769 101.856L176.997 99.1858ZM1.45099 39.6414C-0.144377 41.8953 0.389494 45.0158 2.64344 46.6112L39.3735 72.6093C41.6275 74.2046 44.748 73.6708 46.3433 71.4168C47.9387 69.1629 47.4048 66.0424 45.1509 64.447L12.5019 41.3376L35.6113 8.68865C37.2067 6.43471 36.6728 3.31423 34.4189 1.71885C32.1649 0.123486 29.0444 0.657357 27.4491 2.9113L1.45099 39.6414ZM231.79 98.9177C206.66 131.065 166.544 143.802 137.43 121.97L131.43 129.97C166.717 156.432 212.784 139.468 239.669 105.076L231.79 98.9177ZM137.43 121.97C131.143 117.256 129.934 112.575 130.595 108.765C131.33 104.533 134.608 100.009 139.811 96.6012C144.954 93.2328 151.341 91.3984 157.307 91.9826C163.098 92.5496 168.688 95.3924 172.769 101.856L181.224 96.516C175.421 87.3266 167.004 82.8843 158.282 82.0302C149.735 81.1932 141.102 83.8015 134.332 88.2357C127.621 92.6306 122.093 99.269 120.743 107.055C119.318 115.264 122.746 123.458 131.43 129.97L137.43 121.97ZM172.769 101.856C181.857 116.246 177.759 134.221 163.566 145.03C149.524 155.724 124.821 159.65 93.076 142.705L88.367 151.527C122.621 169.811 151.704 166.633 169.624 152.986C187.393 139.453 193.434 115.849 181.224 96.516L172.769 101.856ZM93.076 142.705C62.9687 126.635 64.3962 99.9482 62.7548 75.3955C61.9774 63.7666 60.4212 51.4044 51.5651 43.5566C42.6056 35.6171 27.8536 33.6385 4.68892 37.6017L6.3753 47.4585C29.0621 43.577 39.6347 46.3458 44.933 51.0409C50.3348 55.8278 51.9698 63.9874 52.7771 76.0625C54.305 98.9182 52.4757 132.369 88.367 151.527L93.076 142.705Z" fill="#4949E9"/>
</svg>
