<svg width="16" height="16" viewBox="0 0 16 16" fill="none" xmlns="http://www.w3.org/2000/svg">
<path d="M2.84111 12.8751C3.59667 12.3316 4.39837 11.9017 5.24622 11.5856C6.09407 11.2693 7.012 11.1111 8 11.1111C8.988 11.1111 9.90593 11.2693 10.7538 11.5856C11.6016 11.9017 12.4033 12.3316 13.1589 12.8751C13.7459 12.2677 14.2179 11.5504 14.5751 10.7231C14.9324 9.8957 15.1111 8.988 15.1111 8C15.1111 6.02963 14.4185 4.35185 13.0333 2.96667C11.6481 1.58148 9.97037 0.888889 8 0.888889C6.02963 0.888889 4.35185 1.58148 2.96667 2.96667C1.58148 4.35185 0.888889 6.02963 0.888889 8C0.888889 8.988 1.06756 9.8957 1.42489 10.7231C1.78207 11.5504 2.25415 12.2677 2.84111 12.8751ZM8.00044 8.44444C7.25141 8.44444 6.61963 8.18733 6.10511 7.67311C5.59059 7.15889 5.33333 6.52726 5.33333 5.77822C5.33333 5.02919 5.59044 4.39741 6.10467 3.88289C6.61889 3.36837 7.25052 3.11111 7.99956 3.11111C8.74859 3.11111 9.38037 3.36822 9.89489 3.88245C10.4094 4.39667 10.6667 5.0283 10.6667 5.77733C10.6667 6.52637 10.4096 7.15815 9.89533 7.67267C9.38111 8.18719 8.74948 8.44444 8.00044 8.44444ZM8 16C6.8843 16 5.83985 15.7923 4.86667 15.3769C3.89348 14.9615 3.04674 14.3937 2.32644 13.6736C1.6063 12.9533 1.03852 12.1065 0.623111 11.1333C0.207704 10.1601 0 9.1157 0 8C0 6.8843 0.207704 5.83985 0.623111 4.86667C1.03852 3.89348 1.6063 3.04674 2.32644 2.32644C3.04674 1.6063 3.89348 1.03852 4.86667 0.623111C5.83985 0.207703 6.8843 0 8 0C9.1157 0 10.1601 0.207703 11.1333 0.623111C12.1065 1.03852 12.9533 1.6063 13.6736 2.32644C14.3937 3.04674 14.9615 3.89348 15.3769 4.86667C15.7923 5.83985 16 6.8843 16 8C16 9.1157 15.7923 10.1601 15.3769 11.1333C14.9615 12.1065 14.3937 12.9533 13.6736 13.6736C12.9533 14.3937 12.1065 14.9615 11.1333 15.3769C10.1601 15.7923 9.1157 16 8 16ZM8 15.1111C8.81941 15.1111 9.6257 14.9678 10.4189 14.6811C11.2119 14.3946 11.8973 14.0023 12.4751 13.5042C11.8973 13.0404 11.229 12.6737 10.47 12.4042C9.71104 12.1347 8.8877 12 8 12C7.1123 12 6.28607 12.1319 5.52133 12.3958C4.75674 12.6596 4.09126 13.0291 3.52489 13.5042C4.10267 14.0023 4.78807 14.3946 5.58111 14.6811C6.3743 14.9678 7.18059 15.1111 8 15.1111ZM8 7.55556C8.49911 7.55556 8.92022 7.38407 9.26333 7.04111C9.6063 6.698 9.77778 6.27689 9.77778 5.77778C9.77778 5.27867 9.6063 4.85756 9.26333 4.51444C8.92022 4.17148 8.49911 4 8 4C7.50089 4 7.07978 4.17148 6.73667 4.51444C6.3937 4.85756 6.22222 5.27867 6.22222 5.77778C6.22222 6.27689 6.3937 6.698 6.73667 7.04111C7.07978 7.38407 7.50089 7.55556 8 7.55556Z" fill="#1C1B1F"/>
</svg>
