<svg width="17" height="8" viewBox="0 0 17 8" fill="none" xmlns="http://www.w3.org/2000/svg">
<g clip-path="url(#clip0_1310_838)">
<path d="M2.34333 0.233075C1.98917 -0.0837686 1.42146 -0.0765948 1.0764 0.249814C0.731354 0.575027 0.739166 1.09632 1.09463 1.41317L8.22875 7.76439L8.85245 7.17494L8.22745 7.76678C8.58422 8.08362 9.15323 8.07645 9.49828 7.74884C9.5087 7.73928 9.51781 7.72971 9.52693 7.72015L16.5504 1.41197C16.9058 1.09513 16.9136 0.575027 16.5686 0.248618C16.2235 -0.0765948 15.6571 -0.0837686 15.3017 0.233075L8.84984 6.02713L2.34333 0.233075Z" fill="black"/>
</g>
<defs>
<clipPath id="clip0_1310_838">
<rect width="8" height="16" fill="white" transform="matrix(0 1 -1 0 16.8223 0)"/>
</clipPath>
</defs>
</svg>
