<svg width="12" height="12" viewBox="0 0 12 12" fill="none" xmlns="http://www.w3.org/2000/svg">
<rect width="12" height="12" fill="#1E1E1E"/>
<g id="&#225;&#131;&#153;&#225;&#131;&#163;&#225;&#131;&#160;&#225;&#131;&#161;&#225;&#131;&#148;&#225;&#131;&#145;&#225;&#131;&#152;">
<path d="M-348 -411C-348 -412.105 -347.105 -413 -346 -413H1763C1764.1 -413 1765 -412.105 1765 -411V1894C1765 1895.1 1764.1 1896 1763 1896H-346C-347.105 1896 -348 1895.1 -348 1894V-411Z" fill="#444444"/>
<path d="M-346 -412H1763V-414H-346V-412ZM1764 -411V1894H1766V-411H1764ZM1763 1895H-346V1897H1763V1895ZM-347 1894V-411H-349V1894H-347ZM-346 1895C-346.552 1895 -347 1894.55 -347 1894H-349C-349 1895.66 -347.657 1897 -346 1897V1895ZM1764 1894C1764 1894.55 1763.55 1895 1763 1895V1897C1764.66 1897 1766 1895.66 1766 1894H1764ZM1763 -412C1763.55 -412 1764 -411.552 1764 -411H1766C1766 -412.657 1764.66 -414 1763 -414V-412ZM-346 -414C-347.657 -414 -349 -412.657 -349 -411H-347C-347 -411.552 -346.552 -412 -346 -412V-414Z" fill="white" fill-opacity="0.1"/>
<g id="&#225;&#131;&#153;&#225;&#131;&#163;&#225;&#131;&#160;&#225;&#131;&#161;&#225;&#131;&#148;&#225;&#131;&#145;&#225;&#131;&#152;_2" clip-path="url(#clip0_271_1031)">
<rect width="1440" height="2063" transform="translate(-248 -290)" fill="#F2F6FF"/>
<g id="Frame 427319128">
<g id="Frame 427319122">
<g id="Frame 427319117">
<g id="Frame 427319077">
<g id="Frame 427319223">
<g id="Frame 427319222">
<g id="Frame 427319069">
<rect x="-147.5" y="-12.5" width="167" height="37" rx="5.5" fill="white"/>
<rect x="-147.5" y="-12.5" width="167" height="37" rx="5.5" stroke="#DEE0F6"/>
<g id="close-line-icon (1) 1" clip-path="url(#clip1_271_1031)">
<g id="Group">
<path id="Vector" d="M0.139233 0.811768C-0.0464111 0.626123 -0.0464111 0.325049 0.139233 0.139307C0.324878 -0.0464355 0.625952 -0.0464355 0.811694 0.139307L5.99988 5.32749L11.1881 0.139307C11.3737 -0.0464355 11.6748 -0.0464355 11.8606 0.139307C12.0463 0.324951 12.0463 0.626123 11.8606 0.811768L6.67224 5.99985L11.8605 11.1881C12.0462 11.3738 12.0462 11.6749 11.8605 11.8606C11.6748 12.0463 11.3737 12.0463 11.188 11.8606L5.99978 6.67241L0.811694 11.8606C0.62605 12.0463 0.324976 12.0463 0.139233 11.8606C-0.0464111 11.675 -0.0464111 11.3739 0.139233 11.1881L5.32742 5.99985L0.139233 0.811768Z" fill="#7C88E0"/>
</g>
</g>
</g>
</g>
</g>
</g>
</g>
</g>
</g>
</g>
</g>
<defs>
<clipPath id="clip0_271_1031">
<rect width="1440" height="2063" fill="white" transform="translate(-248 -290)"/>
</clipPath>
<clipPath id="clip1_271_1031">
<rect width="11.9998" height="12" fill="white"/>
</clipPath>
</defs>
</svg>
