<svg width="12" height="12" viewBox="0 0 12 12" fill="none" xmlns="http://www.w3.org/2000/svg">
<g clip-path="url(#clip0_1310_853)">
<path d="M0.139233 0.811768C-0.0464111 0.626123 -0.0464111 0.325049 0.139233 0.139307C0.324878 -0.0464355 0.625952 -0.0464355 0.811694 0.139307L5.99988 5.32749L11.1881 0.139307C11.3737 -0.0464355 11.6748 -0.0464355 11.8606 0.139307C12.0463 0.324951 12.0463 0.626123 11.8606 0.811768L6.67224 5.99985L11.8605 11.1881C12.0462 11.3738 12.0462 11.6749 11.8605 11.8606C11.6748 12.0463 11.3737 12.0463 11.188 11.8606L5.99978 6.67241L0.811694 11.8606C0.62605 12.0463 0.324976 12.0463 0.139233 11.8606C-0.0464111 11.675 -0.0464111 11.3739 0.139233 11.1881L5.32742 5.99985L0.139233 0.811768Z" fill="#7C88E0"/>
</g>
<defs>
<clipPath id="clip0_1310_853">
<rect width="11.9998" height="12" fill="white"/>
</clipPath>
</defs>
</svg>
