<svg width="60" height="18" viewBox="0 0 60 18" fill="none" xmlns="http://www.w3.org/2000/svg">
<path d="M59.8227 13.9257C59.8227 16.7829 57.5598 17.9714 55.0227 17.9714C52.2341 17.9714 50.2227 16.1429 50.2227 13.6971C50.2227 11.4114 51.2055 10.2686 52.4398 9.30856L53.4455 10.3143C52.2569 11.4114 51.8455 11.8914 51.8455 13.72C51.8455 15.5486 52.8512 16.5771 55.0227 16.5771C56.9427 16.5771 58.1998 15.5257 58.1998 13.88V3.93714C58.1998 2.45142 57.1484 1.44571 55.4569 1.44571C53.7427 1.44571 52.5541 2.40571 52.5541 3.95999C52.5541 4.48571 52.6455 4.98856 53.1027 5.69713L51.8912 6.61142C51.3198 5.83428 51.0227 4.94285 51.0227 3.95999C51.0227 1.60571 52.7141 0.0285645 55.3198 0.0285645C57.8569 0.0285645 59.8227 1.39999 59.8227 3.93714V13.9257Z" fill="black"/>
<path d="M46.3775 10.3143C46.3775 8.30285 45.3261 6.81714 43.2232 6.81714C42.1032 6.81714 40.0233 6.86285 40.0233 10.3371V13.1486C40.0233 15.0228 41.029 16.5771 43.2004 16.5771C45.3261 16.5771 46.3775 15.2971 46.3775 12.9886V10.3143ZM48.0004 13.1714C48.0004 16.0971 46.309 17.9714 43.2232 17.9714C40.4118 17.9714 38.4004 16.12 38.4004 13.1486V3.38856C38.4004 1.23999 39.6575 0.257136 41.2347 0.257136C42.5375 0.257136 43.8175 0.828564 44.9604 0.828564C45.8975 0.828564 46.5375 0.531421 47.6575 0.0285645V1.26285C46.629 1.87999 45.8061 2.13142 44.8004 2.13142C43.6575 2.13142 42.6975 1.67428 41.5547 1.67428C40.3433 1.62856 39.8633 2.42856 39.8633 3.47999V7.36571C40.8461 5.85713 42.1718 5.44571 43.2004 5.44571C46.2861 5.44571 48.0004 7.77713 48.0004 10.2457V13.1714Z" fill="black"/>
<path d="M33.9871 7.02285C33.9871 3.82285 33.8042 1.44571 31.0842 1.44571C29.1185 1.44571 28.1585 2.63428 28.1585 4.94285V12.1428H26.5356V4.94285C26.5356 2.49714 25.5756 1.44571 23.5871 1.44571C21.0499 1.44571 20.6613 3.82285 20.6613 7.13714V10.2C20.6613 13.2628 21.5299 16.5771 23.8385 16.5771V17.9714C19.9985 17.9714 19.0156 13.7657 19.0156 10.2457V7.13714C19.0156 3.63999 19.5642 0.0285645 23.6099 0.0285645C25.5528 0.0285645 26.5585 0.988564 27.2899 2.63428C27.9071 0.988564 28.9813 0.0285645 31.0842 0.0285645C34.9471 0.0285645 35.6785 3.57142 35.6785 6.95428L35.6556 10.2457C35.6556 13.5828 34.5128 17.9714 30.8785 17.9714V16.5771C32.9813 16.5771 33.9871 13.3314 33.9871 10.1314V7.02285Z" fill="black"/>
<path d="M14.6603 5.62856C14.6603 3.66285 14.546 1.44571 11.8945 1.44571C9.49455 1.44571 9.06026 2.90856 9.06026 5.62856V7.57142C9.06026 10.4743 9.92883 11.7771 11.8945 11.7771C14.5003 11.7771 14.6603 9.30856 14.6603 7.57142V5.62856ZM12.6945 17.9714H10.5917C3.75741 17.9714 0.625977 12.8286 0.625977 7.68571V6.26856C0.625977 3.89142 1.03741 0.0285645 4.85455 0.0285645C6.66026 0.0285645 7.41455 0.714279 8.21455 2.86285C8.96883 0.645707 10.1117 0.0285645 11.8945 0.0285645C15.3688 0.0285645 16.3288 3.02285 16.3288 5.62856V7.63999C16.3288 10.2686 15.026 13.1714 11.8945 13.1714C8.92312 13.1714 7.43741 10.7486 7.43741 7.50285V5.67428C7.43741 3.36571 6.75169 1.44571 4.85455 1.44571C2.36312 1.44571 2.27169 4.59999 2.27169 6.26856V7.61714C2.27169 12.6914 5.22026 16.3943 10.5917 16.3943H12.6945V17.9714Z" fill="black"/>
</svg>
