<svg width="100" height="18" viewBox="0 0 100 18" fill="none" xmlns="http://www.w3.org/2000/svg">
<path d="M99.6029 10.8742C99.5801 13.9371 98.7801 17.3428 96.0601 17.9599L95.9229 16.5657C97.0429 16.5657 97.9801 14.5085 97.9801 10.9428V6.59995C97.9801 3.35423 97.3401 1.43423 94.8944 1.43423C92.2201 1.43423 91.6258 3.39995 91.6258 6.66852V10.9428C91.6258 14.4399 92.2658 16.5657 93.2944 16.5657L93.2715 17.9599C90.5058 17.4342 90.0029 13.8457 90.0029 10.9428V6.71423C90.0029 3.62852 90.8258 0.0170898 94.8029 0.0170898C98.8715 0.0170898 99.6258 3.1028 99.6258 6.59995L99.6029 10.8742Z" fill="black"/>
<path d="M87.7728 12.3371C87.7728 14.3485 85.7385 17.9828 82.9728 17.9828V16.5657C84.7328 16.5657 86.15 14.0057 86.15 12.3599V10.5542C86.15 7.4228 84.2985 6.69137 83.2014 6.69137C81.9671 6.69137 80.2757 7.53709 80.2757 10.2571V12.8857H78.63V10.2571C78.63 7.53709 76.9614 6.69137 75.7271 6.69137C74.2871 6.69137 72.7785 7.4228 72.7785 10.5542V12.4057C72.7785 14.0057 74.0128 16.5657 75.9557 16.5657V17.9599C72.7785 17.9599 71.1328 14.2571 71.1328 12.2685V10.5542C71.1328 5.41138 73.3957 0.0170898 83.4528 0.0170898V1.43423C78.0357 1.43423 74.6985 3.2628 73.35 6.02852L74.2642 5.75423L75.7271 5.43423C77.1442 5.43423 78.6985 5.47995 79.4528 8.15423C80.3442 5.47995 81.9671 5.43423 83.2014 5.43423C85.51 5.43423 87.7728 6.75995 87.7728 10.5542V12.3371Z" fill="black"/>
<path d="M66.9705 7.01138C66.9705 3.81137 66.7876 1.43423 64.0676 1.43423C62.1019 1.43423 61.1419 2.6228 61.1419 4.93137V12.1314H59.519V4.93137C59.519 2.48566 58.559 1.43423 56.5705 1.43423C54.0333 1.43423 53.6447 3.81137 53.6447 7.12566V10.1885C53.6447 13.2514 54.5133 16.5657 56.8219 16.5657V17.9599C52.9819 17.9599 51.999 13.7542 51.999 10.2342V7.12566C51.999 3.62852 52.5476 0.0170898 56.5933 0.0170898C58.5362 0.0170898 59.5419 0.977089 60.2733 2.6228C60.8905 0.977089 61.9647 0.0170898 64.0676 0.0170898C67.9304 0.0170898 68.6619 3.55995 68.6619 6.9428L68.639 10.2342C68.639 13.5714 67.4962 17.9599 63.8619 17.9599V16.5657C65.9647 16.5657 66.9705 13.3199 66.9705 10.1199V7.01138Z" fill="black"/>
<path d="M49.5535 11.6742C49.5535 15.2857 46.2621 17.9599 43.1307 17.9599C39.9535 17.9599 36.6621 15.3314 36.6621 11.6742V8.2228C36.6621 4.47423 39.5878 1.75423 42.5821 1.45709L41.8507 0.0170898H44.205L43.5878 1.45709C46.605 1.70852 49.5535 4.40566 49.5535 8.2228V11.6742ZM47.9078 8.2228C47.9078 4.74852 46.2164 3.03423 43.5878 2.85138L43.9535 10.5085H42.2164L42.5821 2.85138C40.1364 3.1028 38.285 4.79423 38.285 8.2228V11.6742C38.285 14.0971 40.1821 16.5657 43.1307 16.5657C45.9193 16.5657 47.9078 14.3028 47.9078 11.6742V8.2228Z" fill="black"/>
<path d="M32.9312 10.3028C32.9312 8.29137 31.8798 6.80566 29.777 6.80566C28.657 6.80566 26.577 6.85137 26.577 10.3257V13.1371C26.577 15.0114 27.5827 16.5657 29.7541 16.5657C31.8798 16.5657 32.9312 15.2857 32.9312 12.9771V10.3028ZM34.5541 13.1599C34.5541 16.0857 32.8627 17.9599 29.777 17.9599C26.9655 17.9599 24.9541 16.1085 24.9541 13.1371V3.37709C24.9541 1.22852 26.2112 0.245661 27.7884 0.245661C29.0912 0.245661 30.3712 0.817089 31.5141 0.817089C32.4512 0.817089 33.0912 0.519946 34.2112 0.0170898V1.25138C33.1827 1.86852 32.3598 2.11995 31.3541 2.11995C30.2112 2.11995 29.2512 1.6628 28.1084 1.6628C26.897 1.61709 26.417 2.41709 26.417 3.46852V7.35423C27.3998 5.84566 28.7255 5.43423 29.7541 5.43423C32.8398 5.43423 34.5541 7.76566 34.5541 10.2342V13.1599Z" fill="black"/>
<path d="M22.1186 13.9142C22.1186 16.7714 19.8557 17.9599 17.3186 17.9599C14.53 17.9599 12.5186 16.1314 12.5186 13.6857C12.5186 11.3999 13.5014 10.2571 14.7357 9.29709L15.7414 10.3028C14.5528 11.3999 14.1414 11.8799 14.1414 13.7085C14.1414 15.5371 15.1471 16.5657 17.3186 16.5657C19.2386 16.5657 20.4957 15.5142 20.4957 13.8685V3.92566C20.4957 2.43995 19.4443 1.43423 17.7528 1.43423C16.0386 1.43423 14.85 2.39423 14.85 3.94852C14.85 4.47423 14.9414 4.97709 15.3986 5.68566L14.1871 6.59995C13.6157 5.8228 13.3186 4.93137 13.3186 3.94852C13.3186 1.59423 15.01 0.0170898 17.6157 0.0170898C20.1528 0.0170898 22.1186 1.38852 22.1186 3.92566V13.9142Z" fill="black"/>
<path d="M8.3082 10.4171C8.3082 7.83423 6.93677 6.80566 5.15391 6.80566C3.07391 6.80566 1.95391 8.72566 1.95391 10.4628V12.9314C1.95391 15.1485 3.23391 16.5885 5.24534 16.5885C7.23391 16.5885 8.3082 15.2628 8.3082 12.9314V10.4171ZM9.93105 13.2285C9.93105 16.1314 8.01105 17.9599 5.19963 17.9599C2.04534 17.9599 0.331055 15.7885 0.331055 12.9314V10.4628C0.331055 8.13137 2.04534 5.43423 5.19963 5.43423C6.27391 5.43423 7.64534 5.75423 8.42248 7.44566V3.53709C8.42248 2.21137 6.82248 1.43423 5.33677 1.43423C3.46248 1.43423 2.52534 2.21137 2.52534 3.07995V4.42852H0.856769V3.07995C0.856769 1.43423 3.07391 0.0170898 5.35963 0.0170898C7.75963 0.0170898 9.95391 1.43423 9.95391 3.53709L9.93105 13.2285Z" fill="black"/>
</svg>
