<svg width="141" height="18" viewBox="0 0 141 18" fill="none" xmlns="http://www.w3.org/2000/svg">
<rect width="141" height="18" fill="#1E1E1E"/>
<g id="&#225;&#131;&#153;&#225;&#131;&#163;&#225;&#131;&#160;&#225;&#131;&#161;&#225;&#131;&#148;&#225;&#131;&#145;&#225;&#131;&#152;">
<path d="M-201 -338C-201 -339.105 -200.105 -340 -199 -340H1910C1911.1 -340 1912 -339.105 1912 -338V1967C1912 1968.1 1911.1 1969 1910 1969H-199C-200.105 1969 -201 1968.1 -201 1967V-338Z" fill="#444444"/>
<path d="M-199 -339H1910V-341H-199V-339ZM1911 -338V1967H1913V-338H1911ZM1910 1968H-199V1970H1910V1968ZM-200 1967V-338H-202V1967H-200ZM-199 1968C-199.552 1968 -200 1967.55 -200 1967H-202C-202 1968.66 -200.657 1970 -199 1970V1968ZM1911 1967C1911 1967.55 1910.55 1968 1910 1968V1970C1911.66 1970 1913 1968.66 1913 1967H1911ZM1910 -339C1910.55 -339 1911 -338.552 1911 -338H1913C1913 -339.657 1911.66 -341 1910 -341V-339ZM-199 -341C-200.657 -341 -202 -339.657 -202 -338H-200C-200 -338.552 -199.552 -339 -199 -339V-341Z" fill="white" fill-opacity="0.1"/>
<g id="&#225;&#131;&#153;&#225;&#131;&#163;&#225;&#131;&#160;&#225;&#131;&#161;&#225;&#131;&#148;&#225;&#131;&#145;&#225;&#131;&#152;_2" clip-path="url(#clip0_271_1031)">
<rect width="1440" height="2063" transform="translate(-101 -217)" fill="#F2F6FF"/>
<g id="Group 361">
<path id="Vector" d="M64.2586 -7.49406C87.0826 5.82019 108.921 5.82037 131.745 -7.49406C154.599 -20.8264 165.487 -39.9874 165.486 -66.6516C165.486 -93.3148 154.598 -112.474 131.745 -125.806C108.921 -139.121 87.0826 -139.121 64.2586 -125.806C41.4046 -112.475 30.5166 -93.3149 30.516 -66.6516C30.5155 -39.9873 41.4038 -20.8263 64.2586 -7.49406ZM136.501 0.845627C110.459 16.037 85.5424 16.0367 59.5006 0.845627C33.4235 -14.366 20.9998 -36.228 21 -66.6516C21.0002 -97.0748 33.4238 -118.936 59.5006 -134.148C85.5424 -149.339 110.459 -149.339 136.501 -134.148C162.577 -118.936 175 -97.0745 175 -66.6516C175 -36.2283 162.577 -14.3662 136.501 0.845627Z" fill="#DCF343"/>
<path id="Vector_2" d="M46.5171 13.5155C78.9746 32.4688 110.03 32.4691 142.488 13.5155C174.988 -5.46361 190.472 -32.7401 190.471 -70.6975C190.47 -108.654 174.987 -135.928 142.488 -154.906C110.03 -173.86 78.9746 -173.86 46.5171 -154.906C14.017 -135.928 -1.46667 -108.654 -1.46744 -70.6975C-1.46822 -32.7398 14.0158 -5.46347 46.5171 13.5155ZM149.251 25.3873C112.218 47.0128 76.7844 47.0124 39.7509 25.3873C2.66722 3.73296 -15.0003 -27.3885 -15 -70.6975C-14.9997 -114.006 2.66761 -145.127 39.7509 -166.781C76.7844 -188.406 112.218 -188.407 149.251 -166.781C186.334 -145.127 204 -114.006 204 -70.6975C204 -27.3889 186.334 3.73276 149.251 25.3873Z" fill="#DCF343"/>
</g>
<g id="Frame 427319102">
<rect width="1440" height="111" transform="translate(-101 -137)" fill="#4949E9"/>
<g id="Group 362">
<g id="Group 365">
<path id="Vector_3" d="M54.1037 -8.90738C75.4434 3.54103 95.8614 3.54121 117.201 -8.90738C138.569 -21.3727 148.749 -39.2877 148.748 -64.2178C148.748 -89.1471 138.569 -107.061 117.201 -119.526C95.8614 -131.974 75.4434 -131.974 54.1037 -119.526C32.7359 -107.061 22.5559 -89.1473 22.5554 -64.2178C22.5549 -39.2875 32.7351 -21.3726 54.1037 -8.90738ZM121.648 -1.11003C97.2997 13.0934 74.0034 13.0932 49.6551 -1.11003C25.2738 -15.3325 13.658 -35.7728 13.6582 -64.2178C13.6584 -92.6626 25.2741 -113.103 49.6551 -127.325C74.0034 -141.528 97.2997 -141.528 121.648 -127.325C146.029 -113.102 157.643 -92.6624 157.643 -64.2178C157.644 -35.773 146.029 -15.3326 121.648 -1.11003Z" fill="#DCF343"/>
<path id="Vector_4" d="M37.5166 10.7359C67.8634 28.4567 96.8994 28.457 127.246 10.7359C157.633 -7.00891 172.11 -32.5116 172.109 -68.0006C172.108 -103.488 157.632 -128.989 127.246 -146.733C96.8994 -164.454 67.8634 -164.454 37.5166 -146.733C7.12997 -128.989 -7.34675 -103.489 -7.34747 -68.0006C-7.3482 -32.5114 7.12888 -7.00879 37.5166 10.7359ZM133.57 21.8358C98.9448 42.0549 65.8156 42.0546 31.1904 21.8358C-3.48169 1.58958 -20.0002 -27.508 -20 -68.0006C-19.9998 -108.493 -3.48133 -137.59 31.1904 -157.836C65.8156 -178.055 98.9448 -178.055 133.57 -157.836C168.241 -137.59 184.758 -108.492 184.758 -68.0006C184.759 -27.5083 168.241 1.58942 133.57 21.8358Z" fill="#DCF343"/>
</g>
</g>
</g>
<g id="Frame 427319128">
<g id="Frame 427319122">
<g id="Frame 427319126">
<g id="Group 204" filter="url(#filter0_d_271_1031)">
<rect id="Rectangle 4144" x="-100.5" y="-25.5" width="1440" height="67" fill="#F5F9FF" stroke="#9099DA"/>
</g>
<g id="Frame 427319138">
<g id="Frame 427319232">
<g id="Frame 427319083">
<g id="Frame 427319078">
<g id="&#225;&#131;&#158;&#225;&#131;&#160;&#225;&#131;&#157;&#225;&#131;&#146;&#225;&#131;&#160;&#225;&#131;&#144;&#225;&#131;&#155;&#225;&#131;&#148;&#225;&#131;&#145;&#225;&#131;&#152;">
<path id="Vector_5" d="M140.308 10.8742C140.285 13.9371 139.485 17.3428 136.765 17.9599L136.628 16.5657C137.748 16.5657 138.685 14.5085 138.685 10.9428V6.59995C138.685 3.35423 138.045 1.43423 135.599 1.43423C132.925 1.43423 132.331 3.39995 132.331 6.66852V10.9428C132.331 14.4399 132.971 16.5657 133.999 16.5657L133.977 17.9599C131.211 17.4342 130.708 13.8457 130.708 10.9428V6.71423C130.708 3.62852 131.531 0.0170898 135.508 0.0170898C139.577 0.0170898 140.331 3.1028 140.331 6.59995L140.308 10.8742Z" fill="black"/>
<path id="Vector_6" d="M120.515 12.9314C120.515 14.8285 121.475 16.5657 123.669 16.5657C125.978 16.5657 126.846 14.6228 126.846 13.0685V10.6914C126.846 9.06852 125.818 7.05709 123.669 7.05709C121.383 7.05709 120.515 8.74852 120.515 10.7599V12.9314ZM122.023 0.0170898C122.023 1.9828 125.315 1.70852 125.315 3.51423C125.315 4.45138 125.132 4.88566 124.698 5.73138C127.212 6.32566 128.469 8.74852 128.469 10.5999L128.492 13.2285C128.492 15.1485 126.823 17.9599 123.669 17.9599C120.515 17.9599 118.869 15.3999 118.869 13.2057V10.6228C118.869 8.5428 120.081 6.18852 123.166 5.73138C123.646 4.61137 123.669 4.24566 123.669 3.55995C123.623 2.39423 120.378 2.34852 120.378 0.0170898H122.023Z" fill="black"/>
<path id="Vector_7" d="M116.285 13.9142C116.285 16.7714 114.022 17.9599 111.485 17.9599C108.696 17.9599 106.685 16.1314 106.685 13.6857C106.685 11.3999 107.667 10.2571 108.902 9.29709L109.907 10.3028C108.719 11.3999 108.307 11.8799 108.307 13.7085C108.307 15.5371 109.313 16.5657 111.485 16.5657C113.405 16.5657 114.662 15.5142 114.662 13.8685V3.92566C114.662 2.43995 113.61 1.43423 111.919 1.43423C110.205 1.43423 109.016 2.39423 109.016 3.94852C109.016 4.47423 109.107 4.97709 109.565 5.68566L108.353 6.59995C107.782 5.8228 107.485 4.93137 107.485 3.94852C107.485 1.59423 109.176 0.0170898 111.782 0.0170898C114.319 0.0170898 116.285 1.38852 116.285 3.92566V13.9142Z" fill="black"/>
<path id="Vector_8" d="M102.474 10.4171C102.474 7.83423 101.103 6.80566 99.3199 6.80566C97.2399 6.80566 96.1199 8.72566 96.1199 10.4628V12.9314C96.1199 15.1485 97.3999 16.5885 99.4114 16.5885C101.4 16.5885 102.474 15.2628 102.474 12.9314V10.4171ZM104.097 13.2285C104.097 16.1314 102.177 17.9599 99.3656 17.9599C96.2114 17.9599 94.4971 15.7885 94.4971 12.9314V10.4628C94.4971 8.13137 96.2114 5.43423 99.3656 5.43423C100.44 5.43423 101.811 5.75423 102.589 7.44566V3.53709C102.589 2.21137 100.988 1.43423 99.5028 1.43423C97.6285 1.43423 96.6914 2.21137 96.6914 3.07995V4.42852H95.0228V3.07995C95.0228 1.43423 97.2399 0.0170898 99.5256 0.0170898C101.926 0.0170898 104.12 1.43423 104.12 3.53709L104.097 13.2285Z" fill="black"/>
<path id="Vector_9" d="M92.2811 12.7714C92.2811 16.2228 90.6582 17.9599 87.4582 17.9599C84.3039 17.9599 82.6582 15.6742 82.6582 12.9314V12.1314C82.6582 11.1942 83.1839 10.1428 83.8925 9.15995L85.0125 9.73137C84.5553 10.6228 84.3039 11.5828 84.3039 12.1314V12.9999C84.3039 15.2857 85.1039 16.5657 87.4582 16.5657C89.6525 16.5657 90.6354 15.5142 90.6354 12.7028V11.3771C90.6354 6.82852 85.4468 5.79995 85.4468 1.41138V0.0170898H86.9554V1.41138C86.9554 5.0228 92.2811 6.53137 92.2811 11.3771V12.7714Z" fill="black"/>
<path id="Vector_10" d="M80.3138 12.3371C80.3138 14.3485 78.2795 17.9828 75.5138 17.9828V16.5657C77.2738 16.5657 78.691 14.0057 78.691 12.3599V10.5542C78.691 7.4228 76.8395 6.69137 75.7424 6.69137C74.5081 6.69137 72.8167 7.53709 72.8167 10.2571V12.8857H71.171V10.2571C71.171 7.53709 69.5024 6.69137 68.2681 6.69137C66.8281 6.69137 65.3195 7.4228 65.3195 10.5542V12.4057C65.3195 14.0057 66.5538 16.5657 68.4967 16.5657V17.9599C65.3195 17.9599 63.6738 14.2571 63.6738 12.2685V10.5542C63.6738 5.41138 65.9367 0.0170898 75.9938 0.0170898V1.43423C70.5767 1.43423 67.2395 3.2628 65.891 6.02852L66.8053 5.75423L68.2681 5.43423C69.6853 5.43423 71.2395 5.47995 71.9938 8.15423C72.8853 5.47995 74.5081 5.43423 75.7424 5.43423C78.051 5.43423 80.3138 6.75995 80.3138 10.5542V12.3371Z" fill="black"/>
<path id="Vector_11" d="M59.7562 11.1485C59.7562 9.57137 58.6362 7.39995 56.3734 7.39995H55.5734C53.2877 7.39995 51.8934 8.97709 51.8934 11.4914V12.6114C51.8934 14.4628 53.1734 16.5885 55.8705 16.5885C58.5448 16.5885 59.7562 14.9199 59.7562 12.6114V11.1485ZM61.4019 12.8171C61.3562 15.0571 59.6876 17.9599 55.8019 17.9599C52.2591 17.9599 50.2705 14.8514 50.2705 12.8171V11.4228C50.2705 8.7028 52.1448 6.11995 56.2362 5.9828L57.4019 3.62852C57.4019 2.82852 56.4876 1.43423 55.2076 1.43423C53.6305 1.43423 52.8762 2.11995 52.8762 3.05709V4.56566H51.4134V3.05709C51.4134 1.27423 53.2876 0.0170898 55.2076 0.0170898C57.6762 0.0170898 58.8648 1.41138 58.8648 3.62852L57.7219 6.11995C59.3219 6.6228 61.4705 8.3828 61.4248 11.1714L61.4019 12.8171Z" fill="black"/>
<path id="Vector_12" d="M46.2224 7.01138C46.2224 3.81137 46.0395 1.43423 43.3195 1.43423C41.3538 1.43423 40.3938 2.6228 40.3938 4.93137V12.1314H38.771V4.93137C38.771 2.48566 37.811 1.43423 35.8224 1.43423C33.2853 1.43423 32.8967 3.81137 32.8967 7.12566V10.1885C32.8967 13.2514 33.7653 16.5657 36.0738 16.5657V17.9599C32.2338 17.9599 31.251 13.7542 31.251 10.2342V7.12566C31.251 3.62852 31.7995 0.0170898 35.8453 0.0170898C37.7881 0.0170898 38.7938 0.977089 39.5253 2.6228C40.1424 0.977089 41.2167 0.0170898 43.3195 0.0170898C47.1824 0.0170898 47.9138 3.55995 47.9138 6.9428L47.891 10.2342C47.891 13.5714 46.7481 17.9599 43.1138 17.9599V16.5657C45.2167 16.5657 46.2224 13.3199 46.2224 10.1199V7.01138Z" fill="black"/>
<path id="Vector_13" d="M28.5638 12.3371C28.5638 14.3485 26.5295 17.9828 23.7638 17.9828V16.5657C25.5238 16.5657 26.941 14.0057 26.941 12.3599V10.5542C26.941 7.4228 25.0895 6.69137 23.9924 6.69137C22.7581 6.69137 21.0667 7.53709 21.0667 10.2571V12.8857H19.421V10.2571C19.421 7.53709 17.7524 6.69137 16.5181 6.69137C15.0781 6.69137 13.5695 7.4228 13.5695 10.5542V12.4057C13.5695 14.0057 14.8038 16.5657 16.7467 16.5657V17.9599C13.5695 17.9599 11.9238 14.2571 11.9238 12.2685V10.5542C11.9238 5.41138 14.1867 0.0170898 24.2438 0.0170898V1.43423C18.8267 1.43423 15.4895 3.2628 14.141 6.02852L15.0553 5.75423L16.5181 5.43423C17.9353 5.43423 19.4895 5.47995 20.2438 8.15423C21.1353 5.47995 22.7581 5.43423 23.9924 5.43423C26.301 5.43423 28.5638 6.75995 28.5638 10.5542V12.3371Z" fill="black"/>
<path id="Vector_14" d="M9.6 12.7485C9.6 15.9485 7.65714 17.9599 4.8 17.9599C2.08 17.9599 0 15.8342 0 13.6628V12.6342C0 11.6285 0.48 10.4171 0.937143 9.91423L2.19429 10.7828C1.64571 11.5599 1.62286 12.0171 1.62286 12.8857V13.2742C1.62286 15.0114 3.01714 16.5657 4.8 16.5657C7.06286 16.5657 7.97714 15.1714 7.97714 12.5657V11.2171C7.97714 9.8228 6.90286 8.33709 5.55429 8.33709H3.77143V6.9428H5.55429C6.88 6.9428 7.40571 5.9828 7.40571 4.79423V4.40566C7.40571 2.50852 1.28 3.51423 1.28 0.0170898H2.92571C2.92571 2.39423 9.02857 1.31995 9.02857 4.29138V4.81709C9.02857 5.6628 8.59429 6.80566 6.97143 7.67423C8.93714 8.67995 9.6 10.2571 9.6 11.2171V12.7485Z" fill="black"/>
</g>
</g>
</g>
</g>
</g>
</g>
</g>
</g>
</g>
</g>
<defs>
<filter id="filter0_d_271_1031" x="-121" y="-42" width="1481" height="108" filterUnits="userSpaceOnUse" color-interpolation-filters="sRGB">
<feFlood flood-opacity="0" result="BackgroundImageFix"/>
<feColorMatrix in="SourceAlpha" type="matrix" values="0 0 0 0 0 0 0 0 0 0 0 0 0 0 0 0 0 0 127 0" result="hardAlpha"/>
<feOffset dy="4"/>
<feGaussianBlur stdDeviation="10"/>
<feComposite in2="hardAlpha" operator="out"/>
<feColorMatrix type="matrix" values="0 0 0 0 0.6825 0 0 0 0 0.7714 0 0 0 0 1 0 0 0 0.5 0"/>
<feBlend mode="normal" in2="BackgroundImageFix" result="effect1_dropShadow_271_1031"/>
<feBlend mode="normal" in="SourceGraphic" in2="effect1_dropShadow_271_1031" result="shape"/>
</filter>
<clipPath id="clip0_271_1031">
<rect width="1440" height="2063" fill="white" transform="translate(-101 -217)"/>
</clipPath>
</defs>
</svg>
