<svg width="16" height="16" viewBox="0 0 16 16" fill="none" xmlns="http://www.w3.org/2000/svg">
<path d="M8.19198 1.35239L9.90833 4.96568C9.94738 5.05739 10.0088 5.13683 10.0864 5.19608C10.1641 5.25533 10.2553 5.29233 10.3509 5.30337L14.1398 5.8887C14.2496 5.9034 14.353 5.95035 14.4381 6.02407C14.5231 6.09777 14.5864 6.19521 14.6203 6.30497C14.6543 6.41474 14.6575 6.53232 14.6298 6.64398C14.6022 6.75564 14.5445 6.85676 14.4637 6.93554L11.7326 9.76088C11.663 9.82879 11.6106 9.91379 11.5805 10.0082C11.5503 10.1025 11.5433 10.2033 11.5599 10.3012L12.2184 14.2746C12.2375 14.3889 12.2254 14.5063 12.1836 14.6137C12.1418 14.7211 12.072 14.814 11.982 14.8821C11.892 14.9501 11.7855 14.9904 11.6746 14.9985C11.5638 15.0065 11.4529 14.982 11.3548 14.9275L7.9437 13.0477C7.85636 13.003 7.76034 12.9798 7.66304 12.9798C7.56573 12.9798 7.46973 13.003 7.38238 13.0477L3.97126 14.9275C3.87312 14.982 3.76231 15.0065 3.65144 14.9985C3.54057 14.9904 3.43408 14.9501 3.34411 14.8821C3.25412 14.814 3.18426 14.7211 3.14246 14.6137C3.10068 14.5063 3.08862 14.3889 3.10768 14.2746L3.76616 10.2562C3.78285 10.1582 3.77579 10.0575 3.74563 9.96313C3.71547 9.86876 3.66314 9.78376 3.59344 9.71585L0.830006 6.93554C0.748251 6.85461 0.690755 6.75068 0.664485 6.63637C0.638215 6.52205 0.644299 6.40224 0.681997 6.29145C0.719696 6.18067 0.787393 6.08366 0.876889 6.01217C0.966384 5.94069 1.07384 5.89779 1.18623 5.8887L4.97516 5.30337C5.0708 5.29233 5.162 5.25533 5.23965 5.19608C5.31731 5.13683 5.37871 5.05739 5.41774 4.96568L7.1341 1.35239C7.18084 1.24716 7.25547 1.15806 7.3492 1.09562C7.44292 1.03318 7.55182 1 7.66304 1C7.77426 1 7.88316 1.03318 7.97688 1.09562C8.0706 1.15806 8.14524 1.24716 8.19198 1.35239Z" fill="#FFC700" stroke="#FFC700" stroke-linecap="round" stroke-linejoin="round"/>
</svg>
