<svg width="17" height="4" viewBox="0 0 17 4" fill="none" xmlns="http://www.w3.org/2000/svg">
<path d="M0.586274 1.88C0.586274 1.23619 1.13104 0.716191 1.77485 0.716191C2.44342 0.716191 2.96342 1.21143 2.96342 1.88C2.96342 2.57333 2.39389 3.09333 1.77485 3.09333C1.1558 3.09333 0.586274 2.54857 0.586274 1.88ZM7.31479 1.88C7.31479 1.23619 7.85955 0.716191 8.50336 0.716191C9.17193 0.716191 9.69193 1.21143 9.69193 1.88C9.69193 2.57333 9.12241 3.09333 8.50336 3.09333C7.88431 3.09333 7.31479 2.54857 7.31479 1.88ZM14.0433 1.88C14.0433 1.23619 14.5881 0.716191 15.2319 0.716191C15.9004 0.716191 16.4204 1.21143 16.4204 1.88C16.4204 2.57333 15.8509 3.09333 15.2319 3.09333C14.6128 3.09333 14.0433 2.54857 14.0433 1.88Z" fill="black"/>
</svg>
