<svg width="16" height="16" viewBox="0 0 16 16" fill="none" xmlns="http://www.w3.org/2000/svg">
<path d="M8.54354 1.35239L10.2599 4.96568C10.2989 5.05739 10.3603 5.13683 10.438 5.19608C10.5157 5.25533 10.6068 5.29233 10.7025 5.30337L14.4914 5.8887C14.6012 5.9034 14.7046 5.95035 14.7896 6.02407C14.8747 6.09777 14.938 6.19521 14.9719 6.30497C15.0059 6.41474 15.0091 6.53232 14.9813 6.64398C14.9537 6.75564 14.8961 6.85676 14.8152 6.93554L12.0842 9.76088C12.0145 9.82879 11.9622 9.91379 11.9321 10.0082C11.9018 10.1025 11.8948 10.2033 11.9114 10.3012L12.5699 14.2746C12.589 14.3889 12.5769 14.5063 12.5352 14.6137C12.4934 14.7211 12.4235 14.814 12.3335 14.8821C12.2436 14.9501 12.1371 14.9904 12.0262 14.9985C11.9153 15.0065 11.8045 14.982 11.7063 14.9275L8.29526 13.0477C8.20792 13.003 8.1119 12.9798 8.0146 12.9798C7.9173 12.9798 7.82129 13.003 7.73394 13.0477L4.32282 14.9275C4.22468 14.982 4.11388 15.0065 4.003 14.9985C3.89213 14.9904 3.78564 14.9501 3.69567 14.8821C3.60568 14.814 3.53582 14.7211 3.49402 14.6137C3.45224 14.5063 3.44018 14.3889 3.45924 14.2746L4.11772 10.2562C4.13441 10.1582 4.12735 10.0575 4.09719 9.96313C4.06703 9.86876 4.01471 9.78376 3.945 9.71585L1.18157 6.93554C1.09981 6.85461 1.04232 6.75068 1.01605 6.63637C0.989777 6.52205 0.995861 6.40224 1.03356 6.29145C1.07126 6.18067 1.13896 6.08366 1.22845 6.01217C1.31795 5.94069 1.4254 5.89779 1.53779 5.8887L5.32672 5.30337C5.42237 5.29233 5.51356 5.25533 5.59122 5.19608C5.66887 5.13683 5.73027 5.05739 5.76931 4.96568L7.48566 1.35239C7.5324 1.24716 7.60704 1.15806 7.70077 1.09562C7.79449 1.03318 7.90338 1 8.0146 1C8.12582 1 8.23473 1.03318 8.32844 1.09562C8.42216 1.15806 8.4968 1.24716 8.54354 1.35239Z" fill="#FFC700" stroke="#FFC700" stroke-linecap="round" stroke-linejoin="round"/>
</svg>
