<svg width="368" height="163" viewBox="0 0 368 163" fill="none" xmlns="http://www.w3.org/2000/svg">
<path d="M241.896 100.807L238.495 104.472L241.896 100.807ZM306.91 24.2335L310.544 20.7995L306.91 24.2335ZM0.941584 79.4745C0.502795 82.2008 2.35725 84.7666 5.08358 85.2054L49.5119 92.3557C52.2382 92.7945 54.8041 90.94 55.2428 88.2137C55.6816 85.4874 53.8272 82.9215 51.1008 82.4827L11.609 76.1269L17.9648 36.6351C18.4036 33.9088 16.5492 31.3429 13.8228 30.9042C11.0965 30.4654 8.53064 32.3198 8.09185 35.0462L0.941584 79.4745ZM357.527 0.732539C352.097 29.777 332.962 63.3097 310.148 84.7312C298.751 95.4328 286.819 102.748 275.641 105.246C264.733 107.685 254.412 105.601 245.298 97.1425L238.495 104.472C250.226 115.359 263.985 118.099 277.823 115.005C291.393 111.972 304.876 103.399 316.993 92.0212C341.208 69.2844 361.5 33.8941 367.356 2.57019L357.527 0.732539ZM245.298 97.1425C231.149 84.0114 226.749 71.645 227.499 61.2203C228.26 50.6482 234.397 40.9166 243.611 33.3656C252.82 25.8187 264.679 20.8278 275.889 19.6175C287.138 18.4031 297.002 21.0278 303.276 27.6675L310.544 20.7995C301.416 11.1396 287.983 8.25381 274.816 9.67527C261.611 11.1008 247.937 16.8921 237.273 25.631C226.614 34.3658 218.538 46.4238 217.525 60.5023C216.501 74.7282 222.764 89.8734 238.495 104.472L245.298 97.1425ZM303.276 27.6675C321.972 47.454 323.753 78.3941 306.783 104.78C289.896 131.038 254.128 152.923 197.755 152.5L197.68 162.499C256.719 162.943 296.075 139.919 315.194 110.189C334.232 80.5878 332.903 44.4616 310.544 20.7995L303.276 27.6675ZM197.755 152.5C170.246 152.293 152.113 142.775 138.441 129.893C124.47 116.73 115.188 100.177 105.255 85.0563C95.6635 70.4563 85.0876 56.5745 68.6342 52.7422C52.1076 48.8929 31.5567 55.5407 2.94921 76.2165L8.8069 84.3213C36.9422 63.9867 54.3162 59.6749 66.3657 62.4815C78.4885 65.3051 87.14 75.6948 96.8967 90.5468C106.311 104.878 116.497 122.958 131.584 137.172C146.969 151.668 167.483 162.273 197.68 162.499L197.755 152.5Z" fill="url(#paint0_linear_1310_2305)"/>
<defs>
<linearGradient id="paint0_linear_1310_2305" x1="3.89181" y1="114.001" x2="273.029" y2="232.524" gradientUnits="userSpaceOnUse">
<stop stop-color="#CFE63C"/>
<stop offset="1" stop-color="#DCF343"/>
</linearGradient>
</defs>
</svg>
